<svg width="1690" height="1332" viewBox="0 0 1690 1332" fill="none" xmlns="http://www.w3.org/2000/svg">
<path d="M5 467.5V1049C5 1067.23 19.7746 1082 38 1082H533.5H636.5V467.5H5Z" fill="#FFA507"/>
<path d="M636.5 467.5V1082H1218C1236.23 1082 1251 1067.23 1251 1049V467.5H636.5Z" fill="#FFA507"/>
<path d="M636.5 467.5H1251V38C1251 19.7746 1236.23 5 1218 5H904V242C904 260.225 889.225 275 871 275H636.5V467.5Z" fill="#FFA507"/>
<path d="M636.5 275H871C889.225 275 904 260.225 904 242V5H636.5V275Z" fill="#FFA507"/>
<path d="M38 5C19.7746 5 5 19.7746 5 38V467.5H636.5V275V5H38Z" fill="#FFA507"/>
<path d="M1685 500.5C1685 482.275 1670.23 467.5 1652 467.5H1251V1049C1251 1067.23 1236.23 1082 1218 1082H636.5H533.5V1293.5C533.5 1311.73 548.275 1326.5 566.5 1326.5H1652C1670.23 1326.5 1685 1311.73 1685 1293.5V500.5Z" fill="#FFA507"/>
<path d="M5 467.5V38C5 19.7746 19.7746 5 38 5H636.5M5 467.5V1049C5 1067.23 19.7746 1082 38 1082H533.5M5 467.5H636.5M1251 467.5H1652C1670.23 467.5 1685 482.275 1685 500.5V1293.5C1685 1311.73 1670.23 1326.5 1652 1326.5H566.5C548.275 1326.5 533.5 1311.73 533.5 1293.5V1082M1251 467.5H636.5M1251 467.5V38C1251 19.7746 1236.23 5 1218 5H904M1251 467.5V1049C1251 1067.23 1236.23 1082 1218 1082H636.5M904 5V242C904 260.225 889.225 275 871 275H636.5M904 5H636.5M636.5 1082V467.5M636.5 1082H533.5M636.5 467.5V275M636.5 275V5" stroke="#141414" stroke-width="10"/>
<path d="M355.392 419.448C350.912 419.448 347.221 418.445 344.32 416.44C341.461 414.392 340.032 411.533 340.032 407.864C340.032 407.48 340.074 406.904 340.16 406.136H349.312C349.141 407.928 349.61 409.4 350.72 410.552C351.872 411.704 353.536 412.28 355.712 412.28C357.888 412.28 359.594 411.832 360.832 410.936C362.112 409.997 362.752 408.675 362.752 406.968C362.752 405.389 362.09 404.131 360.768 403.192C359.488 402.253 357.461 401.208 354.688 400.056C352.128 398.989 350.037 398.008 348.416 397.112C346.837 396.216 345.472 394.979 344.32 393.4C343.21 391.779 342.656 389.752 342.656 387.32C342.656 384.547 343.36 382.136 344.768 380.088C346.218 378.04 348.181 376.461 350.656 375.352C353.173 374.243 356.032 373.688 359.232 373.688C362.389 373.688 365.12 374.221 367.424 375.288C369.77 376.312 371.52 377.784 372.672 379.704C373.866 381.624 374.378 383.864 374.208 386.424H364.672L364.736 385.72C364.736 384.312 364.202 383.16 363.136 382.264C362.112 381.368 360.661 380.92 358.784 380.92C356.778 380.92 355.157 381.389 353.92 382.328C352.682 383.267 352.064 384.547 352.064 386.168C352.064 387.235 352.405 388.173 353.088 388.984C353.813 389.752 354.688 390.435 355.712 391.032C356.736 391.587 358.208 392.312 360.128 393.208C362.645 394.317 364.714 395.363 366.336 396.344C367.957 397.325 369.344 398.627 370.496 400.248C371.648 401.869 372.224 403.853 372.224 406.2C372.224 408.76 371.52 411.043 370.112 413.048C368.746 415.053 366.784 416.632 364.224 417.784C361.706 418.893 358.762 419.448 355.392 419.448ZM378.39 401.144C379.03 397.56 380.289 394.381 382.166 391.608C384.086 388.835 386.412 386.701 389.142 385.208C391.873 383.715 394.753 382.968 397.782 382.968C400.428 382.968 402.646 383.501 404.438 384.568C406.273 385.635 407.617 386.979 408.47 388.6L409.366 383.544H418.39L412.118 419H403.094L404.054 413.816C402.646 415.48 400.812 416.867 398.55 417.976C396.332 419.043 393.9 419.576 391.254 419.576C388.652 419.576 386.348 419 384.342 417.848C382.337 416.653 380.78 414.989 379.67 412.856C378.561 410.68 378.006 408.163 378.006 405.304C378.006 403.981 378.134 402.595 378.39 401.144ZM406.23 401.272C406.401 400.163 406.486 399.352 406.486 398.84C406.486 396.323 405.74 394.36 404.246 392.952C402.796 391.544 400.961 390.84 398.742 390.84C397.078 390.84 395.457 391.245 393.878 392.056C392.342 392.867 390.998 394.061 389.846 395.64C388.694 397.176 387.926 399.011 387.542 401.144C387.414 401.955 387.35 402.723 387.35 403.448C387.35 406.008 388.076 408.035 389.526 409.528C390.977 410.979 392.812 411.704 395.03 411.704C396.694 411.704 398.316 411.299 399.894 410.488C401.473 409.635 402.817 408.419 403.926 406.84C405.078 405.261 405.846 403.405 406.23 401.272ZM438.277 371.64L429.893 419H420.869L429.253 371.64H438.277ZM439.578 401.144C440.218 397.56 441.476 394.381 443.354 391.608C445.274 388.835 447.599 386.701 450.33 385.208C453.06 383.715 455.94 382.968 458.97 382.968C461.615 382.968 463.834 383.501 465.626 384.568C467.46 385.635 468.804 386.979 469.658 388.6L470.554 383.544H479.578L473.306 419H464.282L465.242 413.816C463.834 415.48 461.999 416.867 459.738 417.976C457.519 419.043 455.087 419.576 452.442 419.576C449.839 419.576 447.535 419 445.53 417.848C443.524 416.653 441.967 414.989 440.858 412.856C439.748 410.68 439.194 408.163 439.194 405.304C439.194 403.981 439.322 402.595 439.578 401.144ZM467.418 401.272C467.588 400.163 467.674 399.352 467.674 398.84C467.674 396.323 466.927 394.36 465.434 392.952C463.983 391.544 462.148 390.84 459.93 390.84C458.266 390.84 456.644 391.245 455.066 392.056C453.53 392.867 452.186 394.061 451.034 395.64C449.882 397.176 449.114 399.011 448.73 401.144C448.602 401.955 448.538 402.723 448.538 403.448C448.538 406.008 449.263 408.035 450.714 409.528C452.164 410.979 453.999 411.704 456.218 411.704C457.882 411.704 459.503 411.299 461.082 410.488C462.66 409.635 464.004 408.419 465.114 406.84C466.266 405.261 467.034 403.405 467.418 401.272ZM451.482 380.024C452.378 377.208 453.636 375.117 455.258 373.752C456.922 372.344 458.82 371.64 460.954 371.64C461.807 371.64 462.554 371.789 463.194 372.088C463.834 372.344 464.516 372.728 465.242 373.24C465.839 373.667 466.351 373.987 466.778 374.2C467.247 374.371 467.738 374.456 468.25 374.456C469.871 374.456 470.98 373.539 471.578 371.704H476.378C475.439 374.52 474.159 376.632 472.538 378.04C470.916 379.405 469.039 380.088 466.906 380.088C466.01 380.088 465.263 379.96 464.666 379.704C464.068 379.405 463.364 379 462.554 378.488C461.956 378.061 461.423 377.741 460.954 377.528C460.527 377.315 460.058 377.208 459.546 377.208C458.01 377.208 456.922 378.147 456.282 380.024H451.482ZM497.929 419.576C494.899 419.576 492.211 418.957 489.865 417.72C487.561 416.483 485.769 414.733 484.489 412.472C483.209 410.211 482.569 407.608 482.569 404.664C482.569 400.653 483.507 397.005 485.385 393.72C487.305 390.392 489.907 387.768 493.193 385.848C496.521 383.928 500.211 382.968 504.265 382.968C507.294 382.968 509.982 383.608 512.329 384.888C514.718 386.125 516.553 387.875 517.833 390.136C519.155 392.397 519.817 395 519.817 397.944C519.817 401.997 518.857 405.667 516.937 408.952C515.017 412.237 512.371 414.84 509.001 416.76C505.673 418.637 501.982 419.576 497.929 419.576ZM499.145 411.896C501.278 411.896 503.219 411.277 504.969 410.04C506.718 408.803 508.083 407.16 509.065 405.112C510.046 403.064 510.537 400.909 510.537 398.648C510.537 396.088 509.811 394.125 508.361 392.76C506.953 391.352 505.161 390.648 502.985 390.648C500.809 390.648 498.867 391.267 497.161 392.504C495.497 393.741 494.195 395.405 493.257 397.496C492.318 399.544 491.849 401.72 491.849 404.024C491.849 406.541 492.51 408.483 493.833 409.848C495.198 411.213 496.969 411.896 499.145 411.896ZM544.026 408.632C548.762 405.176 552.474 402.36 555.162 400.184C557.893 397.965 560.24 395.683 562.202 393.336C564.208 390.989 565.402 388.707 565.786 386.488C565.914 385.848 565.978 385.229 565.978 384.632C565.978 383.096 565.53 381.901 564.634 381.048C563.781 380.195 562.458 379.768 560.666 379.768C558.576 379.768 556.848 380.472 555.482 381.88C554.117 383.245 553.157 385.208 552.602 387.768H543.962C544.986 382.648 547.184 378.765 550.554 376.12C553.925 373.475 557.829 372.152 562.266 372.152C566.49 372.152 569.69 373.155 571.866 375.16C574.042 377.123 575.13 379.747 575.13 383.032C575.13 384.099 575.045 385.059 574.874 385.912C574.32 389.112 572.89 392.184 570.586 395.128C568.282 398.072 565.786 400.675 563.098 402.936C560.41 405.155 556.933 407.821 552.666 410.936H571.546L570.202 418.36H538.65L539.802 411.704L544.026 408.632Z" fill="#141414"/>
<path d="M439.015 994.328C443.154 994.328 446.716 995.053 449.703 996.504C452.732 997.912 455.036 999.939 456.615 1002.58C458.236 1005.23 459.047 1008.37 459.047 1011.99C459.047 1013.61 458.898 1015.19 458.599 1016.73C457.831 1021.21 456.167 1025.13 453.607 1028.5C451.09 1031.83 447.89 1034.41 444.007 1036.25C440.124 1038.08 435.815 1039 431.079 1039H415.463L423.399 994.328H439.015ZM432.103 1031.7C436.796 1031.7 440.636 1030.38 443.623 1027.74C446.652 1025.09 448.594 1021.42 449.447 1016.73C449.66 1015.32 449.767 1014.1 449.767 1013.08C449.767 1009.5 448.7 1006.72 446.567 1004.76C444.476 1002.8 441.404 1001.82 437.351 1001.82H431.079L425.831 1031.7H432.103ZM483.226 1002.97C487.749 1002.97 491.333 1004.23 493.978 1006.74C496.623 1009.22 497.946 1012.57 497.946 1016.79C497.946 1018.16 497.839 1019.37 497.626 1020.44C497.37 1021.72 497.093 1022.83 496.794 1023.77H470.874C470.831 1024.07 470.81 1024.49 470.81 1025.05C470.81 1027.27 471.45 1029.02 472.73 1030.3C474.053 1031.53 475.781 1032.15 477.914 1032.15C479.706 1032.15 481.242 1031.77 482.522 1031C483.845 1030.19 484.911 1029.14 485.722 1027.86H495.386C493.807 1031.28 491.354 1034.09 488.026 1036.31C484.741 1038.49 481.007 1039.58 476.826 1039.58C472.303 1039.58 468.677 1038.3 465.946 1035.74C463.215 1033.18 461.85 1029.7 461.85 1025.3C461.85 1024.02 461.978 1022.68 462.234 1021.27C462.874 1017.6 464.175 1014.38 466.138 1011.61C468.143 1008.83 470.618 1006.7 473.562 1005.21C476.506 1003.71 479.727 1002.97 483.226 1002.97ZM488.73 1018.33C488.815 1017.65 488.858 1017.15 488.858 1016.86C488.858 1014.81 488.197 1013.21 486.874 1012.06C485.551 1010.9 483.823 1010.33 481.69 1010.33C479.429 1010.33 477.402 1011.05 475.61 1012.5C473.818 1013.91 472.559 1015.85 471.834 1018.33H488.73ZM501.734 1021.27C502.374 1017.6 503.675 1014.4 505.638 1011.67C507.601 1008.9 510.033 1006.77 512.934 1005.27C515.878 1003.74 519.057 1002.97 522.47 1002.97C526.865 1002.97 530.299 1004.06 532.774 1006.23C535.291 1008.41 536.699 1011.5 536.998 1015.51H527.334C527.078 1013.98 526.417 1012.78 525.35 1011.93C524.283 1011.03 522.854 1010.58 521.062 1010.58C518.502 1010.58 516.305 1011.52 514.47 1013.4C512.678 1015.23 511.483 1017.86 510.886 1021.27C510.673 1022.47 510.566 1023.49 510.566 1024.34C510.566 1026.78 511.163 1028.65 512.358 1029.98C513.553 1031.26 515.217 1031.9 517.35 1031.9C520.934 1031.9 523.579 1030.27 525.286 1027.03H534.95C533.286 1030.87 530.79 1033.92 527.462 1036.18C524.177 1038.45 520.379 1039.58 516.07 1039.58C511.59 1039.58 508.006 1038.32 505.318 1035.8C502.673 1033.24 501.35 1029.78 501.35 1025.43C501.35 1024.11 501.478 1022.72 501.734 1021.27ZM559.434 1021.27L571.978 1039H560.394L551.05 1023.96L548.362 1039H539.338L547.722 991.64H556.746L552.01 1018.52L566.474 1003.54H578.186L559.434 1021.27Z" fill="#141414"/>
<path d="M571.046 1258.92C572.466 1259.17 573.797 1259.74 575.041 1260.62C576.284 1261.51 577.288 1262.73 578.053 1264.3C578.817 1265.84 579.202 1267.7 579.208 1269.88L579.22 1274.33L589.408 1276.09L589.423 1281.45L562.886 1276.81L562.86 1267.04C562.853 1264.33 563.455 1262.28 564.667 1260.88C565.854 1259.48 567.448 1258.78 569.45 1258.78C570.032 1258.77 570.565 1258.82 571.046 1258.92ZM575.026 1269.36C575.022 1267.92 574.665 1266.78 573.953 1265.95C573.241 1265.11 572.277 1264.58 571.061 1264.36C570.833 1264.31 570.503 1264.28 570.073 1264.28C568.071 1264.29 567.074 1265.53 567.081 1268.02L567.092 1272.2L575.038 1273.58L575.026 1269.36ZM589.677 1248.9C589.682 1250.7 589.319 1252.3 588.588 1253.69C587.857 1255.06 586.821 1256.13 585.481 1256.89C584.14 1257.66 582.596 1258.04 580.848 1258.05C578.467 1258.05 576.299 1257.5 574.345 1256.39C572.366 1255.26 570.804 1253.72 569.659 1251.77C568.514 1249.8 567.938 1247.61 567.931 1245.2C567.926 1243.4 568.302 1241.8 569.058 1240.41C569.789 1238.99 570.825 1237.89 572.166 1237.13C573.506 1236.34 575.05 1235.95 576.798 1235.94C579.205 1235.93 581.385 1236.5 583.339 1237.63C585.293 1238.77 586.842 1240.33 587.988 1242.33C589.108 1244.31 589.671 1246.5 589.677 1248.9ZM585.115 1248.19C585.112 1246.93 584.742 1245.77 584.004 1244.74C583.267 1243.7 582.289 1242.89 581.072 1242.31C579.854 1241.73 578.574 1241.45 577.231 1241.45C575.711 1241.45 574.547 1241.89 573.739 1242.75C572.905 1243.59 572.49 1244.65 572.493 1245.95C572.497 1247.24 572.867 1248.39 573.605 1249.4C574.342 1250.39 575.332 1251.16 576.575 1251.71C577.792 1252.27 579.085 1252.54 580.453 1252.54C581.948 1252.53 583.099 1252.14 583.908 1251.35C584.716 1250.54 585.119 1249.48 585.115 1248.19ZM571.945 1225.71C570.676 1224.8 569.685 1223.74 568.972 1222.52C568.26 1221.31 567.902 1219.99 567.898 1218.57L573.486 1219.55L573.49 1220.95C573.494 1222.52 573.84 1223.79 574.526 1224.75C575.213 1225.68 576.38 1226.36 578.028 1226.79L589.281 1228.74L589.296 1234.09L568.234 1230.43L568.219 1225.07L571.945 1225.71ZM582.736 1211.38C582.889 1211.4 583.091 1211.41 583.345 1211.41C583.851 1211.41 584.218 1211.27 584.445 1210.99C584.647 1210.69 584.747 1210.19 584.745 1209.51L584.739 1207L589.225 1207.79L589.234 1211.17C589.244 1214.97 587.666 1216.87 584.499 1216.88C583.891 1216.88 583.296 1216.83 582.713 1216.74L572.562 1214.98L572.569 1217.48L568.197 1216.74L568.19 1214.19L562.982 1213.29L562.967 1207.93L568.176 1208.83L568.163 1204.16L572.535 1204.91L572.548 1209.62L582.736 1211.38ZM578.611 1203.5C576.482 1203.12 574.593 1202.38 572.943 1201.27C571.294 1200.13 570.023 1198.76 569.132 1197.14C568.241 1195.52 567.793 1193.81 567.788 1192.01C567.784 1190.44 568.097 1189.12 568.728 1188.06C569.358 1186.97 570.154 1186.17 571.115 1185.66L568.112 1185.13L568.097 1179.77L589.159 1183.44L589.174 1188.8L586.094 1188.24C587.085 1189.07 587.911 1190.16 588.573 1191.5C589.21 1192.81 589.53 1194.26 589.535 1195.83C589.539 1197.37 589.201 1198.74 588.52 1199.94C587.814 1201.13 586.828 1202.05 585.563 1202.72C584.273 1203.38 582.779 1203.71 581.082 1203.72C580.297 1203.72 579.473 1203.65 578.611 1203.5ZM578.643 1186.97C577.984 1186.87 577.502 1186.82 577.198 1186.82C575.704 1186.82 574.54 1187.27 573.706 1188.16C572.872 1189.02 572.457 1190.11 572.461 1191.43C572.463 1192.42 572.707 1193.38 573.191 1194.31C573.674 1195.22 574.386 1196.02 575.325 1196.7C576.239 1197.38 577.329 1197.84 578.597 1198.06C579.078 1198.14 579.534 1198.17 579.965 1198.17C581.485 1198.17 582.687 1197.73 583.571 1196.87C584.43 1196.01 584.858 1194.92 584.855 1193.6C584.852 1192.61 584.609 1191.65 584.125 1190.71C583.616 1189.78 582.892 1188.98 581.952 1188.32C581.013 1187.64 579.91 1187.19 578.643 1186.97ZM571.795 1169.86C570.526 1168.95 569.535 1167.89 568.822 1166.67C568.11 1165.46 567.751 1164.14 567.748 1162.72L573.336 1163.7L573.34 1165.1C573.344 1166.67 573.69 1167.94 574.376 1168.9C575.063 1169.83 576.23 1170.52 577.878 1170.94L589.131 1172.89L589.145 1178.25L568.083 1174.58L568.069 1169.22L571.795 1169.86ZM565.526 1156.07C565.528 1156.9 565.289 1157.58 564.809 1158.08C564.329 1158.59 563.722 1158.85 562.987 1158.85C561.974 1158.85 561.112 1158.47 560.4 1157.72C559.663 1156.93 559.294 1156.02 559.291 1154.98C559.289 1154.17 559.528 1153.51 560.007 1153C560.487 1152.5 561.095 1152.24 561.829 1152.24C562.843 1152.24 563.718 1152.61 564.454 1153.37C565.166 1154.13 565.523 1155.03 565.526 1156.07ZM568.028 1153.86L589.09 1157.52L589.104 1162.88L568.042 1159.21L568.028 1153.86ZM578.472 1151.8C576.343 1151.43 574.454 1150.69 572.804 1149.58C571.155 1148.44 569.884 1147.06 568.993 1145.44C568.102 1143.83 567.654 1142.12 567.649 1140.32C567.645 1138.75 567.958 1137.43 568.589 1136.36C569.219 1135.27 570.015 1134.47 570.976 1133.96L567.973 1133.44L567.959 1128.08L589.02 1131.75L589.035 1137.11L585.955 1136.54C586.946 1137.38 587.772 1138.46 588.434 1139.81C589.071 1141.12 589.392 1142.56 589.396 1144.14C589.4 1145.68 589.062 1147.05 588.381 1148.24C587.675 1149.43 586.689 1150.36 585.424 1151.02C584.134 1151.69 582.64 1152.02 580.943 1152.02C580.158 1152.03 579.334 1151.95 578.472 1151.8ZM578.504 1135.27C577.845 1135.17 577.363 1135.12 577.059 1135.12C575.565 1135.13 574.401 1135.57 573.567 1136.46C572.733 1137.33 572.318 1138.42 572.322 1139.74C572.325 1140.72 572.568 1141.69 573.052 1142.62C573.535 1143.53 574.247 1144.33 575.186 1145.01C576.1 1145.69 577.19 1146.14 578.458 1146.37C578.939 1146.44 579.395 1146.48 579.826 1146.48C581.346 1146.47 582.548 1146.04 583.433 1145.18C584.292 1144.31 584.719 1143.22 584.716 1141.91C584.713 1140.92 584.47 1139.96 583.986 1139.02C583.477 1138.08 582.753 1137.29 581.814 1136.63C580.874 1135.95 579.771 1135.5 578.504 1135.27Z" fill="#141414"/>
<path d="M786.235 1030.49H768.379L763.963 1039H754.555L778.555 994.264H788.987L797.115 1039H787.643L786.235 1030.49ZM785.083 1023.51L781.883 1004.57L772.027 1023.51H785.083ZM792.443 985.048L776.443 991.768L777.595 985.368L793.723 977.752L792.443 985.048ZM817.327 1009.82C818.863 1007.68 820.655 1006.02 822.703 1004.82C824.751 1003.63 826.97 1003.03 829.359 1003.03L827.695 1012.44H825.327C822.682 1012.44 820.549 1013.02 818.927 1014.17C817.349 1015.32 816.197 1017.28 815.471 1020.06L812.143 1039H803.119L809.391 1003.54H818.415L817.327 1009.82ZM850.882 1002.97C855.405 1002.97 858.989 1004.23 861.634 1006.74C864.28 1009.22 865.602 1012.57 865.602 1016.79C865.602 1018.16 865.496 1019.37 865.282 1020.44C865.026 1021.72 864.749 1022.83 864.45 1023.77H838.53C838.488 1024.07 838.466 1024.49 838.466 1025.05C838.466 1027.27 839.106 1029.02 840.386 1030.3C841.709 1031.53 843.437 1032.15 845.57 1032.15C847.362 1032.15 848.898 1031.77 850.178 1031C851.501 1030.19 852.568 1029.14 853.378 1027.86H863.042C861.464 1031.28 859.01 1034.09 855.682 1036.31C852.397 1038.49 848.664 1039.58 844.482 1039.58C839.96 1039.58 836.333 1038.3 833.602 1035.74C830.872 1033.18 829.506 1029.7 829.506 1025.3C829.506 1024.02 829.634 1022.68 829.89 1021.27C830.53 1017.6 831.832 1014.38 833.794 1011.61C835.8 1008.83 838.274 1006.7 841.218 1005.21C844.162 1003.71 847.384 1002.97 850.882 1002.97ZM856.386 1018.33C856.472 1017.65 856.514 1017.15 856.514 1016.86C856.514 1014.81 855.853 1013.21 854.53 1012.06C853.208 1010.9 851.48 1010.33 849.346 1010.33C847.085 1010.33 845.058 1011.05 843.266 1012.5C841.474 1013.91 840.216 1015.85 839.49 1018.33H856.386ZM869.39 1021.14C870.03 1017.56 871.289 1014.38 873.166 1011.61C875.086 1008.83 877.412 1006.7 880.142 1005.21C882.873 1003.71 885.753 1002.97 888.782 1002.97C891.428 1002.97 893.646 1003.5 895.438 1004.57C897.273 1005.63 898.617 1006.98 899.47 1008.6L900.366 1003.54H909.39L903.118 1039H894.094L895.054 1033.82C893.646 1035.48 891.812 1036.87 889.55 1037.98C887.332 1039.04 884.9 1039.58 882.254 1039.58C879.652 1039.58 877.348 1039 875.342 1037.85C873.337 1036.65 871.78 1034.99 870.67 1032.86C869.561 1030.68 869.006 1028.16 869.006 1025.3C869.006 1023.98 869.134 1022.59 869.39 1021.14ZM897.23 1021.27C897.401 1020.16 897.486 1019.35 897.486 1018.84C897.486 1016.32 896.74 1014.36 895.246 1012.95C893.796 1011.54 891.961 1010.84 889.742 1010.84C888.078 1010.84 886.457 1011.25 884.878 1012.06C883.342 1012.87 881.998 1014.06 880.846 1015.64C879.694 1017.18 878.926 1019.01 878.542 1021.14C878.414 1021.95 878.35 1022.72 878.35 1023.45C878.35 1026.01 879.076 1028.03 880.526 1029.53C881.977 1030.98 883.812 1031.7 886.03 1031.7C887.694 1031.7 889.316 1031.3 890.894 1030.49C892.473 1029.63 893.817 1028.42 894.926 1026.84C896.078 1025.26 896.846 1023.41 897.23 1021.27ZM930.85 1016.6C931.618 1012.21 933.282 1008.28 935.842 1004.82C938.445 1001.33 941.624 998.616 945.378 996.696C949.176 994.733 953.208 993.752 957.474 993.752C962.466 993.752 966.626 995.032 969.954 997.592C973.282 1000.15 975.288 1003.69 975.97 1008.22H965.666C964.984 1006.17 963.81 1004.63 962.146 1003.61C960.482 1002.54 958.434 1002.01 956.002 1002.01C953.4 1002.01 950.968 1002.61 948.706 1003.8C946.488 1004.99 944.61 1006.7 943.074 1008.92C941.581 1011.14 940.578 1013.7 940.066 1016.6C939.853 1017.97 939.746 1019.1 939.746 1019.99C939.746 1023.45 940.728 1026.18 942.69 1028.18C944.696 1030.19 947.405 1031.19 950.818 1031.19C953.25 1031.19 955.49 1030.66 957.538 1029.59C959.586 1028.53 961.314 1026.97 962.722 1024.92H973.026C970.722 1029.49 967.458 1033.05 963.234 1035.61C959.053 1038.13 954.466 1039.38 949.474 1039.38C945.72 1039.38 942.392 1038.64 939.49 1037.14C936.632 1035.61 934.413 1033.45 932.834 1030.68C931.256 1027.91 930.466 1024.73 930.466 1021.14C930.466 1019.65 930.594 1018.14 930.85 1016.6ZM993.991 1039.58C990.962 1039.58 988.274 1038.96 985.927 1037.72C983.623 1036.48 981.831 1034.73 980.551 1032.47C979.271 1030.21 978.631 1027.61 978.631 1024.66C978.631 1020.65 979.57 1017.01 981.447 1013.72C983.367 1010.39 985.97 1007.77 989.255 1005.85C992.583 1003.93 996.274 1002.97 1000.33 1002.97C1003.36 1002.97 1006.04 1003.61 1008.39 1004.89C1010.78 1006.13 1012.62 1007.87 1013.9 1010.14C1015.22 1012.4 1015.88 1015 1015.88 1017.94C1015.88 1022 1014.92 1025.67 1013 1028.95C1011.08 1032.24 1008.43 1034.84 1005.06 1036.76C1001.74 1038.64 998.045 1039.58 993.991 1039.58ZM995.207 1031.9C997.341 1031.9 999.282 1031.28 1001.03 1030.04C1002.78 1028.8 1004.15 1027.16 1005.13 1025.11C1006.11 1023.06 1006.6 1020.91 1006.6 1018.65C1006.6 1016.09 1005.87 1014.13 1004.42 1012.76C1003.02 1011.35 1001.22 1010.65 999.047 1010.65C996.871 1010.65 994.93 1011.27 993.223 1012.5C991.559 1013.74 990.258 1015.41 989.319 1017.5C988.381 1019.54 987.911 1021.72 987.911 1024.02C987.911 1026.54 988.573 1028.48 989.895 1029.85C991.261 1031.21 993.031 1031.9 995.207 1031.9ZM1033.33 1008.73C1034.74 1007.02 1036.55 1005.63 1038.77 1004.57C1040.99 1003.5 1043.4 1002.97 1046 1002.97C1048.65 1002.97 1050.97 1003.54 1052.98 1004.7C1055.03 1005.81 1056.61 1007.43 1057.72 1009.56C1058.83 1011.69 1059.38 1014.19 1059.38 1017.05C1059.38 1018.37 1059.25 1019.74 1059 1021.14C1058.36 1024.77 1057.08 1027.99 1055.16 1030.81C1053.24 1033.58 1050.91 1035.74 1048.18 1037.27C1045.45 1038.81 1042.59 1039.58 1039.6 1039.58C1036.96 1039.58 1034.72 1039.06 1032.88 1038.04C1031.05 1036.97 1029.71 1035.61 1028.85 1033.94L1027.96 1039H1018.93L1027.32 991.64H1036.34L1033.33 1008.73ZM1049.84 1021.14C1049.97 1020.29 1050.04 1019.52 1050.04 1018.84C1050.04 1016.32 1049.31 1014.36 1047.86 1012.95C1046.41 1011.54 1044.55 1010.84 1042.29 1010.84C1040.67 1010.84 1039.07 1011.27 1037.49 1012.12C1035.91 1012.93 1034.55 1014.13 1033.4 1015.7C1032.24 1017.28 1031.48 1019.14 1031.09 1021.27C1030.92 1022.38 1030.84 1023.19 1030.84 1023.7C1030.84 1026.22 1031.56 1028.18 1033.01 1029.59C1034.51 1031 1036.36 1031.7 1038.58 1031.7C1040.24 1031.7 1041.87 1031.28 1043.44 1030.42C1045.02 1029.57 1046.39 1028.35 1047.54 1026.78C1048.69 1025.2 1049.46 1023.32 1049.84 1021.14ZM1084.19 1002.97C1088.72 1002.97 1092.3 1004.23 1094.95 1006.74C1097.59 1009.22 1098.91 1012.57 1098.91 1016.79C1098.91 1018.16 1098.81 1019.37 1098.59 1020.44C1098.34 1021.72 1098.06 1022.83 1097.76 1023.77H1071.84C1071.8 1024.07 1071.78 1024.49 1071.78 1025.05C1071.78 1027.27 1072.42 1029.02 1073.7 1030.3C1075.02 1031.53 1076.75 1032.15 1078.88 1032.15C1080.67 1032.15 1082.21 1031.77 1083.49 1031C1084.81 1030.19 1085.88 1029.14 1086.69 1027.86H1096.35C1094.78 1031.28 1092.32 1034.09 1088.99 1036.31C1085.71 1038.49 1081.98 1039.58 1077.79 1039.58C1073.27 1039.58 1069.65 1038.3 1066.91 1035.74C1064.18 1033.18 1062.82 1029.7 1062.82 1025.3C1062.82 1024.02 1062.95 1022.68 1063.2 1021.27C1063.84 1017.6 1065.14 1014.38 1067.11 1011.61C1069.11 1008.83 1071.59 1006.7 1074.53 1005.21C1077.47 1003.71 1080.7 1002.97 1084.19 1002.97ZM1089.7 1018.33C1089.78 1017.65 1089.83 1017.15 1089.83 1016.86C1089.83 1014.81 1089.17 1013.21 1087.84 1012.06C1086.52 1010.9 1084.79 1010.33 1082.66 1010.33C1080.4 1010.33 1078.37 1011.05 1076.58 1012.5C1074.79 1013.91 1073.53 1015.85 1072.8 1018.33H1089.7ZM1116.01 1009.82C1117.55 1007.68 1119.34 1006.02 1121.39 1004.82C1123.44 1003.63 1125.66 1003.03 1128.05 1003.03L1126.38 1012.44H1124.01C1121.37 1012.44 1119.24 1013.02 1117.61 1014.17C1116.04 1015.32 1114.88 1017.28 1114.16 1020.06L1110.83 1039H1101.81L1108.08 1003.54H1117.1L1116.01 1009.82ZM1140.1 1028.06C1140.06 1028.31 1140.03 1028.65 1140.03 1029.08C1140.03 1029.93 1140.27 1030.55 1140.74 1030.94C1141.25 1031.28 1142.08 1031.45 1143.23 1031.45H1147.46L1146.11 1039H1140.42C1134.02 1039 1130.82 1036.33 1130.82 1031C1130.82 1029.98 1130.9 1028.97 1131.07 1027.99L1134.08 1010.9H1129.86L1131.14 1003.54H1135.43L1136.96 994.776H1145.99L1144.45 1003.54H1152.32L1151.04 1010.9H1143.11L1140.1 1028.06ZM1153.39 1021.14C1154.03 1017.56 1155.29 1014.38 1157.17 1011.61C1159.09 1008.83 1161.41 1006.7 1164.14 1005.21C1166.87 1003.71 1169.75 1002.97 1172.78 1002.97C1175.43 1002.97 1177.65 1003.5 1179.44 1004.57C1181.27 1005.63 1182.62 1006.98 1183.47 1008.6L1184.37 1003.54H1193.39L1187.12 1039H1178.09L1179.05 1033.82C1177.65 1035.48 1175.81 1036.87 1173.55 1037.98C1171.33 1039.04 1168.9 1039.58 1166.25 1039.58C1163.65 1039.58 1161.35 1039 1159.34 1037.85C1157.34 1036.65 1155.78 1034.99 1154.67 1032.86C1153.56 1030.68 1153.01 1028.16 1153.01 1025.3C1153.01 1023.98 1153.13 1022.59 1153.39 1021.14ZM1181.23 1021.27C1181.4 1020.16 1181.49 1019.35 1181.49 1018.84C1181.49 1016.32 1180.74 1014.36 1179.25 1012.95C1177.8 1011.54 1175.96 1010.84 1173.74 1010.84C1172.08 1010.84 1170.46 1011.25 1168.88 1012.06C1167.34 1012.87 1166 1014.06 1164.85 1015.64C1163.69 1017.18 1162.93 1019.01 1162.54 1021.14C1162.41 1021.95 1162.35 1022.72 1162.35 1023.45C1162.35 1026.01 1163.08 1028.03 1164.53 1029.53C1165.98 1030.98 1167.81 1031.7 1170.03 1031.7C1171.69 1031.7 1173.32 1031.3 1174.89 1030.49C1176.47 1029.63 1177.82 1028.42 1178.93 1026.84C1180.08 1025.26 1180.85 1023.41 1181.23 1021.27Z" fill="#141414"/>
<path d="M1071.27 1266.49H1053.41L1048.99 1275H1039.59L1063.59 1230.26H1074.02L1082.15 1275H1072.67L1071.27 1266.49ZM1070.11 1259.51L1066.91 1240.57L1057.06 1259.51H1070.11ZM1077.47 1221.05L1061.47 1227.77L1062.63 1221.37L1078.75 1213.75L1077.47 1221.05ZM1102.36 1245.82C1103.89 1243.68 1105.69 1242.02 1107.73 1240.82C1109.78 1239.63 1112 1239.03 1114.39 1239.03L1112.73 1248.44H1110.36C1107.71 1248.44 1105.58 1249.02 1103.96 1250.17C1102.38 1251.32 1101.23 1253.28 1100.5 1256.06L1097.17 1275H1088.15L1094.42 1239.54H1103.45L1102.36 1245.82ZM1135.91 1238.97C1140.44 1238.97 1144.02 1240.23 1146.67 1242.74C1149.31 1245.22 1150.63 1248.57 1150.63 1252.79C1150.63 1254.16 1150.53 1255.37 1150.31 1256.44C1150.06 1257.72 1149.78 1258.83 1149.48 1259.77H1123.56C1123.52 1260.07 1123.5 1260.49 1123.5 1261.05C1123.5 1263.27 1124.14 1265.02 1125.42 1266.3C1126.74 1267.53 1128.47 1268.15 1130.6 1268.15C1132.39 1268.15 1133.93 1267.77 1135.21 1267C1136.53 1266.19 1137.6 1265.14 1138.41 1263.86H1148.07C1146.49 1267.28 1144.04 1270.09 1140.71 1272.31C1137.43 1274.49 1133.69 1275.58 1129.51 1275.58C1124.99 1275.58 1121.36 1274.3 1118.63 1271.74C1115.9 1269.18 1114.54 1265.7 1114.54 1261.3C1114.54 1260.02 1114.67 1258.68 1114.92 1257.27C1115.56 1253.6 1116.86 1250.38 1118.83 1247.61C1120.83 1244.83 1123.31 1242.7 1126.25 1241.21C1129.19 1239.71 1132.41 1238.97 1135.91 1238.97ZM1141.42 1254.33C1141.5 1253.65 1141.55 1253.15 1141.55 1252.86C1141.55 1250.81 1140.88 1249.21 1139.56 1248.06C1138.24 1246.9 1136.51 1246.33 1134.38 1246.33C1132.12 1246.33 1130.09 1247.05 1128.3 1248.5C1126.51 1249.91 1125.25 1251.85 1124.52 1254.33H1141.42ZM1154.42 1257.14C1155.06 1253.56 1156.32 1250.38 1158.2 1247.61C1160.12 1244.83 1162.44 1242.7 1165.17 1241.21C1167.9 1239.71 1170.78 1238.97 1173.81 1238.97C1176.46 1238.97 1178.68 1239.5 1180.47 1240.57C1182.3 1241.63 1183.65 1242.98 1184.5 1244.6L1185.4 1239.54H1194.42L1188.15 1275H1179.13L1180.09 1269.82C1178.68 1271.48 1176.84 1272.87 1174.58 1273.98C1172.36 1275.04 1169.93 1275.58 1167.29 1275.58C1164.68 1275.58 1162.38 1275 1160.37 1273.85C1158.37 1272.65 1156.81 1270.99 1155.7 1268.86C1154.59 1266.68 1154.04 1264.16 1154.04 1261.3C1154.04 1259.98 1154.17 1258.59 1154.42 1257.14ZM1182.26 1257.27C1182.43 1256.16 1182.52 1255.35 1182.52 1254.84C1182.52 1252.32 1181.77 1250.36 1180.28 1248.95C1178.83 1247.54 1176.99 1246.84 1174.77 1246.84C1173.11 1246.84 1171.49 1247.25 1169.91 1248.06C1168.37 1248.87 1167.03 1250.06 1165.88 1251.64C1164.73 1253.18 1163.96 1255.01 1163.57 1257.14C1163.45 1257.95 1163.38 1258.72 1163.38 1259.45C1163.38 1262.01 1164.11 1264.03 1165.56 1265.53C1167.01 1266.98 1168.84 1267.7 1171.06 1267.7C1172.73 1267.7 1174.35 1267.3 1175.93 1266.49C1177.5 1265.63 1178.85 1264.42 1179.96 1262.84C1181.11 1261.26 1181.88 1259.41 1182.26 1257.27ZM1228.43 1244.66C1229.88 1243.04 1231.69 1241.7 1233.87 1240.63C1236.08 1239.52 1238.49 1238.97 1241.1 1238.97C1243.74 1238.97 1246.07 1239.54 1248.07 1240.7C1250.12 1241.81 1251.7 1243.43 1252.81 1245.56C1253.92 1247.69 1254.47 1250.19 1254.47 1253.05C1254.47 1254.37 1254.35 1255.74 1254.09 1257.14C1253.45 1260.77 1252.17 1263.99 1250.25 1266.81C1248.33 1269.58 1246 1271.74 1243.27 1273.27C1240.54 1274.81 1237.68 1275.58 1234.7 1275.58C1232.09 1275.58 1229.88 1275.04 1228.04 1273.98C1226.25 1272.91 1224.88 1271.57 1223.95 1269.94L1220.11 1291.9H1211.08L1220.3 1239.54H1229.32L1228.43 1244.66ZM1244.94 1257.14C1245.07 1256.29 1245.13 1255.52 1245.13 1254.84C1245.13 1252.32 1244.4 1250.36 1242.95 1248.95C1241.5 1247.54 1239.65 1246.84 1237.39 1246.84C1235.76 1246.84 1234.16 1247.27 1232.59 1248.12C1231.01 1248.93 1229.64 1250.13 1228.49 1251.7C1227.34 1253.28 1226.57 1255.14 1226.19 1257.27C1226.01 1258.38 1225.93 1259.19 1225.93 1259.7C1225.93 1262.22 1226.65 1264.18 1228.11 1265.59C1229.6 1267 1231.45 1267.7 1233.67 1267.7C1235.34 1267.7 1236.96 1267.28 1238.54 1266.42C1240.12 1265.57 1241.48 1264.35 1242.63 1262.78C1243.79 1261.2 1244.55 1259.32 1244.94 1257.14ZM1292.15 1214.39L1262.07 1286.58H1253.37L1283.38 1214.39H1292.15ZM1341.17 1230.33L1339.89 1237.37H1321.33L1319.28 1249.08H1333.49L1332.27 1255.99H1318L1314.67 1275H1305.65L1313.59 1230.33H1341.17ZM1379.33 1239.54L1373.06 1275H1364.1L1364.87 1270.52C1363.5 1272.06 1361.82 1273.27 1359.81 1274.17C1357.81 1275.02 1355.69 1275.45 1353.48 1275.45C1349.81 1275.45 1346.91 1274.47 1344.77 1272.5C1342.64 1270.5 1341.57 1267.66 1341.57 1263.99C1341.57 1262.63 1341.68 1261.41 1341.89 1260.34L1345.54 1239.54H1354.5L1351.04 1259.06C1350.92 1259.83 1350.85 1260.58 1350.85 1261.3C1350.85 1263.39 1351.43 1265.02 1352.58 1266.17C1353.73 1267.28 1355.35 1267.83 1357.44 1267.83C1359.88 1267.83 1361.95 1267.09 1363.65 1265.59C1365.36 1264.06 1366.45 1261.88 1366.92 1259.06L1370.37 1239.54H1379.33ZM1432.33 1239.03C1436.09 1239.03 1439.05 1240.03 1441.23 1242.04C1443.4 1244.05 1444.49 1246.88 1444.49 1250.55C1444.49 1251.92 1444.39 1253.13 1444.17 1254.2L1440.46 1275H1431.56L1435.02 1255.42C1435.15 1254.65 1435.21 1253.9 1435.21 1253.18C1435.21 1251.13 1434.64 1249.57 1433.48 1248.5C1432.38 1247.39 1430.78 1246.84 1428.68 1246.84C1426.21 1246.84 1424.12 1247.59 1422.41 1249.08C1420.71 1250.53 1419.64 1252.64 1419.21 1255.42V1255.35L1415.69 1275H1406.8L1410.25 1255.42C1410.38 1254.65 1410.44 1253.92 1410.44 1253.24C1410.44 1251.15 1409.87 1249.57 1408.72 1248.5C1407.56 1247.39 1405.94 1246.84 1403.85 1246.84C1401.51 1246.84 1399.48 1247.54 1397.77 1248.95C1396.11 1250.32 1395.02 1252.28 1394.51 1254.84L1390.92 1275H1381.9L1388.17 1239.54H1397.2L1396.43 1243.77C1397.84 1242.32 1399.52 1241.17 1401.48 1240.31C1403.45 1239.46 1405.52 1239.03 1407.69 1239.03C1410.47 1239.03 1412.83 1239.63 1414.8 1240.82C1416.76 1241.98 1418.15 1243.64 1418.96 1245.82C1420.45 1243.77 1422.39 1242.13 1424.78 1240.89C1427.21 1239.65 1429.73 1239.03 1432.33 1239.03ZM1449.86 1257.14C1450.5 1253.56 1451.76 1250.38 1453.64 1247.61C1455.56 1244.83 1457.88 1242.7 1460.61 1241.21C1463.34 1239.71 1466.22 1238.97 1469.25 1238.97C1471.9 1238.97 1474.12 1239.5 1475.91 1240.57C1477.74 1241.63 1479.09 1242.98 1479.94 1244.6L1480.84 1239.54H1489.86L1483.59 1275H1474.56L1475.52 1269.82C1474.12 1271.48 1472.28 1272.87 1470.02 1273.98C1467.8 1275.04 1465.37 1275.58 1462.72 1275.58C1460.12 1275.58 1457.82 1275 1455.81 1273.85C1453.81 1272.65 1452.25 1270.99 1451.14 1268.86C1450.03 1266.68 1449.48 1264.16 1449.48 1261.3C1449.48 1259.98 1449.6 1258.59 1449.86 1257.14ZM1477.7 1257.27C1477.87 1256.16 1477.96 1255.35 1477.96 1254.84C1477.96 1252.32 1477.21 1250.36 1475.72 1248.95C1474.26 1247.54 1472.43 1246.84 1470.21 1246.84C1468.55 1246.84 1466.93 1247.25 1465.35 1248.06C1463.81 1248.87 1462.47 1250.06 1461.32 1251.64C1460.16 1253.18 1459.4 1255.01 1459.01 1257.14C1458.88 1257.95 1458.82 1258.72 1458.82 1259.45C1458.82 1262.01 1459.54 1264.03 1461 1265.53C1462.45 1266.98 1464.28 1267.7 1466.5 1267.7C1468.16 1267.7 1469.78 1267.3 1471.36 1266.49C1472.94 1265.63 1474.29 1264.42 1475.4 1262.84C1476.55 1261.26 1477.32 1259.41 1477.7 1257.27ZM1518.32 1239.03C1521.99 1239.03 1524.87 1240.03 1526.96 1242.04C1529.1 1244 1530.16 1246.82 1530.16 1250.49C1530.16 1251.85 1530.06 1253.09 1529.84 1254.2L1526.13 1275H1517.23L1520.69 1255.42C1520.82 1254.65 1520.88 1253.9 1520.88 1253.18C1520.88 1251.04 1520.31 1249.42 1519.15 1248.31C1518.04 1247.2 1516.44 1246.65 1514.35 1246.65C1511.96 1246.65 1509.92 1247.37 1508.21 1248.82C1506.55 1250.23 1505.44 1252.28 1504.88 1254.97L1501.36 1275H1492.34L1498.61 1239.54H1507.63L1506.87 1243.9C1508.32 1242.4 1510.04 1241.23 1512.05 1240.38C1514.06 1239.48 1516.15 1239.03 1518.32 1239.03ZM1547.07 1264.06C1547.02 1264.31 1547 1264.65 1547 1265.08C1547 1265.93 1547.24 1266.55 1547.71 1266.94C1548.22 1267.28 1549.05 1267.45 1550.2 1267.45H1554.43L1553.08 1275H1547.39C1540.99 1275 1537.79 1272.33 1537.79 1267C1537.79 1265.98 1537.87 1264.97 1538.04 1263.99L1541.05 1246.9H1536.83L1538.11 1239.54H1542.39L1543.93 1230.78H1552.95L1551.42 1239.54H1559.29L1558.01 1246.9H1550.07L1547.07 1264.06ZM1581.35 1238.97C1585.87 1238.97 1589.46 1240.23 1592.1 1242.74C1594.75 1245.22 1596.07 1248.57 1596.07 1252.79C1596.07 1254.16 1595.96 1255.37 1595.75 1256.44C1595.5 1257.72 1595.22 1258.83 1594.92 1259.77H1569C1568.96 1260.07 1568.94 1260.49 1568.94 1261.05C1568.94 1263.27 1569.58 1265.02 1570.86 1266.3C1572.18 1267.53 1573.91 1268.15 1576.04 1268.15C1577.83 1268.15 1579.37 1267.77 1580.65 1267C1581.97 1266.19 1583.04 1265.14 1583.85 1263.86H1593.51C1591.93 1267.28 1589.48 1270.09 1586.15 1272.31C1582.87 1274.49 1579.13 1275.58 1574.95 1275.58C1570.43 1275.58 1566.8 1274.3 1564.07 1271.74C1561.34 1269.18 1559.98 1265.7 1559.98 1261.3C1559.98 1260.02 1560.1 1258.68 1560.36 1257.27C1561 1253.6 1562.3 1250.38 1564.26 1247.61C1566.27 1244.83 1568.74 1242.7 1571.69 1241.21C1574.63 1239.71 1577.85 1238.97 1581.35 1238.97ZM1586.86 1254.33C1586.94 1253.65 1586.98 1253.15 1586.98 1252.86C1586.98 1250.81 1586.32 1249.21 1585 1248.06C1583.68 1246.9 1581.95 1246.33 1579.82 1246.33C1577.55 1246.33 1575.53 1247.05 1573.74 1248.5C1571.94 1249.91 1570.68 1251.85 1569.96 1254.33H1586.86ZM1612.85 1275.58C1610.25 1275.58 1607.88 1275.15 1605.75 1274.3C1603.66 1273.4 1601.99 1272.18 1600.76 1270.65C1599.56 1269.07 1598.96 1267.28 1598.96 1265.27C1598.96 1264.97 1599.01 1264.48 1599.09 1263.8H1607.8C1607.67 1265.29 1608.12 1266.51 1609.14 1267.45C1610.16 1268.34 1611.61 1268.79 1613.49 1268.79C1615.2 1268.79 1616.61 1268.49 1617.72 1267.9C1618.87 1267.26 1619.44 1266.34 1619.44 1265.14C1619.44 1264.08 1618.91 1263.22 1617.84 1262.58C1616.82 1261.94 1615.18 1261.22 1612.92 1260.41C1610.65 1259.6 1608.78 1258.81 1607.28 1258.04C1605.79 1257.27 1604.51 1256.21 1603.44 1254.84C1602.38 1253.47 1601.84 1251.75 1601.84 1249.66C1601.84 1247.57 1602.44 1245.71 1603.64 1244.09C1604.87 1242.47 1606.58 1241.21 1608.76 1240.31C1610.93 1239.42 1613.43 1238.97 1616.24 1238.97C1618.93 1238.97 1621.3 1239.42 1623.35 1240.31C1625.4 1241.21 1626.97 1242.47 1628.08 1244.09C1629.24 1245.67 1629.81 1247.48 1629.81 1249.53C1629.81 1250.04 1629.79 1250.42 1629.75 1250.68H1621.43C1621.56 1249.19 1621.13 1247.99 1620.15 1247.1C1619.17 1246.2 1617.74 1245.75 1615.86 1245.75C1614.32 1245.75 1613.06 1246.09 1612.08 1246.78C1611.1 1247.42 1610.61 1248.29 1610.61 1249.4C1610.61 1250.51 1611.17 1251.43 1612.28 1252.15C1613.38 1252.83 1615.09 1253.6 1617.4 1254.46C1619.7 1255.35 1621.53 1256.18 1622.9 1256.95C1624.31 1257.68 1625.52 1258.7 1626.55 1260.02C1627.57 1261.3 1628.08 1262.93 1628.08 1264.89C1628.08 1267.06 1627.42 1268.96 1626.1 1270.58C1624.78 1272.21 1622.96 1273.44 1620.66 1274.3C1618.36 1275.15 1615.75 1275.58 1612.85 1275.58Z" fill="#141414"/>
<path d="M988.173 419.448C983.693 419.448 980.002 418.445 977.101 416.44C974.242 414.392 972.813 411.533 972.813 407.864C972.813 407.48 972.856 406.904 972.941 406.136H982.093C981.922 407.928 982.392 409.4 983.501 410.552C984.653 411.704 986.317 412.28 988.493 412.28C990.669 412.28 992.376 411.832 993.613 410.936C994.893 409.997 995.533 408.675 995.533 406.968C995.533 405.389 994.872 404.131 993.549 403.192C992.269 402.253 990.242 401.208 987.469 400.056C984.909 398.989 982.818 398.008 981.197 397.112C979.618 396.216 978.253 394.979 977.101 393.4C975.992 391.779 975.437 389.752 975.437 387.32C975.437 384.547 976.141 382.136 977.549 380.088C979 378.04 980.962 376.461 983.437 375.352C985.954 374.243 988.813 373.688 992.013 373.688C995.17 373.688 997.901 374.221 1000.21 375.288C1002.55 376.312 1004.3 377.784 1005.45 379.704C1006.65 381.624 1007.16 383.864 1006.99 386.424H997.453L997.517 385.72C997.517 384.312 996.984 383.16 995.917 382.264C994.893 381.368 993.442 380.92 991.565 380.92C989.56 380.92 987.938 381.389 986.701 382.328C985.464 383.267 984.845 384.547 984.845 386.168C984.845 387.235 985.186 388.173 985.869 388.984C986.594 389.752 987.469 390.435 988.493 391.032C989.517 391.587 990.989 392.312 992.909 393.208C995.426 394.317 997.496 395.363 999.117 396.344C1000.74 397.325 1002.13 398.627 1003.28 400.248C1004.43 401.869 1005.01 403.853 1005.01 406.2C1005.01 408.76 1004.3 411.043 1002.89 413.048C1001.53 415.053 999.565 416.632 997.005 417.784C994.488 418.893 991.544 419.448 988.173 419.448ZM1011.17 401.144C1011.81 397.56 1013.07 394.381 1014.95 391.608C1016.87 388.835 1019.19 386.701 1021.92 385.208C1024.65 383.715 1027.53 382.968 1030.56 382.968C1033.21 382.968 1035.43 383.501 1037.22 384.568C1039.05 385.635 1040.4 386.979 1041.25 388.6L1042.15 383.544H1051.17L1044.9 419H1035.88L1036.84 413.816C1035.43 415.48 1033.59 416.867 1031.33 417.976C1029.11 419.043 1026.68 419.576 1024.04 419.576C1021.43 419.576 1019.13 419 1017.12 417.848C1015.12 416.653 1013.56 414.989 1012.45 412.856C1011.34 410.68 1010.79 408.163 1010.79 405.304C1010.79 403.981 1010.92 402.595 1011.17 401.144ZM1039.01 401.272C1039.18 400.163 1039.27 399.352 1039.27 398.84C1039.27 396.323 1038.52 394.36 1037.03 392.952C1035.58 391.544 1033.74 390.84 1031.52 390.84C1029.86 390.84 1028.24 391.245 1026.66 392.056C1025.12 392.867 1023.78 394.061 1022.63 395.64C1021.48 397.176 1020.71 399.011 1020.32 401.144C1020.2 401.955 1020.13 402.723 1020.13 403.448C1020.13 406.008 1020.86 408.035 1022.31 409.528C1023.76 410.979 1025.59 411.704 1027.81 411.704C1029.48 411.704 1031.1 411.299 1032.68 410.488C1034.25 409.635 1035.6 408.419 1036.71 406.84C1037.86 405.261 1038.63 403.405 1039.01 401.272ZM1071.06 371.64L1062.67 419H1053.65L1062.03 371.64H1071.06ZM1072.36 401.144C1073 397.56 1074.26 394.381 1076.14 391.608C1078.06 388.835 1080.38 386.701 1083.11 385.208C1085.84 383.715 1088.72 382.968 1091.75 382.968C1094.4 382.968 1096.62 383.501 1098.41 384.568C1100.24 385.635 1101.59 386.979 1102.44 388.6L1103.34 383.544H1112.36L1106.09 419H1097.06L1098.02 413.816C1096.62 415.48 1094.78 416.867 1092.52 417.976C1090.3 419.043 1087.87 419.576 1085.22 419.576C1082.62 419.576 1080.32 419 1078.31 417.848C1076.31 416.653 1074.75 414.989 1073.64 412.856C1072.53 410.68 1071.98 408.163 1071.98 405.304C1071.98 403.981 1072.1 402.595 1072.36 401.144ZM1100.2 401.272C1100.37 400.163 1100.46 399.352 1100.46 398.84C1100.46 396.323 1099.71 394.36 1098.22 392.952C1096.76 391.544 1094.93 390.84 1092.71 390.84C1091.05 390.84 1089.43 391.245 1087.85 392.056C1086.31 392.867 1084.97 394.061 1083.82 395.64C1082.66 397.176 1081.9 399.011 1081.51 401.144C1081.38 401.955 1081.32 402.723 1081.32 403.448C1081.32 406.008 1082.04 408.035 1083.5 409.528C1084.95 410.979 1086.78 411.704 1089 411.704C1090.66 411.704 1092.28 411.299 1093.86 410.488C1095.44 409.635 1096.79 408.419 1097.9 406.84C1099.05 405.261 1099.82 403.405 1100.2 401.272ZM1084.26 380.024C1085.16 377.208 1086.42 375.117 1088.04 373.752C1089.7 372.344 1091.6 371.64 1093.74 371.64C1094.59 371.64 1095.34 371.789 1095.98 372.088C1096.62 372.344 1097.3 372.728 1098.02 373.24C1098.62 373.667 1099.13 373.987 1099.56 374.2C1100.03 374.371 1100.52 374.456 1101.03 374.456C1102.65 374.456 1103.76 373.539 1104.36 371.704H1109.16C1108.22 374.52 1106.94 376.632 1105.32 378.04C1103.7 379.405 1101.82 380.088 1099.69 380.088C1098.79 380.088 1098.04 379.96 1097.45 379.704C1096.85 379.405 1096.15 379 1095.34 378.488C1094.74 378.061 1094.2 377.741 1093.74 377.528C1093.31 377.315 1092.84 377.208 1092.33 377.208C1090.79 377.208 1089.7 378.147 1089.06 380.024H1084.26ZM1130.71 419.576C1127.68 419.576 1124.99 418.957 1122.65 417.72C1120.34 416.483 1118.55 414.733 1117.27 412.472C1115.99 410.211 1115.35 407.608 1115.35 404.664C1115.35 400.653 1116.29 397.005 1118.17 393.72C1120.09 390.392 1122.69 387.768 1125.97 385.848C1129.3 383.928 1132.99 382.968 1137.05 382.968C1140.08 382.968 1142.76 383.608 1145.11 384.888C1147.5 386.125 1149.33 387.875 1150.61 390.136C1151.94 392.397 1152.6 395 1152.6 397.944C1152.6 401.997 1151.64 405.667 1149.72 408.952C1147.8 412.237 1145.15 414.84 1141.78 416.76C1138.45 418.637 1134.76 419.576 1130.71 419.576ZM1131.93 411.896C1134.06 411.896 1136 411.277 1137.75 410.04C1139.5 408.803 1140.86 407.16 1141.85 405.112C1142.83 403.064 1143.32 400.909 1143.32 398.648C1143.32 396.088 1142.59 394.125 1141.14 392.76C1139.73 391.352 1137.94 390.648 1135.77 390.648C1133.59 390.648 1131.65 391.267 1129.94 392.504C1128.28 393.741 1126.98 395.405 1126.04 397.496C1125.1 399.544 1124.63 401.72 1124.63 404.024C1124.63 406.541 1125.29 408.483 1126.61 409.848C1127.98 411.213 1129.75 411.896 1131.93 411.896ZM1177.26 381.88L1178.79 373.56H1194.15L1186.09 419H1176.87L1183.4 381.88H1177.26Z" fill="#141414"/>
<path d="M715.385 208.152C714.959 210.541 713.999 212.781 712.505 214.872C711.012 216.963 708.943 218.648 706.297 219.928C703.695 221.208 700.559 221.848 696.889 221.848H689.401L686.393 239H677.369L685.305 194.328H701.753C706.319 194.328 709.775 195.352 712.121 197.4C714.468 199.405 715.641 202.093 715.641 205.464C715.641 206.445 715.556 207.341 715.385 208.152ZM697.785 214.808C700.217 214.808 702.137 214.211 703.545 213.016C704.953 211.821 705.849 210.2 706.233 208.152C706.319 207.768 706.361 207.213 706.361 206.488C706.361 203.117 704.271 201.432 700.089 201.432H693.049L690.681 214.808H697.785ZM717.203 221.144C717.843 217.56 719.101 214.381 720.979 211.608C722.899 208.835 725.224 206.701 727.955 205.208C730.685 203.715 733.565 202.968 736.595 202.968C739.24 202.968 741.459 203.501 743.251 204.568C745.085 205.635 746.429 206.979 747.283 208.6L748.179 203.544H757.203L750.931 239H741.907L742.867 233.816C741.459 235.48 739.624 236.867 737.363 237.976C735.144 239.043 732.712 239.576 730.067 239.576C727.464 239.576 725.16 239 723.155 237.848C721.149 236.653 719.592 234.989 718.483 232.856C717.373 230.68 716.819 228.163 716.819 225.304C716.819 223.981 716.947 222.595 717.203 221.144ZM745.043 221.272C745.213 220.163 745.299 219.352 745.299 218.84C745.299 216.323 744.552 214.36 743.059 212.952C741.608 211.544 739.773 210.84 737.555 210.84C735.891 210.84 734.269 211.245 732.691 212.056C731.155 212.867 729.811 214.061 728.659 215.64C727.507 217.176 726.739 219.011 726.355 221.144C726.227 221.955 726.163 222.723 726.163 223.448C726.163 226.008 726.888 228.035 728.339 229.528C729.789 230.979 731.624 231.704 733.843 231.704C735.507 231.704 737.128 231.299 738.707 230.488C740.285 229.635 741.629 228.419 742.739 226.84C743.891 225.261 744.659 223.405 745.043 221.272ZM777.09 191.64L768.706 239H759.682L768.066 191.64H777.09ZM778.39 221.272C779.03 217.603 780.332 214.403 782.294 211.672C784.257 208.899 786.689 206.765 789.59 205.272C792.534 203.736 795.713 202.968 799.126 202.968C803.521 202.968 806.956 204.056 809.43 206.232C811.948 208.408 813.356 211.501 813.654 215.512H803.99C803.734 213.976 803.073 212.781 802.006 211.928C800.94 211.032 799.51 210.584 797.718 210.584C795.158 210.584 792.961 211.523 791.126 213.4C789.334 215.235 788.14 217.859 787.542 221.272C787.329 222.467 787.222 223.491 787.222 224.344C787.222 226.776 787.82 228.653 789.014 229.976C790.209 231.256 791.873 231.896 794.006 231.896C797.59 231.896 800.236 230.275 801.942 227.032H811.606C809.942 230.872 807.446 233.923 804.118 236.184C800.833 238.445 797.036 239.576 792.726 239.576C788.246 239.576 784.662 238.317 781.974 235.8C779.329 233.24 778.006 229.784 778.006 225.432C778.006 224.109 778.134 222.723 778.39 221.272ZM831.866 239.576C828.837 239.576 826.149 238.957 823.802 237.72C821.498 236.483 819.706 234.733 818.426 232.472C817.146 230.211 816.506 227.608 816.506 224.664C816.506 220.653 817.445 217.005 819.322 213.72C821.242 210.392 823.845 207.768 827.13 205.848C830.458 203.928 834.149 202.968 838.202 202.968C841.232 202.968 843.92 203.608 846.266 204.888C848.656 206.125 850.49 207.875 851.77 210.136C853.093 212.397 853.754 215 853.754 217.944C853.754 221.997 852.794 225.667 850.874 228.952C848.954 232.237 846.309 234.84 842.938 236.76C839.61 238.637 835.92 239.576 831.866 239.576ZM833.082 231.896C835.216 231.896 837.157 231.277 838.906 230.04C840.656 228.803 842.021 227.16 843.002 225.112C843.984 223.064 844.474 220.909 844.474 218.648C844.474 216.088 843.749 214.125 842.298 212.76C840.89 211.352 839.098 210.648 836.922 210.648C834.746 210.648 832.805 211.267 831.098 212.504C829.434 213.741 828.133 215.405 827.194 217.496C826.256 219.544 825.786 221.72 825.786 224.024C825.786 226.541 826.448 228.483 827.77 229.848C829.136 231.213 830.906 231.896 833.082 231.896Z" fill="#141414"/>
</svg>
