<svg width="1920" height="1719" viewBox="0 0 1920 1719" fill="none" xmlns="http://www.w3.org/2000/svg">
<g filter="url(#filter0_d_2023_16)">
<path d="M25.5 834.5V1407C25.5 1430.2 44.304 1449 67.5 1449H554H657V834.5H25.5Z" fill="#FFA507"/>
<path d="M657 834.5V1449H1229.5C1252.7 1449 1271.5 1430.2 1271.5 1407V834.5H657Z" fill="#FFA507"/>
<path d="M67.5 25.5C44.304 25.5 25.5 44.304 25.5 67.5V834.5H657V642V25.5H67.5Z" fill="#FFA507"/>
<path d="M1894.5 834.5H1271.5V1407C1271.5 1430.2 1252.7 1449 1229.5 1449H657H554V1651.5C554 1674.7 572.804 1693.5 596 1693.5H1852.5C1875.7 1693.5 1894.5 1674.7 1894.5 1651.5V834.5Z" fill="#FFA507"/>
<path d="M657 834.5H1271.5V25.5H657V642V834.5Z" fill="#FFA507"/>
<path d="M1271.5 834.5H1894.5V67.5C1894.5 44.304 1875.7 25.5 1852.5 25.5H1271.5V834.5Z" fill="#FFA507"/>
<path d="M25.5 834.5V67.5C25.5 44.304 44.304 25.5 67.5 25.5H657M25.5 834.5V1407C25.5 1430.2 44.304 1449 67.5 1449H554M25.5 834.5H657M1271.5 834.5H1894.5M1271.5 834.5H657M1271.5 834.5V25.5M1271.5 834.5V1407C1271.5 1430.2 1252.7 1449 1229.5 1449H657M657 1449V834.5M657 1449H554M657 834.5V642V25.5M1894.5 834.5V1651.5C1894.5 1674.7 1875.7 1693.5 1852.5 1693.5H596C572.804 1693.5 554 1674.7 554 1651.5V1449M1894.5 834.5V67.5C1894.5 44.304 1875.7 25.5 1852.5 25.5H1271.5M1271.5 25.5H657" stroke="black" stroke-width="25"/>
<g opacity="0.13" filter="url(#filter1_d_2023_16)">
<path d="M25.5 834.5V1407C25.5 1430.2 44.304 1449 67.5 1449H554H657V834.5H25.5Z" fill="#FFA507"/>
<path d="M657 834.5V1449H1229.5C1252.7 1449 1271.5 1430.2 1271.5 1407V834.5H657Z" fill="#FFA507"/>
<path d="M67.5 25.5C44.304 25.5 25.5 44.304 25.5 67.5V834.5H657V642V25.5H67.5Z" fill="#FFA507"/>
<path d="M1894.5 834.5H1271.5V1407C1271.5 1430.2 1252.7 1449 1229.5 1449H657H554V1651.5C554 1674.7 572.804 1693.5 596 1693.5H1852.5C1875.7 1693.5 1894.5 1674.7 1894.5 1651.5V834.5Z" fill="#FFA507"/>
<path d="M657 834.5H1271.5V25.5H657V642V834.5Z" fill="#FFA507"/>
<path d="M1271.5 834.5H1894.5V67.5C1894.5 44.304 1875.7 25.5 1852.5 25.5H1271.5V834.5Z" fill="#FFA507"/>
<path d="M25.5 834.5V67.5C25.5 44.304 44.304 25.5 67.5 25.5H657M25.5 834.5V1407C25.5 1430.2 44.304 1449 67.5 1449H554M25.5 834.5H657M1271.5 834.5H1894.5M1271.5 834.5H657M1271.5 834.5V25.5M1271.5 834.5V1407C1271.5 1430.2 1252.7 1449 1229.5 1449H657M657 1449V834.5M657 1449H554M657 834.5V642V25.5M1894.5 834.5V1651.5C1894.5 1674.7 1875.7 1693.5 1852.5 1693.5H596C572.804 1693.5 554 1674.7 554 1651.5V1449M1894.5 834.5V67.5C1894.5 44.304 1875.7 25.5 1852.5 25.5H1271.5M1271.5 25.5H657" stroke="black" stroke-width="25"/>
</g>
<g filter="url(#filter2_d_2023_16)">
<path d="M102.712 787.504C97.24 787.504 92.776 786.328 89.32 783.976C85.912 781.576 84.208 778.192 84.208 773.824C84.208 773.392 84.256 772.744 84.352 771.88H97.168C97.024 773.704 97.456 775.144 98.464 776.2C99.472 777.256 101.008 777.784 103.072 777.784C104.944 777.784 106.408 777.376 107.464 776.56C108.568 775.744 109.12 774.592 109.12 773.104C109.12 771.568 108.424 770.32 107.032 769.36C105.688 768.4 103.576 767.32 100.696 766.12C97.912 764.968 95.632 763.888 93.856 762.88C92.128 761.824 90.616 760.408 89.32 758.632C88.024 756.856 87.376 754.624 87.376 751.936C87.328 748.624 88.144 745.744 89.824 743.296C91.504 740.848 93.832 738.976 96.808 737.68C99.784 736.384 103.192 735.736 107.032 735.736C110.488 735.736 113.56 736.288 116.248 737.392C118.936 738.448 121.024 740.008 122.512 742.072C124 744.088 124.744 746.488 124.744 749.272C124.744 749.992 124.72 750.52 124.672 750.856H111.568C111.616 750.664 111.64 750.376 111.64 749.992C111.64 748.648 111.16 747.568 110.2 746.752C109.288 745.888 108.016 745.456 106.384 745.456C104.656 745.456 103.24 745.888 102.136 746.752C101.08 747.568 100.552 748.696 100.552 750.136C100.552 751.576 101.224 752.8 102.568 753.808C103.912 754.768 106 755.896 108.832 757.192C111.664 758.488 113.968 759.688 115.744 760.792C117.568 761.896 119.128 763.384 120.424 765.256C121.72 767.08 122.368 769.336 122.368 772.024C122.368 775 121.576 777.664 119.992 780.016C118.408 782.368 116.128 784.216 113.152 785.56C110.176 786.856 106.696 787.504 102.712 787.504ZM128.565 766.84C129.285 762.712 130.701 759.088 132.813 755.968C134.925 752.848 137.469 750.448 140.445 748.768C143.421 747.088 146.565 746.248 149.877 746.248C152.709 746.248 155.085 746.824 157.005 747.976C158.925 749.128 160.317 750.64 161.181 752.512L162.189 746.824H174.501L167.373 787H155.061L156.141 781.312C154.605 783.184 152.661 784.696 150.309 785.848C147.957 787 145.365 787.576 142.533 787.576C139.701 787.576 137.181 786.928 134.973 785.632C132.813 784.336 131.133 782.512 129.933 780.16C128.733 777.76 128.133 774.952 128.133 771.736C128.133 770.2 128.277 768.568 128.565 766.84ZM158.661 766.912C158.805 766.048 158.877 765.256 158.877 764.536C158.877 762.184 158.181 760.336 156.789 758.992C155.445 757.648 153.717 756.976 151.605 756.976C149.157 756.976 146.925 757.864 144.909 759.64C142.893 761.368 141.621 763.768 141.093 766.84C140.949 767.704 140.877 768.496 140.877 769.216C140.877 771.568 141.549 773.44 142.893 774.832C144.285 776.176 146.013 776.848 148.077 776.848C150.525 776.848 152.757 775.96 154.773 774.184C156.789 772.408 158.085 769.984 158.661 766.912ZM198.024 733.72L188.592 787H176.28L185.712 733.72H198.024ZM198.667 766.84C199.387 762.712 200.803 759.088 202.915 755.968C205.027 752.848 207.571 750.448 210.547 748.768C213.523 747.088 216.667 746.248 219.979 746.248C222.811 746.248 225.187 746.824 227.107 747.976C229.027 749.128 230.419 750.64 231.283 752.512L232.291 746.824H244.603L237.475 787H225.163L226.243 781.312C224.707 783.184 222.763 784.696 220.411 785.848C218.059 787 215.467 787.576 212.635 787.576C209.803 787.576 207.283 786.928 205.075 785.632C202.915 784.336 201.235 782.512 200.035 780.16C198.835 777.76 198.235 774.952 198.235 771.736C198.235 770.2 198.379 768.568 198.667 766.84ZM228.763 766.912C228.907 766.048 228.979 765.256 228.979 764.536C228.979 762.184 228.283 760.336 226.891 758.992C225.547 757.648 223.819 756.976 221.707 756.976C219.259 756.976 217.027 757.864 215.011 759.64C212.995 761.368 211.723 763.768 211.195 766.84C211.051 767.704 210.979 768.496 210.979 769.216C210.979 771.568 211.651 773.44 212.995 774.832C214.387 776.176 216.115 776.848 218.179 776.848C220.627 776.848 222.859 775.96 224.875 774.184C226.891 772.408 228.187 769.984 228.763 766.912ZM211.123 743.08C213.475 735.976 217.411 732.424 222.931 732.424C223.987 732.424 224.899 732.592 225.667 732.928C226.435 733.216 227.299 733.672 228.259 734.296C228.979 734.776 229.603 735.136 230.131 735.376C230.659 735.568 231.211 735.664 231.787 735.664C233.611 735.664 234.835 734.584 235.459 732.424H241.795C239.443 739.528 235.507 743.08 229.987 743.08C228.931 743.08 228.019 742.936 227.251 742.648C226.483 742.312 225.619 741.832 224.659 741.208C223.939 740.728 223.315 740.392 222.787 740.2C222.259 739.96 221.707 739.84 221.131 739.84C219.403 739.84 218.155 740.92 217.387 743.08H211.123ZM264.742 787.576C261.286 787.576 258.214 786.88 255.526 785.488C252.838 784.096 250.75 782.128 249.262 779.584C247.822 777.04 247.102 774.088 247.102 770.728C247.102 766.168 248.182 762.016 250.342 758.272C252.502 754.528 255.478 751.6 259.27 749.488C263.062 747.328 267.286 746.248 271.942 746.248C275.398 746.248 278.47 746.968 281.158 748.408C283.894 749.8 286.006 751.768 287.494 754.312C288.982 756.856 289.726 759.808 289.726 763.168C289.726 767.776 288.622 771.952 286.414 775.696C284.254 779.392 281.254 782.296 277.414 784.408C273.622 786.52 269.398 787.576 264.742 787.576ZM266.47 776.992C268.486 776.992 270.286 776.392 271.87 775.192C273.502 773.944 274.75 772.36 275.614 770.44C276.526 768.472 276.982 766.432 276.982 764.32C276.982 761.92 276.334 760.072 275.038 758.776C273.742 757.48 272.11 756.832 270.142 756.832C268.078 756.832 266.254 757.456 264.67 758.704C263.134 759.904 261.934 761.488 261.07 763.456C260.206 765.424 259.774 767.488 259.774 769.648C259.774 772 260.398 773.824 261.646 775.12C262.894 776.368 264.502 776.992 266.47 776.992ZM313.354 747.4L315.37 735.952H335.314L326.314 787H313.498L320.482 747.4H313.354Z" fill="black"/>
</g>
<g filter="url(#filter3_d_2023_16)">
<path d="M416.265 1344.46C420.921 1344.46 424.929 1345.3 428.289 1346.98C431.697 1348.61 434.289 1350.94 436.065 1353.96C437.889 1356.94 438.801 1360.44 438.801 1364.47C438.801 1365.86 438.633 1367.62 438.297 1369.73C437.433 1374.67 435.561 1379.06 432.681 1382.9C429.849 1386.74 426.225 1389.72 421.809 1391.83C417.441 1393.94 412.617 1395 407.337 1395H388.401L397.329 1344.46H416.265ZM408.417 1384.49C413.073 1384.49 416.937 1383.19 420.009 1380.6C423.081 1378.01 425.001 1374.38 425.769 1369.73C426.009 1368.29 426.129 1367.09 426.129 1366.13C426.129 1362.58 425.049 1359.84 422.889 1357.92C420.729 1355.95 417.657 1354.97 413.673 1354.97H407.769L402.585 1384.49H408.417ZM465.77 1354.25C470.954 1354.25 475.058 1355.66 478.082 1358.5C481.154 1361.28 482.69 1365.1 482.69 1369.94C482.69 1371.53 482.57 1372.94 482.33 1374.19C482.138 1375.3 481.85 1376.47 481.466 1377.72H453.602C453.554 1378.01 453.53 1378.46 453.53 1379.09C453.53 1381.2 454.106 1382.81 455.258 1383.91C456.41 1385.02 457.946 1385.57 459.866 1385.57C462.938 1385.57 465.29 1384.27 466.922 1381.68H480.026C478.298 1385.76 475.49 1389.1 471.602 1391.69C467.714 1394.28 463.346 1395.58 458.498 1395.58C453.314 1395.58 449.162 1394.14 446.042 1391.26C442.97 1388.38 441.434 1384.46 441.434 1379.52C441.434 1378.03 441.578 1376.5 441.866 1374.91C442.586 1370.74 444.074 1367.09 446.33 1363.97C448.586 1360.85 451.394 1358.45 454.754 1356.77C458.114 1355.09 461.786 1354.25 465.77 1354.25ZM470.234 1371.46C470.33 1370.78 470.378 1370.33 470.378 1370.09C470.378 1368.17 469.778 1366.7 468.578 1365.7C467.378 1364.64 465.794 1364.11 463.826 1364.11C461.714 1364.11 459.842 1364.76 458.21 1366.06C456.626 1367.3 455.474 1369.1 454.754 1371.46H470.234ZM486.233 1374.91C486.953 1370.74 488.441 1367.09 490.697 1363.97C492.953 1360.85 495.737 1358.45 499.049 1356.77C502.409 1355.09 506.057 1354.25 509.993 1354.25C515.033 1354.25 519.017 1355.57 521.945 1358.21C524.873 1360.85 526.433 1364.57 526.625 1369.37H513.521C512.993 1366.3 511.121 1364.76 507.905 1364.76C505.649 1364.76 503.705 1365.65 502.073 1367.42C500.441 1369.15 499.337 1371.65 498.761 1374.91C498.569 1375.92 498.473 1376.98 498.473 1378.08C498.473 1380.34 499.001 1382.06 500.057 1383.26C501.113 1384.46 502.553 1385.06 504.377 1385.06C507.545 1385.06 509.921 1383.53 511.505 1380.46H524.681C522.809 1385.16 519.929 1388.86 516.041 1391.54C512.153 1394.23 507.713 1395.58 502.721 1395.58C497.537 1395.58 493.409 1394.16 490.337 1391.33C487.313 1388.45 485.801 1384.54 485.801 1379.59C485.801 1378.1 485.945 1376.54 486.233 1374.91ZM555.171 1374.98L568.491 1395H553.227L543.939 1378.22L540.987 1395H528.675L538.107 1341.72H550.419L545.235 1371.1L560.211 1354.82H575.403L555.171 1374.98Z" fill="black"/>
</g>
<g filter="url(#filter4_d_2023_16)">
<path d="M591.779 1627.07C593.325 1627.32 594.745 1627.92 596.04 1628.85C597.309 1629.78 598.338 1631.06 599.128 1632.68C599.917 1634.27 600.315 1636.16 600.321 1638.34L600.332 1642.37L609.912 1644.05L609.93 1650.55L583.241 1645.91L583.213 1635.38C583.206 1632.6 583.821 1630.49 585.058 1629.07C586.27 1627.65 587.928 1626.93 590.03 1626.93C590.664 1626.93 591.246 1626.98 591.779 1627.07ZM595.228 1637.97C595.221 1635.54 594.078 1634.11 591.797 1633.69C591.391 1633.64 591.1 1633.61 590.922 1633.61C590.112 1633.62 589.492 1633.88 589.062 1634.42C588.608 1634.92 588.382 1635.71 588.385 1636.77L588.394 1640.31L595.237 1641.47L595.228 1637.97ZM610.144 1617.14C610.149 1618.97 609.786 1620.59 609.055 1622.01C608.324 1623.43 607.289 1624.54 605.948 1625.33C604.607 1626.09 603.05 1626.47 601.277 1626.48C598.871 1626.48 596.678 1625.92 594.699 1624.79C592.72 1623.65 591.17 1622.08 590.05 1620.09C588.905 1618.09 588.329 1615.86 588.322 1613.4C588.317 1611.58 588.693 1609.96 589.449 1608.54C590.18 1607.09 591.215 1605.97 592.556 1605.18C593.896 1604.39 595.453 1604 597.227 1603.99C599.659 1603.99 601.864 1604.56 603.843 1605.72C605.797 1606.86 607.334 1608.44 608.454 1610.46C609.574 1612.46 610.138 1614.69 610.144 1617.14ZM604.556 1616.25C604.553 1615.18 604.234 1614.23 603.598 1613.4C602.937 1612.54 602.099 1611.88 601.085 1611.43C600.045 1610.95 598.967 1610.71 597.853 1610.72C596.586 1610.72 595.612 1611.07 594.93 1611.75C594.247 1612.44 593.908 1613.3 593.911 1614.34C593.913 1615.43 594.245 1616.39 594.906 1617.22C595.542 1618.03 596.379 1618.66 597.419 1619.12C598.459 1619.57 599.549 1619.8 600.689 1619.79C601.931 1619.79 602.892 1619.46 603.575 1618.8C604.231 1618.14 604.558 1617.29 604.556 1616.25ZM592.41 1593.15C591.14 1592.16 590.149 1591.04 589.436 1589.77C588.698 1588.48 588.327 1587.14 588.324 1585.75L595.205 1586.95L595.21 1588.73C595.214 1590.35 595.572 1591.63 596.284 1592.57C596.971 1593.5 598.188 1594.12 599.937 1594.42L609.784 1596.14L609.801 1602.64L588.587 1598.97L588.57 1592.48L592.41 1593.15ZM602.438 1577.59C602.565 1577.61 602.729 1577.63 602.932 1577.63C603.388 1577.63 603.717 1577.5 603.919 1577.24C604.121 1576.96 604.221 1576.52 604.219 1575.91L604.213 1573.6L609.726 1574.57L609.735 1577.87C609.746 1582.13 607.966 1584.26 604.394 1584.27C603.862 1584.27 603.19 1584.21 602.379 1584.09L593.939 1582.59L593.946 1585.17L588.548 1584.24L588.541 1581.66L583.37 1580.76L583.353 1574.26L588.523 1575.16L588.512 1570.9L593.91 1571.84L593.922 1576.09L602.438 1577.59ZM599.074 1570.37C596.895 1570 594.98 1569.25 593.33 1568.14C591.681 1567.03 590.41 1565.69 589.52 1564.13C588.629 1562.56 588.181 1560.9 588.176 1559.15C588.172 1557.66 588.473 1556.4 589.078 1555.39C589.683 1554.37 590.479 1553.63 591.466 1553.18L588.463 1552.65L588.445 1546.15L609.659 1549.86L609.677 1556.36L606.673 1555.8C607.663 1556.6 608.464 1557.63 609.075 1558.87C609.687 1560.11 609.994 1561.47 609.999 1562.97C610.003 1564.46 609.664 1565.79 608.983 1566.96C608.302 1568.1 607.342 1568.99 606.102 1569.63C604.837 1570.27 603.356 1570.59 601.659 1570.59C600.848 1570.59 599.987 1570.52 599.074 1570.37ZM599.07 1554.49C598.613 1554.41 598.195 1554.37 597.815 1554.37C596.574 1554.38 595.6 1554.75 594.892 1555.48C594.185 1556.2 593.833 1557.11 593.836 1558.22C593.839 1559.52 594.311 1560.69 595.251 1561.75C596.166 1562.82 597.435 1563.48 599.057 1563.76C599.513 1563.83 599.931 1563.87 600.311 1563.87C601.552 1563.86 602.539 1563.51 603.272 1562.8C603.979 1562.06 604.332 1561.15 604.329 1560.06C604.325 1558.77 603.853 1557.59 602.913 1556.53C601.973 1555.47 600.692 1554.79 599.07 1554.49ZM592.255 1535.67C590.986 1534.68 589.995 1533.56 589.282 1532.29C588.544 1531 588.173 1529.66 588.169 1528.27L595.05 1529.47L595.055 1531.25C595.06 1532.87 595.418 1534.15 596.13 1535.09C596.816 1536.02 598.034 1536.64 599.783 1536.94L609.629 1538.66L609.647 1545.16L588.433 1541.49L588.415 1534.99L592.255 1535.67ZM586.175 1521.56C586.178 1522.57 585.914 1523.38 585.384 1523.99C584.828 1524.58 584.132 1524.87 583.296 1524.87C582.156 1524.87 581.18 1524.43 580.366 1523.55C579.553 1522.66 579.145 1521.59 579.142 1520.32C579.139 1519.31 579.416 1518.51 579.971 1517.93C580.502 1517.34 581.198 1517.05 582.059 1517.05C583.174 1517.04 584.138 1517.48 584.951 1518.37C585.764 1519.25 586.172 1520.32 586.175 1521.56ZM588.372 1518.74L609.586 1522.41L609.603 1528.9L588.389 1525.24L588.372 1518.74ZM598.931 1517.12C596.752 1516.74 594.837 1516 593.187 1514.89C591.538 1513.78 590.267 1512.44 589.376 1510.87C588.486 1509.31 588.038 1507.65 588.033 1505.9C588.029 1504.4 588.33 1503.15 588.935 1502.13C589.54 1501.12 590.336 1500.38 591.323 1499.92L588.32 1499.4L588.302 1492.9L609.516 1496.61L609.534 1503.11L606.53 1502.54C607.52 1503.35 608.321 1504.38 608.932 1505.61C609.544 1506.85 609.851 1508.22 609.855 1509.72C609.859 1511.21 609.521 1512.54 608.84 1513.71C608.159 1514.85 607.199 1515.74 605.959 1516.38C604.694 1517.01 603.213 1517.33 601.516 1517.34C600.705 1517.34 599.844 1517.27 598.931 1517.12ZM598.927 1501.23C598.47 1501.16 598.052 1501.12 597.672 1501.12C596.431 1501.13 595.457 1501.5 594.749 1502.23C594.042 1502.94 593.69 1503.86 593.693 1504.97C593.696 1506.26 594.168 1507.44 595.108 1508.5C596.023 1509.56 597.291 1510.23 598.913 1510.51C599.37 1510.58 599.788 1510.62 600.168 1510.62C601.409 1510.61 602.396 1510.26 603.129 1509.54C603.836 1508.81 604.188 1507.89 604.186 1506.81C604.182 1505.51 603.71 1504.34 602.77 1503.28C601.83 1502.21 600.549 1501.53 598.927 1501.23Z" fill="black"/>
</g>
<g filter="url(#filter5_d_2023_16)">
<path d="M745.531 1386.07H726.667L722.059 1395H709.171L736.387 1344.46H750.643L760.003 1395H746.971L745.531 1386.07ZM744.091 1376.71L741.139 1357.99L731.491 1376.71H744.091ZM753.739 1334.3L735.019 1341.58L736.531 1333.08L755.395 1324.73L753.739 1334.3ZM783.641 1362.1C785.513 1359.7 787.649 1357.82 790.049 1356.48C792.497 1355.09 795.041 1354.39 797.681 1354.39L795.377 1367.42H791.993C788.921 1367.42 786.497 1368.1 784.721 1369.44C782.945 1370.74 781.769 1373.04 781.193 1376.35L777.881 1395H765.569L772.625 1354.82H784.937L783.641 1362.1ZM821.422 1354.25C826.606 1354.25 830.71 1355.66 833.734 1358.5C836.806 1361.28 838.342 1365.1 838.342 1369.94C838.342 1371.53 838.222 1372.94 837.982 1374.19C837.79 1375.3 837.502 1376.47 837.118 1377.72H809.254C809.206 1378.01 809.182 1378.46 809.182 1379.09C809.182 1381.2 809.758 1382.81 810.91 1383.91C812.062 1385.02 813.598 1385.57 815.518 1385.57C818.59 1385.57 820.942 1384.27 822.574 1381.68H835.678C833.95 1385.76 831.142 1389.1 827.254 1391.69C823.366 1394.28 818.998 1395.58 814.15 1395.58C808.966 1395.58 804.814 1394.14 801.694 1391.26C798.622 1388.38 797.086 1384.46 797.086 1379.52C797.086 1378.03 797.23 1376.5 797.518 1374.91C798.238 1370.74 799.726 1367.09 801.982 1363.97C804.238 1360.85 807.046 1358.45 810.406 1356.77C813.766 1355.09 817.438 1354.25 821.422 1354.25ZM825.886 1371.46C825.982 1370.78 826.03 1370.33 826.03 1370.09C826.03 1368.17 825.43 1366.7 824.23 1365.7C823.03 1364.64 821.446 1364.11 819.478 1364.11C817.366 1364.11 815.494 1364.76 813.862 1366.06C812.278 1367.3 811.126 1369.1 810.406 1371.46H825.886ZM841.885 1374.84C842.605 1370.71 844.021 1367.09 846.133 1363.97C848.245 1360.85 850.789 1358.45 853.765 1356.77C856.741 1355.09 859.885 1354.25 863.197 1354.25C866.029 1354.25 868.405 1354.82 870.325 1355.98C872.245 1357.13 873.637 1358.64 874.501 1360.51L875.509 1354.82H887.821L880.693 1395H868.381L869.461 1389.31C867.925 1391.18 865.981 1392.7 863.629 1393.85C861.277 1395 858.685 1395.58 855.853 1395.58C853.021 1395.58 850.501 1394.93 848.293 1393.63C846.133 1392.34 844.453 1390.51 843.253 1388.16C842.053 1385.76 841.453 1382.95 841.453 1379.74C841.453 1378.2 841.597 1376.57 841.885 1374.84ZM871.981 1374.91C872.125 1374.05 872.197 1373.26 872.197 1372.54C872.197 1370.18 871.501 1368.34 870.109 1366.99C868.765 1365.65 867.037 1364.98 864.925 1364.98C862.477 1364.98 860.245 1365.86 858.229 1367.64C856.213 1369.37 854.941 1371.77 854.413 1374.84C854.269 1375.7 854.197 1376.5 854.197 1377.22C854.197 1379.57 854.869 1381.44 856.213 1382.83C857.605 1384.18 859.333 1384.85 861.397 1384.85C863.845 1384.85 866.077 1383.96 868.093 1382.18C870.109 1380.41 871.405 1377.98 871.981 1374.91ZM908.713 1369.66C909.577 1364.66 911.425 1360.22 914.257 1356.34C917.137 1352.4 920.689 1349.35 924.913 1347.19C929.137 1344.98 933.697 1343.88 938.593 1343.88C944.593 1343.88 949.441 1345.46 953.137 1348.63C956.881 1351.8 958.993 1356.12 959.473 1361.59H945.937C945.313 1359.53 944.161 1357.97 942.481 1356.91C940.849 1355.81 938.833 1355.26 936.433 1355.26C932.641 1355.26 929.353 1356.58 926.569 1359.22C923.785 1361.81 922.009 1365.29 921.241 1369.66C921.001 1371 920.881 1372.18 920.881 1373.18C920.881 1376.54 921.817 1379.21 923.689 1381.18C925.561 1383.14 928.129 1384.13 931.393 1384.13C933.745 1384.13 935.929 1383.58 937.945 1382.47C940.009 1381.37 941.737 1379.78 943.129 1377.72H956.665C954.265 1383.19 950.641 1387.51 945.793 1390.68C940.945 1393.8 935.521 1395.36 929.521 1395.36C925.201 1395.36 921.433 1394.52 918.217 1392.84C915.001 1391.16 912.529 1388.78 910.801 1385.71C909.073 1382.64 908.209 1379.06 908.209 1374.98C908.209 1373.16 908.377 1371.38 908.713 1369.66ZM979.468 1395.58C976.012 1395.58 972.94 1394.88 970.252 1393.49C967.564 1392.1 965.476 1390.13 963.988 1387.58C962.548 1385.04 961.828 1382.09 961.828 1378.73C961.828 1374.17 962.908 1370.02 965.068 1366.27C967.228 1362.53 970.204 1359.6 973.996 1357.49C977.788 1355.33 982.012 1354.25 986.668 1354.25C990.124 1354.25 993.196 1354.97 995.884 1356.41C998.62 1357.8 1000.73 1359.77 1002.22 1362.31C1003.71 1364.86 1004.45 1367.81 1004.45 1371.17C1004.45 1375.78 1003.35 1379.95 1001.14 1383.7C998.98 1387.39 995.98 1390.3 992.14 1392.41C988.348 1394.52 984.124 1395.58 979.468 1395.58ZM981.196 1384.99C983.212 1384.99 985.012 1384.39 986.596 1383.19C988.228 1381.94 989.476 1380.36 990.34 1378.44C991.252 1376.47 991.708 1374.43 991.708 1372.32C991.708 1369.92 991.06 1368.07 989.764 1366.78C988.468 1365.48 986.836 1364.83 984.868 1364.83C982.804 1364.83 980.98 1365.46 979.396 1366.7C977.86 1367.9 976.66 1369.49 975.796 1371.46C974.932 1373.42 974.5 1375.49 974.5 1377.65C974.5 1380 975.124 1381.82 976.372 1383.12C977.62 1384.37 979.228 1384.99 981.196 1384.99ZM1025.31 1360.51C1026.85 1358.64 1028.79 1357.13 1031.14 1355.98C1033.5 1354.82 1036.06 1354.25 1038.85 1354.25C1043.17 1354.25 1046.65 1355.66 1049.29 1358.5C1051.98 1361.28 1053.32 1365.1 1053.32 1369.94C1053.32 1371.48 1053.18 1373.11 1052.89 1374.84C1052.17 1378.97 1050.75 1382.62 1048.64 1385.78C1046.53 1388.9 1043.98 1391.33 1041.01 1393.06C1038.03 1394.74 1034.89 1395.58 1031.58 1395.58C1028.74 1395.58 1026.37 1395.02 1024.45 1393.92C1022.53 1392.77 1021.14 1391.26 1020.27 1389.38L1019.26 1395H1006.95L1016.38 1341.72H1028.7L1025.31 1360.51ZM1040.43 1374.84C1040.58 1374.02 1040.65 1373.28 1040.65 1372.61C1040.65 1370.21 1039.95 1368.34 1038.56 1366.99C1037.22 1365.65 1035.49 1364.98 1033.38 1364.98C1030.93 1364.98 1028.7 1365.86 1026.68 1367.64C1024.66 1369.42 1023.37 1371.84 1022.79 1374.91C1022.65 1375.78 1022.58 1376.57 1022.58 1377.29C1022.58 1379.64 1023.25 1381.49 1024.59 1382.83C1025.94 1384.18 1027.66 1384.85 1029.78 1384.85C1032.22 1384.85 1034.46 1383.96 1036.47 1382.18C1038.54 1380.36 1039.86 1377.91 1040.43 1374.84ZM1080.88 1354.25C1086.06 1354.25 1090.16 1355.66 1093.19 1358.5C1096.26 1361.28 1097.8 1365.1 1097.8 1369.94C1097.8 1371.53 1097.68 1372.94 1097.44 1374.19C1097.24 1375.3 1096.96 1376.47 1096.57 1377.72H1068.71C1068.66 1378.01 1068.64 1378.46 1068.64 1379.09C1068.64 1381.2 1069.21 1382.81 1070.36 1383.91C1071.52 1385.02 1073.05 1385.57 1074.97 1385.57C1078.04 1385.57 1080.4 1384.27 1082.03 1381.68H1095.13C1093.4 1385.76 1090.6 1389.1 1086.71 1391.69C1082.82 1394.28 1078.45 1395.58 1073.6 1395.58C1068.42 1395.58 1064.27 1394.14 1061.15 1391.26C1058.08 1388.38 1056.54 1384.46 1056.54 1379.52C1056.54 1378.03 1056.68 1376.5 1056.97 1374.91C1057.69 1370.74 1059.18 1367.09 1061.44 1363.97C1063.69 1360.85 1066.5 1358.45 1069.86 1356.77C1073.22 1355.09 1076.89 1354.25 1080.88 1354.25ZM1085.34 1371.46C1085.44 1370.78 1085.48 1370.33 1085.48 1370.09C1085.48 1368.17 1084.88 1366.7 1083.68 1365.7C1082.48 1364.64 1080.9 1364.11 1078.93 1364.11C1076.82 1364.11 1074.95 1364.76 1073.32 1366.06C1071.73 1367.3 1070.58 1369.1 1069.86 1371.46H1085.34ZM1118.26 1362.1C1120.13 1359.7 1122.27 1357.82 1124.67 1356.48C1127.11 1355.09 1129.66 1354.39 1132.3 1354.39L1129.99 1367.42H1126.61C1123.54 1367.42 1121.11 1368.1 1119.34 1369.44C1117.56 1370.74 1116.39 1373.04 1115.81 1376.35L1112.5 1395H1100.19L1107.24 1354.82H1119.55L1118.26 1362.1ZM1147.69 1381.18C1147.64 1381.42 1147.62 1381.73 1147.62 1382.11C1147.62 1382.98 1147.86 1383.6 1148.34 1383.98C1148.86 1384.37 1149.7 1384.56 1150.86 1384.56H1155.25L1153.38 1395H1147.11C1139.05 1395 1135.02 1391.62 1135.02 1384.85C1135.02 1383.84 1135.14 1382.57 1135.38 1381.03L1138.26 1365.05H1133.36L1135.16 1354.82H1140.06L1141.78 1345.03H1154.1L1152.37 1354.82H1160.43L1158.63 1365.05H1150.57L1147.69 1381.18ZM1161.39 1374.84C1162.11 1370.71 1163.52 1367.09 1165.63 1363.97C1167.75 1360.85 1170.29 1358.45 1173.27 1356.77C1176.24 1355.09 1179.39 1354.25 1182.7 1354.25C1185.53 1354.25 1187.91 1354.82 1189.83 1355.98C1191.75 1357.13 1193.14 1358.64 1194 1360.51L1195.01 1354.82H1207.32L1200.19 1395H1187.88L1188.96 1389.31C1187.43 1391.18 1185.48 1392.7 1183.13 1393.85C1180.78 1395 1178.19 1395.58 1175.35 1395.58C1172.52 1395.58 1170 1394.93 1167.79 1393.63C1165.63 1392.34 1163.95 1390.51 1162.75 1388.16C1161.55 1385.76 1160.95 1382.95 1160.95 1379.74C1160.95 1378.2 1161.1 1376.57 1161.39 1374.84ZM1191.48 1374.91C1191.63 1374.05 1191.7 1373.26 1191.7 1372.54C1191.7 1370.18 1191 1368.34 1189.61 1366.99C1188.27 1365.65 1186.54 1364.98 1184.43 1364.98C1181.98 1364.98 1179.75 1365.86 1177.73 1367.64C1175.71 1369.37 1174.44 1371.77 1173.91 1374.84C1173.77 1375.7 1173.7 1376.5 1173.7 1377.22C1173.7 1379.57 1174.37 1381.44 1175.71 1382.83C1177.11 1384.18 1178.83 1384.85 1180.9 1384.85C1183.35 1384.85 1185.58 1383.96 1187.59 1382.18C1189.61 1380.41 1190.91 1377.98 1191.48 1374.91Z" fill="black"/>
</g>
<g filter="url(#filter6_d_2023_16)">
<path d="M1237.47 1624.07H1218.6L1213.99 1633H1201.1L1228.32 1582.46H1242.58L1251.94 1633H1238.91L1237.47 1624.07ZM1236.03 1614.71L1233.07 1595.99L1223.43 1614.71H1236.03ZM1245.67 1572.3L1226.95 1579.58L1228.47 1571.08L1247.33 1562.73L1245.67 1572.3ZM1275.57 1600.1C1277.45 1597.7 1279.58 1595.82 1281.98 1594.48C1284.43 1593.09 1286.97 1592.39 1289.61 1592.39L1287.31 1605.42H1283.93C1280.85 1605.42 1278.43 1606.1 1276.65 1607.44C1274.88 1608.74 1273.7 1611.04 1273.13 1614.35L1269.81 1633H1257.5L1264.56 1592.82H1276.87L1275.57 1600.1ZM1313.36 1592.25C1318.54 1592.25 1322.64 1593.66 1325.67 1596.5C1328.74 1599.28 1330.28 1603.1 1330.28 1607.94C1330.28 1609.53 1330.16 1610.94 1329.92 1612.19C1329.72 1613.3 1329.44 1614.47 1329.05 1615.72H1301.19C1301.14 1616.01 1301.12 1616.46 1301.12 1617.09C1301.12 1619.2 1301.69 1620.81 1302.84 1621.91C1304 1623.02 1305.53 1623.57 1307.45 1623.57C1310.52 1623.57 1312.88 1622.27 1314.51 1619.68H1327.61C1325.88 1623.76 1323.08 1627.1 1319.19 1629.69C1315.3 1632.28 1310.93 1633.58 1306.08 1633.58C1300.9 1633.58 1296.75 1632.14 1293.63 1629.26C1290.56 1626.38 1289.02 1622.46 1289.02 1617.52C1289.02 1616.03 1289.16 1614.5 1289.45 1612.91C1290.17 1608.74 1291.66 1605.09 1293.92 1601.97C1296.17 1598.85 1298.98 1596.45 1302.34 1594.77C1305.7 1593.09 1309.37 1592.25 1313.36 1592.25ZM1317.82 1609.46C1317.92 1608.78 1317.96 1608.33 1317.96 1608.09C1317.96 1606.17 1317.36 1604.7 1316.16 1603.7C1314.96 1602.64 1313.38 1602.11 1311.41 1602.11C1309.3 1602.11 1307.43 1602.76 1305.8 1604.06C1304.21 1605.3 1303.06 1607.1 1302.34 1609.46H1317.82ZM1333.82 1612.84C1334.54 1608.71 1335.96 1605.09 1338.07 1601.97C1340.18 1598.85 1342.72 1596.45 1345.7 1594.77C1348.68 1593.09 1351.82 1592.25 1355.13 1592.25C1357.96 1592.25 1360.34 1592.82 1362.26 1593.98C1364.18 1595.13 1365.57 1596.64 1366.44 1598.51L1367.44 1592.82H1379.76L1372.63 1633H1360.32L1361.4 1627.31C1359.86 1629.18 1357.92 1630.7 1355.56 1631.85C1353.21 1633 1350.62 1633.58 1347.79 1633.58C1344.96 1633.58 1342.44 1632.93 1340.23 1631.63C1338.07 1630.34 1336.39 1628.51 1335.19 1626.16C1333.99 1623.76 1333.39 1620.95 1333.39 1617.74C1333.39 1616.2 1333.53 1614.57 1333.82 1612.84ZM1363.92 1612.91C1364.06 1612.05 1364.13 1611.26 1364.13 1610.54C1364.13 1608.18 1363.44 1606.34 1362.04 1604.99C1360.7 1603.65 1358.97 1602.98 1356.86 1602.98C1354.41 1602.98 1352.18 1603.86 1350.16 1605.64C1348.15 1607.37 1346.88 1609.77 1346.35 1612.84C1346.2 1613.7 1346.13 1614.5 1346.13 1615.22C1346.13 1617.57 1346.8 1619.44 1348.15 1620.83C1349.54 1622.18 1351.27 1622.85 1353.33 1622.85C1355.78 1622.85 1358.01 1621.96 1360.03 1620.18C1362.04 1618.41 1363.34 1615.98 1363.92 1612.91ZM1399.35 1612.84C1400.07 1608.71 1401.49 1605.09 1403.6 1601.97C1405.71 1598.85 1408.25 1596.45 1411.23 1594.77C1414.21 1593.09 1417.35 1592.25 1420.66 1592.25C1423.3 1592.25 1425.61 1592.8 1427.57 1593.9C1429.59 1595.01 1431.05 1596.5 1431.97 1598.37L1435.28 1579.72H1447.59L1438.16 1633H1425.85L1426.85 1627.24C1425.32 1629.16 1423.4 1630.7 1421.09 1631.85C1418.79 1633 1416.22 1633.58 1413.39 1633.58C1410.56 1633.58 1408.04 1632.93 1405.83 1631.63C1403.67 1630.34 1401.97 1628.49 1400.72 1626.09C1399.52 1623.69 1398.92 1620.88 1398.92 1617.66C1398.92 1616.18 1399.06 1614.57 1399.35 1612.84ZM1429.45 1612.91C1429.59 1612.05 1429.66 1611.26 1429.66 1610.54C1429.66 1608.18 1428.97 1606.34 1427.57 1604.99C1426.23 1603.65 1424.5 1602.98 1422.39 1602.98C1419.94 1602.98 1417.71 1603.86 1415.69 1605.64C1413.68 1607.37 1412.41 1609.77 1411.88 1612.84C1411.73 1613.7 1411.66 1614.5 1411.66 1615.22C1411.66 1617.57 1412.33 1619.44 1413.68 1620.83C1415.07 1622.18 1416.8 1622.85 1418.86 1622.85C1421.31 1622.85 1423.54 1621.96 1425.56 1620.18C1427.57 1618.41 1428.87 1615.98 1429.45 1612.91ZM1472.12 1592.25C1477.31 1592.25 1481.41 1593.66 1484.43 1596.5C1487.51 1599.28 1489.04 1603.1 1489.04 1607.94C1489.04 1609.53 1488.92 1610.94 1488.68 1612.19C1488.49 1613.3 1488.2 1614.47 1487.82 1615.72H1459.95C1459.91 1616.01 1459.88 1616.46 1459.88 1617.09C1459.88 1619.2 1460.46 1620.81 1461.61 1621.91C1462.76 1623.02 1464.3 1623.57 1466.22 1623.57C1469.29 1623.57 1471.64 1622.27 1473.27 1619.68H1486.38C1484.65 1623.76 1481.84 1627.1 1477.95 1629.69C1474.07 1632.28 1469.7 1633.58 1464.85 1633.58C1459.67 1633.58 1455.51 1632.14 1452.39 1629.26C1449.32 1626.38 1447.79 1622.46 1447.79 1617.52C1447.79 1616.03 1447.93 1614.5 1448.22 1612.91C1448.94 1608.74 1450.43 1605.09 1452.68 1601.97C1454.94 1598.85 1457.75 1596.45 1461.11 1594.77C1464.47 1593.09 1468.14 1592.25 1472.12 1592.25ZM1476.59 1609.46C1476.68 1608.78 1476.73 1608.33 1476.73 1608.09C1476.73 1606.17 1476.13 1604.7 1474.93 1603.7C1473.73 1602.64 1472.15 1602.11 1470.18 1602.11C1468.07 1602.11 1466.19 1602.76 1464.56 1604.06C1462.98 1605.3 1461.83 1607.1 1461.11 1609.46H1476.59ZM1508.14 1633.58C1504.97 1633.58 1502.11 1633.07 1499.57 1632.06C1497.07 1631.06 1495.1 1629.66 1493.66 1627.89C1492.22 1626.06 1491.5 1623.98 1491.5 1621.62C1491.5 1621.29 1491.55 1620.69 1491.65 1619.82H1503.53C1503.43 1621.31 1503.86 1622.51 1504.82 1623.42C1505.83 1624.29 1507.25 1624.72 1509.07 1624.72C1510.61 1624.72 1511.88 1624.43 1512.89 1623.86C1513.9 1623.28 1514.4 1622.46 1514.4 1621.41C1514.4 1620.4 1513.85 1619.61 1512.74 1619.03C1511.69 1618.41 1509.91 1617.66 1507.42 1616.8C1504.82 1615.94 1502.64 1615.1 1500.86 1614.28C1499.14 1613.42 1497.65 1612.19 1496.4 1610.61C1495.15 1609.02 1494.53 1607.03 1494.53 1604.63C1494.53 1602.28 1495.22 1600.17 1496.62 1598.3C1498.01 1596.38 1499.95 1594.89 1502.45 1593.83C1504.99 1592.78 1507.92 1592.25 1511.23 1592.25C1514.54 1592.25 1517.42 1592.8 1519.87 1593.9C1522.32 1594.96 1524.22 1596.45 1525.56 1598.37C1526.9 1600.29 1527.58 1602.45 1527.58 1604.85L1527.5 1605.93H1516.34C1516.44 1604.49 1516.01 1603.34 1515.05 1602.47C1514.09 1601.61 1512.72 1601.18 1510.94 1601.18C1509.55 1601.18 1508.4 1601.46 1507.49 1602.04C1506.62 1602.62 1506.19 1603.41 1506.19 1604.42C1506.19 1605.47 1506.77 1606.36 1507.92 1607.08C1509.12 1607.75 1510.97 1608.52 1513.46 1609.38C1516.06 1610.25 1518.19 1611.11 1519.87 1611.98C1521.6 1612.79 1523.06 1613.97 1524.26 1615.5C1525.51 1616.99 1526.14 1618.86 1526.14 1621.12C1526.14 1623.71 1525.34 1625.94 1523.76 1627.82C1522.22 1629.69 1520.09 1631.13 1517.35 1632.14C1514.66 1633.1 1511.59 1633.58 1508.14 1633.58ZM1532.73 1612.91C1533.45 1608.74 1534.94 1605.09 1537.2 1601.97C1539.45 1598.85 1542.24 1596.45 1545.55 1594.77C1548.91 1593.09 1552.56 1592.25 1556.49 1592.25C1561.53 1592.25 1565.52 1593.57 1568.45 1596.21C1571.37 1598.85 1572.93 1602.57 1573.13 1607.37H1560.02C1559.49 1604.3 1557.62 1602.76 1554.41 1602.76C1552.15 1602.76 1550.21 1603.65 1548.57 1605.42C1546.94 1607.15 1545.84 1609.65 1545.26 1612.91C1545.07 1613.92 1544.97 1614.98 1544.97 1616.08C1544.97 1618.34 1545.5 1620.06 1546.56 1621.26C1547.61 1622.46 1549.05 1623.06 1550.88 1623.06C1554.05 1623.06 1556.42 1621.53 1558.01 1618.46H1571.18C1569.31 1623.16 1566.43 1626.86 1562.54 1629.54C1558.65 1632.23 1554.21 1633.58 1549.22 1633.58C1544.04 1633.58 1539.91 1632.16 1536.84 1629.33C1533.81 1626.45 1532.3 1622.54 1532.3 1617.59C1532.3 1616.1 1532.45 1614.54 1532.73 1612.91ZM1593.53 1633.58C1590.08 1633.58 1587.01 1632.88 1584.32 1631.49C1581.63 1630.1 1579.54 1628.13 1578.05 1625.58C1576.61 1623.04 1575.89 1620.09 1575.89 1616.73C1575.89 1612.17 1576.97 1608.02 1579.13 1604.27C1581.29 1600.53 1584.27 1597.6 1588.06 1595.49C1591.85 1593.33 1596.08 1592.25 1600.73 1592.25C1604.19 1592.25 1607.26 1592.97 1609.95 1594.41C1612.69 1595.8 1614.8 1597.77 1616.29 1600.31C1617.77 1602.86 1618.52 1605.81 1618.52 1609.17C1618.52 1613.78 1617.41 1617.95 1615.21 1621.7C1613.05 1625.39 1610.05 1628.3 1606.21 1630.41C1602.41 1632.52 1598.19 1633.58 1593.53 1633.58ZM1595.26 1622.99C1597.28 1622.99 1599.08 1622.39 1600.66 1621.19C1602.29 1619.94 1603.54 1618.36 1604.41 1616.44C1605.32 1614.47 1605.77 1612.43 1605.77 1610.32C1605.77 1607.92 1605.13 1606.07 1603.83 1604.78C1602.53 1603.48 1600.9 1602.83 1598.93 1602.83C1596.87 1602.83 1595.05 1603.46 1593.46 1604.7C1591.93 1605.9 1590.73 1607.49 1589.86 1609.46C1589 1611.42 1588.57 1613.49 1588.57 1615.65C1588.57 1618 1589.19 1619.82 1590.44 1621.12C1591.69 1622.37 1593.29 1622.99 1595.26 1622.99ZM1639.38 1598.51C1640.91 1596.64 1642.86 1595.13 1645.21 1593.98C1647.56 1592.82 1650.13 1592.25 1652.91 1592.25C1657.23 1592.25 1660.71 1593.66 1663.35 1596.5C1666.04 1599.28 1667.39 1603.1 1667.39 1607.94C1667.39 1609.48 1667.24 1611.11 1666.95 1612.84C1666.23 1616.97 1664.82 1620.62 1662.71 1623.78C1660.59 1626.9 1658.05 1629.33 1655.07 1631.06C1652.1 1632.74 1648.95 1633.58 1645.64 1633.58C1642.81 1633.58 1640.43 1633.02 1638.51 1631.92C1636.59 1630.77 1635.2 1629.26 1634.34 1627.38L1633.33 1633H1621.02L1630.45 1579.72H1642.76L1639.38 1598.51ZM1654.5 1612.84C1654.64 1612.02 1654.71 1611.28 1654.71 1610.61C1654.71 1608.21 1654.02 1606.34 1652.63 1604.99C1651.28 1603.65 1649.55 1602.98 1647.44 1602.98C1644.99 1602.98 1642.76 1603.86 1640.75 1605.64C1638.73 1607.42 1637.43 1609.84 1636.86 1612.91C1636.71 1613.78 1636.64 1614.57 1636.64 1615.29C1636.64 1617.64 1637.31 1619.49 1638.66 1620.83C1640 1622.18 1641.73 1622.85 1643.84 1622.85C1646.29 1622.85 1648.52 1621.96 1650.54 1620.18C1652.6 1618.36 1653.92 1615.91 1654.5 1612.84ZM1694.94 1592.25C1700.13 1592.25 1704.23 1593.66 1707.25 1596.5C1710.33 1599.28 1711.86 1603.1 1711.86 1607.94C1711.86 1609.53 1711.74 1610.94 1711.5 1612.19C1711.31 1613.3 1711.02 1614.47 1710.64 1615.72H1682.77C1682.73 1616.01 1682.7 1616.46 1682.7 1617.09C1682.7 1619.2 1683.28 1620.81 1684.43 1621.91C1685.58 1623.02 1687.12 1623.57 1689.04 1623.57C1692.11 1623.57 1694.46 1622.27 1696.09 1619.68H1709.2C1707.47 1623.76 1704.66 1627.1 1700.77 1629.69C1696.89 1632.28 1692.52 1633.58 1687.67 1633.58C1682.49 1633.58 1678.33 1632.14 1675.21 1629.26C1672.14 1626.38 1670.61 1622.46 1670.61 1617.52C1670.61 1616.03 1670.75 1614.5 1671.04 1612.91C1671.76 1608.74 1673.25 1605.09 1675.5 1601.97C1677.76 1598.85 1680.57 1596.45 1683.93 1594.77C1687.29 1593.09 1690.96 1592.25 1694.94 1592.25ZM1699.41 1609.46C1699.5 1608.78 1699.55 1608.33 1699.55 1608.09C1699.55 1606.17 1698.95 1604.7 1697.75 1603.7C1696.55 1602.64 1694.97 1602.11 1693 1602.11C1690.89 1602.11 1689.01 1602.76 1687.38 1604.06C1685.8 1605.3 1684.65 1607.1 1683.93 1609.46H1699.41ZM1732.32 1600.1C1734.2 1597.7 1736.33 1595.82 1738.73 1594.48C1741.18 1593.09 1743.72 1592.39 1746.36 1592.39L1744.06 1605.42H1740.68C1737.6 1605.42 1735.18 1606.1 1733.4 1607.44C1731.63 1608.74 1730.45 1611.04 1729.88 1614.35L1726.56 1633H1714.25L1721.31 1592.82H1733.62L1732.32 1600.1ZM1761.75 1619.18C1761.71 1619.42 1761.68 1619.73 1761.68 1620.11C1761.68 1620.98 1761.92 1621.6 1762.4 1621.98C1762.93 1622.37 1763.77 1622.56 1764.92 1622.56H1769.31L1767.44 1633H1761.18C1753.11 1633 1749.08 1629.62 1749.08 1622.85C1749.08 1621.84 1749.2 1620.57 1749.44 1619.03L1752.32 1603.05H1747.43L1749.23 1592.82H1754.12L1755.85 1583.03H1768.16L1766.43 1592.82H1774.5L1772.7 1603.05H1764.63L1761.75 1619.18ZM1775.45 1612.84C1776.17 1608.71 1777.59 1605.09 1779.7 1601.97C1781.81 1598.85 1784.36 1596.45 1787.33 1594.77C1790.31 1593.09 1793.45 1592.25 1796.76 1592.25C1799.6 1592.25 1801.97 1592.82 1803.89 1593.98C1805.81 1595.13 1807.2 1596.64 1808.07 1598.51L1809.08 1592.82H1821.39L1814.26 1633H1801.95L1803.03 1627.31C1801.49 1629.18 1799.55 1630.7 1797.2 1631.85C1794.84 1633 1792.25 1633.58 1789.42 1633.58C1786.59 1633.58 1784.07 1632.93 1781.86 1631.63C1779.7 1630.34 1778.02 1628.51 1776.82 1626.16C1775.62 1623.76 1775.02 1620.95 1775.02 1617.74C1775.02 1616.2 1775.16 1614.57 1775.45 1612.84ZM1805.55 1612.91C1805.69 1612.05 1805.76 1611.26 1805.76 1610.54C1805.76 1608.18 1805.07 1606.34 1803.68 1604.99C1802.33 1603.65 1800.6 1602.98 1798.49 1602.98C1796.04 1602.98 1793.81 1603.86 1791.8 1605.64C1789.78 1607.37 1788.51 1609.77 1787.98 1612.84C1787.84 1613.7 1787.76 1614.5 1787.76 1615.22C1787.76 1617.57 1788.44 1619.44 1789.78 1620.83C1791.17 1622.18 1792.9 1622.85 1794.96 1622.85C1797.41 1622.85 1799.64 1621.96 1801.66 1620.18C1803.68 1618.41 1804.97 1615.98 1805.55 1612.91Z" fill="black"/>
</g>
<g filter="url(#filter7_d_2023_16)">
<path d="M726.681 787.504C721.209 787.504 716.745 786.328 713.289 783.976C709.881 781.576 708.177 778.192 708.177 773.824C708.177 773.392 708.225 772.744 708.321 771.88H721.137C720.993 773.704 721.425 775.144 722.433 776.2C723.441 777.256 724.977 777.784 727.041 777.784C728.913 777.784 730.377 777.376 731.433 776.56C732.537 775.744 733.089 774.592 733.089 773.104C733.089 771.568 732.393 770.32 731.001 769.36C729.657 768.4 727.545 767.32 724.665 766.12C721.881 764.968 719.601 763.888 717.825 762.88C716.097 761.824 714.585 760.408 713.289 758.632C711.993 756.856 711.345 754.624 711.345 751.936C711.297 748.624 712.113 745.744 713.793 743.296C715.473 740.848 717.801 738.976 720.777 737.68C723.753 736.384 727.161 735.736 731.001 735.736C734.457 735.736 737.529 736.288 740.217 737.392C742.905 738.448 744.993 740.008 746.481 742.072C747.969 744.088 748.713 746.488 748.713 749.272C748.713 749.992 748.689 750.52 748.641 750.856H735.537C735.585 750.664 735.609 750.376 735.609 749.992C735.609 748.648 735.129 747.568 734.169 746.752C733.257 745.888 731.985 745.456 730.353 745.456C728.625 745.456 727.209 745.888 726.105 746.752C725.049 747.568 724.521 748.696 724.521 750.136C724.521 751.576 725.193 752.8 726.537 753.808C727.881 754.768 729.969 755.896 732.801 757.192C735.633 758.488 737.937 759.688 739.713 760.792C741.537 761.896 743.097 763.384 744.393 765.256C745.689 767.08 746.337 769.336 746.337 772.024C746.337 775 745.545 777.664 743.961 780.016C742.377 782.368 740.097 784.216 737.121 785.56C734.145 786.856 730.665 787.504 726.681 787.504ZM752.534 766.84C753.254 762.712 754.67 759.088 756.782 755.968C758.894 752.848 761.438 750.448 764.414 748.768C767.39 747.088 770.534 746.248 773.846 746.248C776.678 746.248 779.054 746.824 780.974 747.976C782.894 749.128 784.286 750.64 785.15 752.512L786.158 746.824H798.47L791.342 787H779.03L780.11 781.312C778.574 783.184 776.63 784.696 774.278 785.848C771.926 787 769.334 787.576 766.502 787.576C763.67 787.576 761.15 786.928 758.942 785.632C756.782 784.336 755.102 782.512 753.902 780.16C752.702 777.76 752.102 774.952 752.102 771.736C752.102 770.2 752.246 768.568 752.534 766.84ZM782.63 766.912C782.774 766.048 782.846 765.256 782.846 764.536C782.846 762.184 782.15 760.336 780.758 758.992C779.414 757.648 777.686 756.976 775.574 756.976C773.126 756.976 770.894 757.864 768.878 759.64C766.862 761.368 765.59 763.768 765.062 766.84C764.918 767.704 764.846 768.496 764.846 769.216C764.846 771.568 765.518 773.44 766.862 774.832C768.254 776.176 769.982 776.848 772.046 776.848C774.494 776.848 776.726 775.96 778.742 774.184C780.758 772.408 782.054 769.984 782.63 766.912ZM821.993 733.72L812.561 787H800.249L809.681 733.72H821.993ZM822.635 766.84C823.355 762.712 824.771 759.088 826.883 755.968C828.995 752.848 831.539 750.448 834.515 748.768C837.491 747.088 840.635 746.248 843.947 746.248C846.779 746.248 849.155 746.824 851.075 747.976C852.995 749.128 854.387 750.64 855.251 752.512L856.259 746.824H868.571L861.443 787H849.131L850.211 781.312C848.675 783.184 846.731 784.696 844.379 785.848C842.027 787 839.435 787.576 836.603 787.576C833.771 787.576 831.251 786.928 829.043 785.632C826.883 784.336 825.203 782.512 824.003 780.16C822.803 777.76 822.203 774.952 822.203 771.736C822.203 770.2 822.347 768.568 822.635 766.84ZM852.731 766.912C852.875 766.048 852.947 765.256 852.947 764.536C852.947 762.184 852.251 760.336 850.859 758.992C849.515 757.648 847.787 756.976 845.675 756.976C843.227 756.976 840.995 757.864 838.979 759.64C836.963 761.368 835.691 763.768 835.163 766.84C835.019 767.704 834.947 768.496 834.947 769.216C834.947 771.568 835.619 773.44 836.963 774.832C838.355 776.176 840.083 776.848 842.147 776.848C844.595 776.848 846.827 775.96 848.843 774.184C850.859 772.408 852.155 769.984 852.731 766.912ZM835.091 743.08C837.443 735.976 841.379 732.424 846.899 732.424C847.955 732.424 848.867 732.592 849.635 732.928C850.403 733.216 851.267 733.672 852.227 734.296C852.947 734.776 853.571 735.136 854.099 735.376C854.627 735.568 855.179 735.664 855.755 735.664C857.579 735.664 858.803 734.584 859.427 732.424H865.763C863.411 739.528 859.475 743.08 853.955 743.08C852.899 743.08 851.987 742.936 851.219 742.648C850.451 742.312 849.587 741.832 848.627 741.208C847.907 740.728 847.283 740.392 846.755 740.2C846.227 739.96 845.675 739.84 845.099 739.84C843.371 739.84 842.123 740.92 841.355 743.08H835.091ZM888.711 787.576C885.255 787.576 882.183 786.88 879.495 785.488C876.807 784.096 874.719 782.128 873.231 779.584C871.791 777.04 871.071 774.088 871.071 770.728C871.071 766.168 872.151 762.016 874.311 758.272C876.471 754.528 879.447 751.6 883.239 749.488C887.031 747.328 891.255 746.248 895.911 746.248C899.367 746.248 902.439 746.968 905.127 748.408C907.863 749.8 909.975 751.768 911.463 754.312C912.951 756.856 913.695 759.808 913.695 763.168C913.695 767.776 912.591 771.952 910.383 775.696C908.223 779.392 905.223 782.296 901.383 784.408C897.591 786.52 893.367 787.576 888.711 787.576ZM890.439 776.992C892.455 776.992 894.255 776.392 895.839 775.192C897.471 773.944 898.719 772.36 899.583 770.44C900.495 768.472 900.951 766.432 900.951 764.32C900.951 761.92 900.303 760.072 899.007 758.776C897.711 757.48 896.079 756.832 894.111 756.832C892.047 756.832 890.223 757.456 888.639 758.704C887.103 759.904 885.903 761.488 885.039 763.456C884.175 765.424 883.743 767.488 883.743 769.648C883.743 772 884.367 773.824 885.615 775.12C886.863 776.368 888.471 776.992 890.439 776.992ZM935.738 775.12C940.97 771.376 945.146 768.28 948.266 765.832C951.386 763.384 954.074 760.888 956.33 758.344C958.634 755.752 959.978 753.28 960.362 750.928C960.506 750.256 960.578 749.632 960.578 749.056C960.578 747.664 960.194 746.608 959.426 745.888C958.706 745.168 957.602 744.808 956.114 744.808C952.418 744.808 950.066 747.424 949.058 752.656H937.106C938.354 746.608 940.946 742.072 944.882 739.048C948.866 735.976 953.426 734.44 958.562 734.44C963.554 734.44 967.25 735.568 969.65 737.824C972.098 740.08 973.322 743.056 973.322 746.752C973.322 747.904 973.226 748.96 973.034 749.92C972.17 754.816 969.626 759.376 965.402 763.6C961.226 767.824 956.042 772.048 949.85 776.272H969.29L967.49 786.28H931.346L932.93 777.136L935.738 775.12Z" fill="black"/>
</g>
<g filter="url(#filter8_d_2023_16)">
<path d="M1352.77 778.072H1333.91L1329.3 787H1316.41L1343.63 736.456H1357.88L1367.24 787H1354.21L1352.77 778.072ZM1351.33 768.712L1348.38 749.992L1338.73 768.712H1351.33ZM1404.42 746.392C1408.45 746.392 1411.62 747.52 1413.92 749.776C1416.22 752.032 1417.38 755.176 1417.38 759.208C1417.38 760.552 1417.23 761.992 1416.94 763.528L1412.77 787H1400.53L1404.42 765.184C1404.56 764.368 1404.63 763.648 1404.63 763.024C1404.63 761.008 1404.06 759.448 1402.9 758.344C1401.8 757.24 1400.24 756.688 1398.22 756.688C1395.82 756.688 1393.81 757.432 1392.18 758.92C1390.54 760.408 1389.49 762.496 1389.01 765.184V764.824L1385.12 787H1372.81L1379.86 746.824H1392.18L1391.24 752.224C1392.82 750.448 1394.74 749.032 1397 747.976C1399.3 746.92 1401.78 746.392 1404.42 746.392ZM1446.38 746.248C1451.56 746.248 1455.67 747.664 1458.69 750.496C1461.76 753.28 1463.3 757.096 1463.3 761.944C1463.3 763.528 1463.18 764.944 1462.94 766.192C1462.75 767.296 1462.46 768.472 1462.08 769.72H1434.21C1434.16 770.008 1434.14 770.464 1434.14 771.088C1434.14 773.2 1434.72 774.808 1435.87 775.912C1437.02 777.016 1438.56 777.568 1440.48 777.568C1443.55 777.568 1445.9 776.272 1447.53 773.68H1460.64C1458.91 777.76 1456.1 781.096 1452.21 783.688C1448.32 786.28 1443.96 787.576 1439.11 787.576C1433.92 787.576 1429.77 786.136 1426.65 783.256C1423.58 780.376 1422.04 776.464 1422.04 771.52C1422.04 770.032 1422.19 768.496 1422.48 766.912C1423.2 762.736 1424.68 759.088 1426.94 755.968C1429.2 752.848 1432 750.448 1435.36 748.768C1438.72 747.088 1442.4 746.248 1446.38 746.248ZM1450.84 763.456C1450.94 762.784 1450.99 762.328 1450.99 762.088C1450.99 760.168 1450.39 758.704 1449.19 757.696C1447.99 756.64 1446.4 756.112 1444.44 756.112C1442.32 756.112 1440.45 756.76 1438.82 758.056C1437.24 759.304 1436.08 761.104 1435.36 763.456H1450.84ZM1492.98 767.128L1503.27 787H1489.45L1483.69 775.912L1475.27 787H1461.95L1478.79 766.48L1468.64 746.824H1482.47L1488.23 757.984L1496.65 746.824H1509.97L1492.98 767.128ZM1526.38 787.576C1522.92 787.576 1519.85 786.88 1517.16 785.488C1514.47 784.096 1512.39 782.128 1510.9 779.584C1509.46 777.04 1508.74 774.088 1508.74 770.728C1508.74 766.168 1509.82 762.016 1511.98 758.272C1514.14 754.528 1517.11 751.6 1520.91 749.488C1524.7 747.328 1528.92 746.248 1533.58 746.248C1537.03 746.248 1540.11 746.968 1542.79 748.408C1545.53 749.8 1547.64 751.768 1549.13 754.312C1550.62 756.856 1551.36 759.808 1551.36 763.168C1551.36 767.776 1550.26 771.952 1548.05 775.696C1545.89 779.392 1542.89 782.296 1539.05 784.408C1535.26 786.52 1531.03 787.576 1526.38 787.576ZM1528.11 776.992C1530.12 776.992 1531.92 776.392 1533.51 775.192C1535.14 773.944 1536.39 772.36 1537.25 770.44C1538.16 768.472 1538.62 766.432 1538.62 764.32C1538.62 761.92 1537.97 760.072 1536.67 758.776C1535.38 757.48 1533.75 756.832 1531.78 756.832C1529.71 756.832 1527.89 757.456 1526.31 758.704C1524.77 759.904 1523.57 761.488 1522.71 763.456C1521.84 765.424 1521.41 767.488 1521.41 769.648C1521.41 772 1522.03 773.824 1523.28 775.12C1524.53 776.368 1526.14 776.992 1528.11 776.992Z" fill="black"/>
</g>
<g filter="url(#filter9_d_2023_16)">
<rect x="718.5" y="72" width="368" height="334" rx="37" fill="black"/>
</g>
<g filter="url(#filter10_d_2023_16)">
<rect x="1329.5" y="72" width="395" height="182" rx="37" fill="black"/>
</g>
<path d="M1482.65 142.582L1481.29 150.547H1470.26L1464.36 184H1454.27L1460.17 150.547H1449.19L1450.61 142.582H1482.65ZM1500.93 150.606C1505.17 150.606 1508.54 151.766 1511.02 154.087C1513.53 156.368 1514.79 159.495 1514.79 163.468C1514.79 164.766 1514.69 165.926 1514.5 166.949C1514.34 167.854 1514.1 168.817 1513.79 169.84H1490.96C1490.92 170.076 1490.9 170.45 1490.9 170.961C1490.9 172.692 1491.37 174.009 1492.31 174.914C1493.26 175.819 1494.52 176.271 1496.09 176.271C1498.61 176.271 1500.53 175.209 1501.87 173.085H1512.61C1511.19 176.428 1508.89 179.162 1505.71 181.286C1502.52 183.41 1498.94 184.472 1494.97 184.472C1490.72 184.472 1487.32 183.292 1484.76 180.932C1482.24 178.572 1480.98 175.366 1480.98 171.315C1480.98 170.096 1481.1 168.837 1481.34 167.539C1481.93 164.117 1483.15 161.128 1485 158.571C1486.85 156.014 1489.15 154.048 1491.9 152.671C1494.65 151.294 1497.66 150.606 1500.93 150.606ZM1504.58 164.707C1504.66 164.156 1504.7 163.783 1504.7 163.586C1504.7 162.013 1504.21 160.813 1503.23 159.987C1502.24 159.122 1500.95 158.689 1499.33 158.689C1497.6 158.689 1496.07 159.22 1494.73 160.282C1493.43 161.305 1492.49 162.78 1491.9 164.707H1504.58ZM1534.57 140.34L1526.84 184H1516.75L1524.48 140.34H1534.57ZM1535.1 167.48C1535.69 164.097 1536.85 161.128 1538.58 158.571C1540.31 156.014 1542.39 154.048 1544.83 152.671C1547.27 151.294 1549.85 150.606 1552.56 150.606C1554.88 150.606 1556.83 151.078 1558.4 152.022C1559.97 152.966 1561.11 154.205 1561.82 155.739L1562.65 151.078H1572.74L1566.9 184H1556.81L1557.69 179.339C1556.43 180.873 1554.84 182.112 1552.91 183.056C1550.99 184 1548.86 184.472 1546.54 184.472C1544.22 184.472 1542.16 183.941 1540.35 182.879C1538.58 181.817 1537.2 180.322 1536.22 178.395C1535.23 176.428 1534.74 174.127 1534.74 171.492C1534.74 170.233 1534.86 168.896 1535.1 167.48ZM1559.76 167.539C1559.88 166.831 1559.93 166.182 1559.93 165.592C1559.93 163.665 1559.36 162.15 1558.22 161.049C1557.12 159.948 1555.71 159.397 1553.98 159.397C1551.97 159.397 1550.14 160.125 1548.49 161.58C1546.84 162.996 1545.79 164.963 1545.36 167.48C1545.24 168.188 1545.18 168.837 1545.18 169.427C1545.18 171.354 1545.74 172.888 1546.84 174.029C1547.98 175.13 1549.39 175.681 1551.08 175.681C1553.09 175.681 1554.92 174.953 1556.57 173.498C1558.22 172.043 1559.29 170.056 1559.76 167.539ZM1545.3 148.01C1547.23 142.189 1550.46 139.278 1554.98 139.278C1555.84 139.278 1556.59 139.416 1557.22 139.691C1557.85 139.927 1558.56 140.301 1559.34 140.812C1559.93 141.205 1560.45 141.5 1560.88 141.697C1561.31 141.854 1561.76 141.933 1562.24 141.933C1563.73 141.933 1564.73 141.048 1565.24 139.278H1570.44C1568.51 145.099 1565.28 148.01 1560.76 148.01C1559.9 148.01 1559.15 147.892 1558.52 147.656C1557.89 147.381 1557.18 146.987 1556.39 146.476C1555.8 146.083 1555.29 145.807 1554.86 145.65C1554.43 145.453 1553.98 145.355 1553.5 145.355C1552.09 145.355 1551.06 146.24 1550.44 148.01H1545.3ZM1589.24 184.472C1586.41 184.472 1583.89 183.902 1581.69 182.761C1579.49 181.62 1577.77 180.008 1576.56 177.923C1575.38 175.838 1574.79 173.419 1574.79 170.666C1574.79 166.929 1575.67 163.527 1577.44 160.459C1579.21 157.391 1581.65 154.992 1584.76 153.261C1587.86 151.491 1591.33 150.606 1595.14 150.606C1597.97 150.606 1600.49 151.196 1602.69 152.376C1604.93 153.517 1606.67 155.129 1607.88 157.214C1609.1 159.299 1609.71 161.718 1609.71 164.471C1609.71 168.247 1608.81 171.669 1607 174.737C1605.23 177.766 1602.77 180.145 1599.62 181.876C1596.52 183.607 1593.06 184.472 1589.24 184.472ZM1590.66 175.799C1592.31 175.799 1593.78 175.307 1595.08 174.324C1596.42 173.301 1597.44 172.003 1598.15 170.43C1598.9 168.817 1599.27 167.146 1599.27 165.415C1599.27 163.448 1598.74 161.934 1597.68 160.872C1596.62 159.81 1595.28 159.279 1593.67 159.279C1591.97 159.279 1590.48 159.79 1589.18 160.813C1587.92 161.796 1586.94 163.094 1586.23 164.707C1585.52 166.32 1585.17 168.011 1585.17 169.781C1585.17 171.708 1585.68 173.203 1586.7 174.265C1587.73 175.288 1589.04 175.799 1590.66 175.799Z" fill="#F9F1DF"/>
<path d="M846.126 224.728C845.646 227.656 844.518 230.344 842.742 232.792C840.966 235.192 838.542 237.136 835.47 238.624C832.446 240.112 828.87 240.856 824.742 240.856H817.11L813.87 259H801.558L810.486 208.456H830.43C835.71 208.456 839.694 209.632 842.382 211.984C845.07 214.288 846.414 217.432 846.414 221.416C846.414 222.616 846.318 223.72 846.126 224.728ZM825.462 231.208C830.07 231.208 832.782 229.048 833.598 224.728C833.694 223.96 833.742 223.408 833.742 223.072C833.742 221.536 833.238 220.36 832.23 219.544C831.27 218.68 829.782 218.248 827.766 218.248H821.07L818.838 231.208H825.462ZM847.639 238.84C848.359 234.712 849.775 231.088 851.887 227.968C853.999 224.848 856.543 222.448 859.519 220.768C862.495 219.088 865.639 218.248 868.951 218.248C871.783 218.248 874.159 218.824 876.079 219.976C877.999 221.128 879.391 222.64 880.255 224.512L881.263 218.824H893.575L886.447 259H874.135L875.215 253.312C873.679 255.184 871.735 256.696 869.383 257.848C867.031 259 864.439 259.576 861.607 259.576C858.775 259.576 856.255 258.928 854.047 257.632C851.887 256.336 850.207 254.512 849.007 252.16C847.807 249.76 847.207 246.952 847.207 243.736C847.207 242.2 847.351 240.568 847.639 238.84ZM877.735 238.912C877.879 238.048 877.951 237.256 877.951 236.536C877.951 234.184 877.255 232.336 875.863 230.992C874.519 229.648 872.791 228.976 870.679 228.976C868.231 228.976 865.999 229.864 863.983 231.64C861.967 233.368 860.695 235.768 860.167 238.84C860.023 239.704 859.951 240.496 859.951 241.216C859.951 243.568 860.623 245.44 861.967 246.832C863.359 248.176 865.087 248.848 867.151 248.848C869.599 248.848 871.831 247.96 873.847 246.184C875.863 244.408 877.159 241.984 877.735 238.912ZM917.098 205.72L907.666 259H895.354L904.786 205.72H917.098ZM917.741 238.912C918.461 234.736 919.949 231.088 922.205 227.968C924.461 224.848 927.245 222.448 930.557 220.768C933.917 219.088 937.565 218.248 941.501 218.248C946.541 218.248 950.525 219.568 953.453 222.208C956.381 224.848 957.941 228.568 958.133 233.368H945.029C944.501 230.296 942.629 228.76 939.413 228.76C937.157 228.76 935.213 229.648 933.581 231.424C931.949 233.152 930.845 235.648 930.269 238.912C930.077 239.92 929.981 240.976 929.981 242.08C929.981 244.336 930.509 246.064 931.565 247.264C932.621 248.464 934.061 249.064 935.885 249.064C939.053 249.064 941.429 247.528 943.013 244.456H956.189C954.317 249.16 951.437 252.856 947.549 255.544C943.661 258.232 939.221 259.576 934.229 259.576C929.045 259.576 924.917 258.16 921.845 255.328C918.821 252.448 917.309 248.536 917.309 243.592C917.309 242.104 917.453 240.544 917.741 238.912ZM978.543 259.576C975.087 259.576 972.015 258.88 969.327 257.488C966.639 256.096 964.551 254.128 963.063 251.584C961.623 249.04 960.903 246.088 960.903 242.728C960.903 238.168 961.983 234.016 964.143 230.272C966.303 226.528 969.279 223.6 973.071 221.488C976.863 219.328 981.087 218.248 985.743 218.248C989.199 218.248 992.271 218.968 994.959 220.408C997.695 221.8 999.807 223.768 1001.29 226.312C1002.78 228.856 1003.53 231.808 1003.53 235.168C1003.53 239.776 1002.42 243.952 1000.21 247.696C998.055 251.392 995.055 254.296 991.215 256.408C987.423 258.52 983.199 259.576 978.543 259.576ZM980.271 248.992C982.287 248.992 984.087 248.392 985.671 247.192C987.303 245.944 988.551 244.36 989.415 242.44C990.327 240.472 990.783 238.432 990.783 236.32C990.783 233.92 990.135 232.072 988.839 230.776C987.543 229.48 985.911 228.832 983.943 228.832C981.879 228.832 980.055 229.456 978.471 230.704C976.935 231.904 975.735 233.488 974.871 235.456C974.007 237.424 973.575 239.488 973.575 241.648C973.575 244 974.199 245.824 975.447 247.12C976.695 248.368 978.303 248.992 980.271 248.992Z" fill="#F9F1DF"/>
</g>
<defs>
<filter id="filter0_d_2023_16" x="0" y="0" width="1920" height="1719" filterUnits="userSpaceOnUse" color-interpolation-filters="sRGB">
<feFlood flood-opacity="0" result="BackgroundImageFix"/>
<feColorMatrix in="SourceAlpha" type="matrix" values="0 0 0 0 0 0 0 0 0 0 0 0 0 0 0 0 0 0 127 0" result="hardAlpha"/>
<feOffset/>
<feGaussianBlur stdDeviation="6.5"/>
<feComposite in2="hardAlpha" operator="out"/>
<feColorMatrix type="matrix" values="0 0 0 0 0 0 0 0 0 0 0 0 0 0 0 0 0 0 0.25 0"/>
<feBlend mode="normal" in2="BackgroundImageFix" result="effect1_dropShadow_2023_16"/>
<feBlend mode="normal" in="SourceGraphic" in2="effect1_dropShadow_2023_16" result="shape"/>
</filter>
<filter id="filter1_d_2023_16" x="0" y="0" width="1920" height="1719" filterUnits="userSpaceOnUse" color-interpolation-filters="sRGB">
<feFlood flood-opacity="0" result="BackgroundImageFix"/>
<feColorMatrix in="SourceAlpha" type="matrix" values="0 0 0 0 0 0 0 0 0 0 0 0 0 0 0 0 0 0 127 0" result="hardAlpha"/>
<feOffset/>
<feGaussianBlur stdDeviation="6.5"/>
<feComposite in2="hardAlpha" operator="out"/>
<feColorMatrix type="matrix" values="0 0 0 0 0 0 0 0 0 0 0 0 0 0 0 0 0 0 0.25 0"/>
<feBlend mode="normal" in2="BackgroundImageFix" result="effect1_dropShadow_2023_16"/>
<feBlend mode="normal" in="SourceGraphic" in2="effect1_dropShadow_2023_16" result="shape"/>
</filter>
<filter id="filter2_d_2023_16" x="69.209" y="717.424" width="281.105" height="85.1523" filterUnits="userSpaceOnUse" color-interpolation-filters="sRGB">
<feFlood flood-opacity="0" result="BackgroundImageFix"/>
<feColorMatrix in="SourceAlpha" type="matrix" values="0 0 0 0 0 0 0 0 0 0 0 0 0 0 0 0 0 0 127 0" result="hardAlpha"/>
<feOffset/>
<feGaussianBlur stdDeviation="7.5"/>
<feComposite in2="hardAlpha" operator="out"/>
<feColorMatrix type="matrix" values="0 0 0 0 0 0 0 0 0 0 0 0 0 0 0 0 0 0 0.25 0"/>
<feBlend mode="normal" in2="BackgroundImageFix" result="effect1_dropShadow_2023_16"/>
<feBlend mode="normal" in="SourceGraphic" in2="effect1_dropShadow_2023_16" result="shape"/>
</filter>
<filter id="filter3_d_2023_16" x="373.402" y="1326.72" width="217" height="83.856" filterUnits="userSpaceOnUse" color-interpolation-filters="sRGB">
<feFlood flood-opacity="0" result="BackgroundImageFix"/>
<feColorMatrix in="SourceAlpha" type="matrix" values="0 0 0 0 0 0 0 0 0 0 0 0 0 0 0 0 0 0 127 0" result="hardAlpha"/>
<feOffset/>
<feGaussianBlur stdDeviation="7.5"/>
<feComposite in2="hardAlpha" operator="out"/>
<feColorMatrix type="matrix" values="0 0 0 0 0 0 0 0 0 0 0 0 0 0 0 0 0 0 0.25 0"/>
<feBlend mode="normal" in2="BackgroundImageFix" result="effect1_dropShadow_2023_16"/>
<feBlend mode="normal" in="SourceGraphic" in2="effect1_dropShadow_2023_16" result="shape"/>
</filter>
<filter id="filter4_d_2023_16" x="564.068" y="1477.84" width="61.166" height="187.786" filterUnits="userSpaceOnUse" color-interpolation-filters="sRGB">
<feFlood flood-opacity="0" result="BackgroundImageFix"/>
<feColorMatrix in="SourceAlpha" type="matrix" values="0 0 0 0 0 0 0 0 0 0 0 0 0 0 0 0 0 0 127 0" result="hardAlpha"/>
<feOffset/>
<feGaussianBlur stdDeviation="7.5"/>
<feComposite in2="hardAlpha" operator="out"/>
<feColorMatrix type="matrix" values="0 0 0 0 0 0 0 0 0 0 0 0 0 0 0 0 0 0 0.25 0"/>
<feBlend mode="normal" in2="BackgroundImageFix" result="effect1_dropShadow_2023_16"/>
<feBlend mode="normal" in="SourceGraphic" in2="effect1_dropShadow_2023_16" result="shape"/>
</filter>
<filter id="filter5_d_2023_16" x="694.172" y="1309.73" width="528.15" height="100.848" filterUnits="userSpaceOnUse" color-interpolation-filters="sRGB">
<feFlood flood-opacity="0" result="BackgroundImageFix"/>
<feColorMatrix in="SourceAlpha" type="matrix" values="0 0 0 0 0 0 0 0 0 0 0 0 0 0 0 0 0 0 127 0" result="hardAlpha"/>
<feOffset/>
<feGaussianBlur stdDeviation="7.5"/>
<feComposite in2="hardAlpha" operator="out"/>
<feColorMatrix type="matrix" values="0 0 0 0 0 0 0 0 0 0 0 0 0 0 0 0 0 0 0.25 0"/>
<feBlend mode="normal" in2="BackgroundImageFix" result="effect1_dropShadow_2023_16"/>
<feBlend mode="normal" in="SourceGraphic" in2="effect1_dropShadow_2023_16" result="shape"/>
</filter>
<filter id="filter6_d_2023_16" x="1186.11" y="1547.73" width="650.283" height="100.848" filterUnits="userSpaceOnUse" color-interpolation-filters="sRGB">
<feFlood flood-opacity="0" result="BackgroundImageFix"/>
<feColorMatrix in="SourceAlpha" type="matrix" values="0 0 0 0 0 0 0 0 0 0 0 0 0 0 0 0 0 0 127 0" result="hardAlpha"/>
<feOffset/>
<feGaussianBlur stdDeviation="7.5"/>
<feComposite in2="hardAlpha" operator="out"/>
<feColorMatrix type="matrix" values="0 0 0 0 0 0 0 0 0 0 0 0 0 0 0 0 0 0 0.25 0"/>
<feBlend mode="normal" in2="BackgroundImageFix" result="effect1_dropShadow_2023_16"/>
<feBlend mode="normal" in="SourceGraphic" in2="effect1_dropShadow_2023_16" result="shape"/>
</filter>
<filter id="filter7_d_2023_16" x="693.178" y="717.424" width="295.145" height="85.1523" filterUnits="userSpaceOnUse" color-interpolation-filters="sRGB">
<feFlood flood-opacity="0" result="BackgroundImageFix"/>
<feColorMatrix in="SourceAlpha" type="matrix" values="0 0 0 0 0 0 0 0 0 0 0 0 0 0 0 0 0 0 127 0" result="hardAlpha"/>
<feOffset/>
<feGaussianBlur stdDeviation="7.5"/>
<feComposite in2="hardAlpha" operator="out"/>
<feColorMatrix type="matrix" values="0 0 0 0 0 0 0 0 0 0 0 0 0 0 0 0 0 0 0.25 0"/>
<feBlend mode="normal" in2="BackgroundImageFix" result="effect1_dropShadow_2023_16"/>
<feBlend mode="normal" in="SourceGraphic" in2="effect1_dropShadow_2023_16" result="shape"/>
</filter>
<filter id="filter8_d_2023_16" x="1301.41" y="721.456" width="264.953" height="81.1201" filterUnits="userSpaceOnUse" color-interpolation-filters="sRGB">
<feFlood flood-opacity="0" result="BackgroundImageFix"/>
<feColorMatrix in="SourceAlpha" type="matrix" values="0 0 0 0 0 0 0 0 0 0 0 0 0 0 0 0 0 0 127 0" result="hardAlpha"/>
<feOffset/>
<feGaussianBlur stdDeviation="7.5"/>
<feComposite in2="hardAlpha" operator="out"/>
<feColorMatrix type="matrix" values="0 0 0 0 0 0 0 0 0 0 0 0 0 0 0 0 0 0 0.25 0"/>
<feBlend mode="normal" in2="BackgroundImageFix" result="effect1_dropShadow_2023_16"/>
<feBlend mode="normal" in="SourceGraphic" in2="effect1_dropShadow_2023_16" result="shape"/>
</filter>
<filter id="filter9_d_2023_16" x="697.5" y="51" width="410" height="376" filterUnits="userSpaceOnUse" color-interpolation-filters="sRGB">
<feFlood flood-opacity="0" result="BackgroundImageFix"/>
<feColorMatrix in="SourceAlpha" type="matrix" values="0 0 0 0 0 0 0 0 0 0 0 0 0 0 0 0 0 0 127 0" result="hardAlpha"/>
<feMorphology radius="8" operator="dilate" in="SourceAlpha" result="effect1_dropShadow_2023_16"/>
<feOffset/>
<feGaussianBlur stdDeviation="6.5"/>
<feComposite in2="hardAlpha" operator="out"/>
<feColorMatrix type="matrix" values="0 0 0 0 0 0 0 0 0 0 0 0 0 0 0 0 0 0 0.25 0"/>
<feBlend mode="normal" in2="BackgroundImageFix" result="effect1_dropShadow_2023_16"/>
<feBlend mode="normal" in="SourceGraphic" in2="effect1_dropShadow_2023_16" result="shape"/>
</filter>
<filter id="filter10_d_2023_16" x="1308.5" y="51" width="437" height="224" filterUnits="userSpaceOnUse" color-interpolation-filters="sRGB">
<feFlood flood-opacity="0" result="BackgroundImageFix"/>
<feColorMatrix in="SourceAlpha" type="matrix" values="0 0 0 0 0 0 0 0 0 0 0 0 0 0 0 0 0 0 127 0" result="hardAlpha"/>
<feMorphology radius="8" operator="dilate" in="SourceAlpha" result="effect1_dropShadow_2023_16"/>
<feOffset/>
<feGaussianBlur stdDeviation="6.5"/>
<feComposite in2="hardAlpha" operator="out"/>
<feColorMatrix type="matrix" values="0 0 0 0 0 0 0 0 0 0 0 0 0 0 0 0 0 0 0.25 0"/>
<feBlend mode="normal" in2="BackgroundImageFix" result="effect1_dropShadow_2023_16"/>
<feBlend mode="normal" in="SourceGraphic" in2="effect1_dropShadow_2023_16" result="shape"/>
</filter>
</defs>
</svg>
