<svg width="1895" height="1693" viewBox="0 0 1895 1693" fill="none" xmlns="http://www.w3.org/2000/svg">
<path d="M13 821.5V1394C13 1417.2 31.804 1436 55 1436H541.5H644.5V821.5H13Z" fill="#FFA507"/>
<path d="M644.5 821.5V1436H1217C1240.2 1436 1259 1417.2 1259 1394V821.5H644.5Z" fill="#FFA507"/>
<path d="M55 12.5C31.804 12.5 13 31.304 13 54.5V821.5H644.5V629V12.5H55Z" fill="#FFA507"/>
<path d="M1882 821.5H1259V1394C1259 1417.2 1240.2 1436 1217 1436H644.5H541.5V1638.5C541.5 1661.7 560.304 1680.5 583.5 1680.5H1840C1863.2 1680.5 1882 1661.7 1882 1638.5V821.5Z" fill="#FFA507"/>
<path d="M644.5 821.5H1259V12.5H644.5V629V821.5Z" fill="#FFA507"/>
<path d="M1259 821.5H1882V54.5C1882 31.304 1863.2 12.5 1840 12.5H1259V821.5Z" fill="#FFA507"/>
<path d="M13 821.5V54.5C13 31.304 31.804 12.5 55 12.5H644.5M13 821.5V1394C13 1417.2 31.804 1436 55 1436H541.5M13 821.5H644.5M1259 821.5H1882M1259 821.5H644.5M1259 821.5V12.5M1259 821.5V1394C1259 1417.2 1240.2 1436 1217 1436H644.5M644.5 1436V821.5M644.5 1436H541.5M644.5 821.5V629V12.5M1882 821.5V1638.5C1882 1661.7 1863.2 1680.5 1840 1680.5H583.5C560.304 1680.5 541.5 1661.7 541.5 1638.5V1436M1882 821.5V54.5C1882 31.304 1863.2 12.5 1840 12.5H1259M1259 12.5H644.5" stroke="#141414" stroke-width="25"/>
<path d="M13 821.5V1394C13 1417.2 31.804 1436 55 1436H541.5H644.5V821.5H13Z" fill="#FFA507"/>
<path d="M644.5 821.5V1436H1217C1240.2 1436 1259 1417.2 1259 1394V821.5H644.5Z" fill="#FFA507"/>
<path d="M55 12.5C31.804 12.5 13 31.304 13 54.5V821.5H644.5V629V12.5H55Z" fill="#FFA507"/>
<path d="M1882 821.5H1259V1394C1259 1417.2 1240.2 1436 1217 1436H644.5H541.5V1638.5C541.5 1661.7 560.304 1680.5 583.5 1680.5H1840C1863.2 1680.5 1882 1661.7 1882 1638.5V821.5Z" fill="#FFA507"/>
<path d="M644.5 821.5H1259V12.5H644.5V629V821.5Z" fill="#FFA507"/>
<path d="M1259 821.5H1882V54.5C1882 31.304 1863.2 12.5 1840 12.5H1259V821.5Z" fill="#FFA507"/>
<path d="M13 821.5V54.5C13 31.304 31.804 12.5 55 12.5H644.5M13 821.5V1394C13 1417.2 31.804 1436 55 1436H541.5M13 821.5H644.5M1259 821.5H1882M1259 821.5H644.5M1259 821.5V12.5M1259 821.5V1394C1259 1417.2 1240.2 1436 1217 1436H644.5M644.5 1436V821.5M644.5 1436H541.5M644.5 821.5V629V12.5M1882 821.5V1638.5C1882 1661.7 1863.2 1680.5 1840 1680.5H583.5C560.304 1680.5 541.5 1661.7 541.5 1638.5V1436M1882 821.5V54.5C1882 31.304 1863.2 12.5 1840 12.5H1259M1259 12.5H644.5" stroke="#141414" stroke-width="25"/>
<path d="M98.173 773.448C93.693 773.448 90.0023 772.445 87.101 770.44C84.2423 768.392 82.813 765.533 82.813 761.864C82.813 761.48 82.8557 760.904 82.941 760.136H92.093C91.9223 761.928 92.3917 763.4 93.501 764.552C94.653 765.704 96.317 766.28 98.493 766.28C100.669 766.28 102.376 765.832 103.613 764.936C104.893 763.997 105.533 762.675 105.533 760.968C105.533 759.389 104.872 758.131 103.549 757.192C102.269 756.253 100.242 755.208 97.469 754.056C94.909 752.989 92.8183 752.008 91.197 751.112C89.6183 750.216 88.253 748.979 87.101 747.4C85.9917 745.779 85.437 743.752 85.437 741.32C85.437 738.547 86.141 736.136 87.549 734.088C88.9997 732.04 90.9623 730.461 93.437 729.352C95.9543 728.243 98.813 727.688 102.013 727.688C105.17 727.688 107.901 728.221 110.205 729.288C112.552 730.312 114.301 731.784 115.453 733.704C116.648 735.624 117.16 737.864 116.989 740.424H107.453L107.517 739.72C107.517 738.312 106.984 737.16 105.917 736.264C104.893 735.368 103.442 734.92 101.565 734.92C99.5597 734.92 97.9383 735.389 96.701 736.328C95.4637 737.267 94.845 738.547 94.845 740.168C94.845 741.235 95.1863 742.173 95.869 742.984C96.5943 743.752 97.469 744.435 98.493 745.032C99.517 745.587 100.989 746.312 102.909 747.208C105.426 748.317 107.496 749.363 109.117 750.344C110.738 751.325 112.125 752.627 113.277 754.248C114.429 755.869 115.005 757.853 115.005 760.2C115.005 762.76 114.301 765.043 112.893 767.048C111.528 769.053 109.565 770.632 107.005 771.784C104.488 772.893 101.544 773.448 98.173 773.448ZM121.172 755.144C121.812 751.56 123.07 748.381 124.948 745.608C126.868 742.835 129.193 740.701 131.924 739.208C134.654 737.715 137.534 736.968 140.564 736.968C143.209 736.968 145.428 737.501 147.22 738.568C149.054 739.635 150.398 740.979 151.252 742.6L152.148 737.544H161.172L154.9 773H145.876L146.836 767.816C145.428 769.48 143.593 770.867 141.332 771.976C139.113 773.043 136.681 773.576 134.036 773.576C131.433 773.576 129.129 773 127.124 771.848C125.118 770.653 123.561 768.989 122.452 766.856C121.342 764.68 120.788 762.163 120.788 759.304C120.788 757.981 120.916 756.595 121.172 755.144ZM149.012 755.272C149.182 754.163 149.268 753.352 149.268 752.84C149.268 750.323 148.521 748.36 147.028 746.952C145.577 745.544 143.742 744.84 141.524 744.84C139.86 744.84 138.238 745.245 136.66 746.056C135.124 746.867 133.78 748.061 132.628 749.64C131.476 751.176 130.708 753.011 130.324 755.144C130.196 755.955 130.132 756.723 130.132 757.448C130.132 760.008 130.857 762.035 132.308 763.528C133.758 764.979 135.593 765.704 137.812 765.704C139.476 765.704 141.097 765.299 142.676 764.488C144.254 763.635 145.598 762.419 146.708 760.84C147.86 759.261 148.628 757.405 149.012 755.272ZM181.059 725.64L172.675 773H163.651L172.035 725.64H181.059ZM182.359 755.144C182.999 751.56 184.258 748.381 186.135 745.608C188.055 742.835 190.38 740.701 193.111 739.208C195.842 737.715 198.722 736.968 201.751 736.968C204.396 736.968 206.615 737.501 208.407 738.568C210.242 739.635 211.586 740.979 212.439 742.6L213.335 737.544H222.359L216.087 773H207.063L208.023 767.816C206.615 769.48 204.78 770.867 202.519 771.976C200.3 773.043 197.868 773.576 195.223 773.576C192.62 773.576 190.316 773 188.311 771.848C186.306 770.653 184.748 768.989 183.639 766.856C182.53 764.68 181.975 762.163 181.975 759.304C181.975 757.981 182.103 756.595 182.359 755.144ZM210.199 755.272C210.37 754.163 210.455 753.352 210.455 752.84C210.455 750.323 209.708 748.36 208.215 746.952C206.764 745.544 204.93 744.84 202.711 744.84C201.047 744.84 199.426 745.245 197.847 746.056C196.311 746.867 194.967 748.061 193.815 749.64C192.663 751.176 191.895 753.011 191.511 755.144C191.383 755.955 191.319 756.723 191.319 757.448C191.319 760.008 192.044 762.035 193.495 763.528C194.946 764.979 196.78 765.704 198.999 765.704C200.663 765.704 202.284 765.299 203.863 764.488C205.442 763.635 206.786 762.419 207.895 760.84C209.047 759.261 209.815 757.405 210.199 755.272ZM194.263 734.024C195.159 731.208 196.418 729.117 198.039 727.752C199.703 726.344 201.602 725.64 203.735 725.64C204.588 725.64 205.335 725.789 205.975 726.088C206.615 726.344 207.298 726.728 208.023 727.24C208.62 727.667 209.132 727.987 209.559 728.2C210.028 728.371 210.519 728.456 211.031 728.456C212.652 728.456 213.762 727.539 214.359 725.704H219.159C218.22 728.52 216.94 730.632 215.319 732.04C213.698 733.405 211.82 734.088 209.687 734.088C208.791 734.088 208.044 733.96 207.447 733.704C206.85 733.405 206.146 733 205.335 732.488C204.738 732.061 204.204 731.741 203.735 731.528C203.308 731.315 202.839 731.208 202.327 731.208C200.791 731.208 199.703 732.147 199.063 734.024H194.263ZM240.71 773.576C237.681 773.576 234.993 772.957 232.646 771.72C230.342 770.483 228.55 768.733 227.27 766.472C225.99 764.211 225.35 761.608 225.35 758.664C225.35 754.653 226.289 751.005 228.166 747.72C230.086 744.392 232.689 741.768 235.974 739.848C239.302 737.928 242.993 736.968 247.046 736.968C250.075 736.968 252.763 737.608 255.11 738.888C257.499 740.125 259.334 741.875 260.614 744.136C261.937 746.397 262.598 749 262.598 751.944C262.598 755.997 261.638 759.667 259.718 762.952C257.798 766.237 255.153 768.84 251.782 770.76C248.454 772.637 244.763 773.576 240.71 773.576ZM241.926 765.896C244.059 765.896 246.001 765.277 247.75 764.04C249.499 762.803 250.865 761.16 251.846 759.112C252.827 757.064 253.318 754.909 253.318 752.648C253.318 750.088 252.593 748.125 251.142 746.76C249.734 745.352 247.942 744.648 245.766 744.648C243.59 744.648 241.649 745.267 239.942 746.504C238.278 747.741 236.977 749.405 236.038 751.496C235.099 753.544 234.63 755.72 234.63 758.024C234.63 760.541 235.291 762.483 236.614 763.848C237.979 765.213 239.75 765.896 241.926 765.896ZM287.256 735.88L288.792 727.56H304.152L296.088 773H286.872L293.4 735.88H287.256Z" fill="#141414"/>
<path d="M447.015 1348.33C451.154 1348.33 454.716 1349.05 457.703 1350.5C460.732 1351.91 463.036 1353.94 464.615 1356.58C466.236 1359.23 467.047 1362.37 467.047 1365.99C467.047 1367.61 466.898 1369.19 466.599 1370.73C465.831 1375.21 464.167 1379.13 461.607 1382.5C459.09 1385.83 455.89 1388.41 452.007 1390.25C448.124 1392.08 443.815 1393 439.079 1393H423.463L431.399 1348.33H447.015ZM440.103 1385.7C444.796 1385.7 448.636 1384.38 451.623 1381.74C454.652 1379.09 456.594 1375.42 457.447 1370.73C457.66 1369.32 457.767 1368.1 457.767 1367.08C457.767 1363.5 456.7 1360.72 454.567 1358.76C452.476 1356.8 449.404 1355.82 445.351 1355.82H439.079L433.831 1385.7H440.103ZM491.226 1356.97C495.749 1356.97 499.333 1358.23 501.978 1360.74C504.623 1363.22 505.946 1366.57 505.946 1370.79C505.946 1372.16 505.839 1373.37 505.626 1374.44C505.37 1375.72 505.093 1376.83 504.794 1377.77H478.874C478.831 1378.07 478.81 1378.49 478.81 1379.05C478.81 1381.27 479.45 1383.02 480.73 1384.3C482.053 1385.53 483.781 1386.15 485.914 1386.15C487.706 1386.15 489.242 1385.77 490.522 1385C491.845 1384.19 492.911 1383.14 493.722 1381.86H503.386C501.807 1385.28 499.354 1388.09 496.026 1390.31C492.741 1392.49 489.007 1393.58 484.826 1393.58C480.303 1393.58 476.677 1392.3 473.946 1389.74C471.215 1387.18 469.85 1383.7 469.85 1379.3C469.85 1378.02 469.978 1376.68 470.234 1375.27C470.874 1371.6 472.175 1368.38 474.138 1365.61C476.143 1362.83 478.618 1360.7 481.562 1359.21C484.506 1357.71 487.727 1356.97 491.226 1356.97ZM496.73 1372.33C496.815 1371.65 496.858 1371.15 496.858 1370.86C496.858 1368.81 496.197 1367.21 494.874 1366.06C493.551 1364.9 491.823 1364.33 489.69 1364.33C487.429 1364.33 485.402 1365.05 483.61 1366.5C481.818 1367.91 480.559 1369.85 479.834 1372.33H496.73ZM509.734 1375.27C510.374 1371.6 511.675 1368.4 513.638 1365.67C515.601 1362.9 518.033 1360.77 520.934 1359.27C523.878 1357.74 527.057 1356.97 530.47 1356.97C534.865 1356.97 538.299 1358.06 540.774 1360.23C543.291 1362.41 544.699 1365.5 544.998 1369.51H535.334C535.078 1367.98 534.417 1366.78 533.35 1365.93C532.283 1365.03 530.854 1364.58 529.062 1364.58C526.502 1364.58 524.305 1365.52 522.47 1367.4C520.678 1369.23 519.483 1371.86 518.886 1375.27C518.673 1376.47 518.566 1377.49 518.566 1378.34C518.566 1380.78 519.163 1382.65 520.358 1383.98C521.553 1385.26 523.217 1385.9 525.35 1385.9C528.934 1385.9 531.579 1384.27 533.286 1381.03H542.95C541.286 1384.87 538.79 1387.92 535.462 1390.18C532.177 1392.45 528.379 1393.58 524.07 1393.58C519.59 1393.58 516.006 1392.32 513.318 1389.8C510.673 1387.24 509.35 1383.78 509.35 1379.43C509.35 1378.11 509.478 1376.72 509.734 1375.27ZM567.434 1375.27L579.978 1393H568.394L559.05 1377.96L556.362 1393H547.338L555.722 1345.64H564.746L560.01 1372.52L574.474 1357.54H586.186L567.434 1375.27Z" fill="#141414"/>
<path d="M579.047 1612.92C580.466 1613.17 581.798 1613.74 583.042 1614.62C584.285 1615.51 585.289 1616.73 586.054 1618.3C586.818 1619.84 587.203 1621.7 587.209 1623.88L587.221 1628.33L597.409 1630.09L597.424 1635.45L570.887 1630.81L570.861 1621.04C570.854 1618.33 571.456 1616.28 572.668 1614.88C573.855 1613.48 575.449 1612.78 577.451 1612.78C578.033 1612.77 578.566 1612.82 579.047 1612.92ZM583.027 1623.36C583.023 1621.92 582.666 1620.78 581.954 1619.95C581.242 1619.11 580.278 1618.58 579.062 1618.36C578.834 1618.31 578.504 1618.28 578.074 1618.28C576.072 1618.29 575.075 1619.53 575.082 1622.02L575.093 1626.2L583.039 1627.58L583.027 1623.36ZM597.678 1602.9C597.683 1604.7 597.32 1606.3 596.589 1607.69C595.858 1609.06 594.822 1610.13 593.482 1610.89C592.141 1611.66 590.597 1612.04 588.849 1612.05C586.468 1612.05 584.3 1611.5 582.346 1610.39C580.367 1609.26 578.805 1607.72 577.66 1605.77C576.515 1603.8 575.939 1601.61 575.932 1599.2C575.927 1597.4 576.303 1595.8 577.059 1594.41C577.79 1592.99 578.826 1591.89 580.167 1591.13C581.507 1590.34 583.051 1589.95 584.799 1589.94C587.206 1589.93 589.386 1590.5 591.34 1591.63C593.294 1592.77 594.843 1594.33 595.989 1596.33C597.109 1598.31 597.672 1600.5 597.678 1602.9ZM593.116 1602.19C593.113 1600.93 592.743 1599.77 592.005 1598.74C591.268 1597.7 590.29 1596.89 589.073 1596.31C587.855 1595.73 586.575 1595.45 585.232 1595.45C583.712 1595.45 582.548 1595.89 581.74 1596.75C580.906 1597.59 580.491 1598.65 580.494 1599.95C580.498 1601.24 580.868 1602.39 581.606 1603.4C582.343 1604.39 583.333 1605.16 584.576 1605.71C585.793 1606.27 587.086 1606.54 588.454 1606.54C589.949 1606.53 591.1 1606.14 591.909 1605.35C592.717 1604.54 593.12 1603.48 593.116 1602.19ZM579.946 1579.71C578.677 1578.8 577.686 1577.74 576.973 1576.52C576.261 1575.31 575.903 1573.99 575.899 1572.57L581.487 1573.55L581.491 1574.95C581.495 1576.52 581.841 1577.79 582.527 1578.75C583.214 1579.68 584.381 1580.36 586.029 1580.79L597.282 1582.74L597.296 1588.09L576.235 1584.43L576.22 1579.07L579.946 1579.71ZM590.737 1565.38C590.889 1565.4 591.092 1565.41 591.346 1565.41C591.852 1565.41 592.219 1565.27 592.446 1564.99C592.648 1564.69 592.748 1564.19 592.746 1563.51L592.74 1561L597.226 1561.79L597.235 1565.17C597.245 1568.97 595.667 1570.87 592.5 1570.88C591.892 1570.88 591.297 1570.83 590.714 1570.74L580.563 1568.98L580.57 1571.48L576.198 1570.74L576.191 1568.19L570.982 1567.29L570.968 1561.93L576.177 1562.83L576.164 1558.16L580.536 1558.91L580.549 1563.62L590.737 1565.38ZM586.612 1557.5C584.483 1557.12 582.594 1556.38 580.944 1555.27C579.294 1554.13 578.024 1552.76 577.133 1551.14C576.242 1549.52 575.794 1547.81 575.789 1546.01C575.785 1544.44 576.098 1543.12 576.729 1542.06C577.359 1540.97 578.155 1540.17 579.116 1539.66L576.113 1539.13L576.098 1533.77L597.16 1537.44L597.175 1542.8L594.095 1542.24C595.085 1543.07 595.912 1544.16 596.574 1545.5C597.211 1546.81 597.531 1548.26 597.536 1549.83C597.54 1551.37 597.201 1552.74 596.521 1553.94C595.815 1555.13 594.829 1556.05 593.564 1556.72C592.274 1557.38 590.78 1557.71 589.083 1557.72C588.297 1557.72 587.474 1557.65 586.612 1557.5ZM586.644 1540.97C585.985 1540.87 585.503 1540.82 585.199 1540.82C583.705 1540.82 582.541 1541.27 581.707 1542.16C580.873 1543.02 580.458 1544.11 580.462 1545.43C580.464 1546.42 580.708 1547.38 581.192 1548.31C581.675 1549.22 582.387 1550.02 583.326 1550.7C584.24 1551.38 585.33 1551.84 586.598 1552.06C587.079 1552.14 587.535 1552.17 587.966 1552.17C589.486 1552.17 590.688 1551.73 591.572 1550.87C592.431 1550.01 592.859 1548.92 592.856 1547.6C592.853 1546.61 592.61 1545.65 592.126 1544.71C591.617 1543.78 590.893 1542.98 589.953 1542.32C589.014 1541.64 587.911 1541.19 586.644 1540.97ZM579.796 1523.86C578.527 1522.95 577.536 1521.89 576.823 1520.67C576.111 1519.46 575.752 1518.14 575.749 1516.72L581.337 1517.7L581.341 1519.1C581.345 1520.67 581.691 1521.94 582.377 1522.9C583.064 1523.83 584.231 1524.52 585.879 1524.94L597.132 1526.89L597.146 1532.25L576.084 1528.58L576.07 1523.22L579.796 1523.86ZM573.527 1510.07C573.529 1510.9 573.29 1511.58 572.81 1512.08C572.33 1512.59 571.723 1512.85 570.988 1512.85C569.975 1512.85 569.112 1512.47 568.401 1511.72C567.664 1510.93 567.295 1510.02 567.292 1508.98C567.29 1508.17 567.528 1507.51 568.008 1507C568.488 1506.5 569.096 1506.24 569.83 1506.24C570.844 1506.24 571.719 1506.61 572.455 1507.37C573.167 1508.13 573.524 1509.03 573.527 1510.07ZM576.029 1507.86L597.091 1511.52L597.105 1516.88L576.043 1513.21L576.029 1507.86ZM586.473 1505.8C584.344 1505.43 582.455 1504.69 580.805 1503.58C579.156 1502.44 577.885 1501.06 576.994 1499.44C576.103 1497.83 575.655 1496.12 575.65 1494.32C575.646 1492.75 575.959 1491.43 576.59 1490.36C577.22 1489.27 578.016 1488.47 578.977 1487.96L575.974 1487.44L575.96 1482.08L597.021 1485.75L597.036 1491.11L593.956 1490.54C594.947 1491.38 595.773 1492.46 596.435 1493.81C597.072 1495.12 597.393 1496.56 597.397 1498.14C597.401 1499.68 597.063 1501.05 596.382 1502.24C595.676 1503.43 594.69 1504.36 593.425 1505.02C592.135 1505.69 590.641 1506.02 588.944 1506.02C588.159 1506.03 587.335 1505.95 586.473 1505.8ZM586.505 1489.27C585.846 1489.17 585.364 1489.12 585.06 1489.12C583.566 1489.13 582.402 1489.57 581.568 1490.46C580.734 1491.33 580.319 1492.42 580.323 1493.74C580.325 1494.72 580.569 1495.69 581.053 1496.62C581.536 1497.53 582.248 1498.33 583.187 1499.01C584.101 1499.69 585.191 1500.14 586.459 1500.37C586.94 1500.44 587.396 1500.48 587.827 1500.48C589.347 1500.47 590.549 1500.04 591.434 1499.18C592.293 1498.31 592.72 1497.22 592.717 1495.91C592.714 1494.92 592.471 1493.96 591.987 1493.02C591.478 1492.08 590.754 1491.29 589.815 1490.63C588.875 1489.95 587.772 1489.5 586.505 1489.27Z" fill="#141414"/>
<path d="M794.235 1384.49H776.379L771.963 1393H762.555L786.555 1348.26H796.987L805.115 1393H795.643L794.235 1384.49ZM793.083 1377.51L789.883 1358.57L780.027 1377.51H793.083ZM800.443 1339.05L784.443 1345.77L785.595 1339.37L801.723 1331.75L800.443 1339.05ZM825.327 1363.82C826.863 1361.68 828.655 1360.02 830.703 1358.82C832.751 1357.63 834.97 1357.03 837.359 1357.03L835.695 1366.44H833.327C830.682 1366.44 828.549 1367.02 826.927 1368.17C825.349 1369.32 824.197 1371.28 823.471 1374.06L820.143 1393H811.119L817.391 1357.54H826.415L825.327 1363.82ZM858.882 1356.97C863.405 1356.97 866.989 1358.23 869.634 1360.74C872.28 1363.22 873.602 1366.57 873.602 1370.79C873.602 1372.16 873.496 1373.37 873.282 1374.44C873.026 1375.72 872.749 1376.83 872.45 1377.77H846.53C846.488 1378.07 846.466 1378.49 846.466 1379.05C846.466 1381.27 847.106 1383.02 848.386 1384.3C849.709 1385.53 851.437 1386.15 853.57 1386.15C855.362 1386.15 856.898 1385.77 858.178 1385C859.501 1384.19 860.568 1383.14 861.378 1381.86H871.042C869.464 1385.28 867.01 1388.09 863.682 1390.31C860.397 1392.49 856.664 1393.58 852.482 1393.58C847.96 1393.58 844.333 1392.3 841.602 1389.74C838.872 1387.18 837.506 1383.7 837.506 1379.3C837.506 1378.02 837.634 1376.68 837.89 1375.27C838.53 1371.6 839.832 1368.38 841.794 1365.61C843.8 1362.83 846.274 1360.7 849.218 1359.21C852.162 1357.71 855.384 1356.97 858.882 1356.97ZM864.386 1372.33C864.472 1371.65 864.514 1371.15 864.514 1370.86C864.514 1368.81 863.853 1367.21 862.53 1366.06C861.208 1364.9 859.48 1364.33 857.346 1364.33C855.085 1364.33 853.058 1365.05 851.266 1366.5C849.474 1367.91 848.216 1369.85 847.49 1372.33H864.386ZM877.39 1375.14C878.03 1371.56 879.289 1368.38 881.166 1365.61C883.086 1362.83 885.412 1360.7 888.142 1359.21C890.873 1357.71 893.753 1356.97 896.782 1356.97C899.428 1356.97 901.646 1357.5 903.438 1358.57C905.273 1359.63 906.617 1360.98 907.47 1362.6L908.366 1357.54H917.39L911.118 1393H902.094L903.054 1387.82C901.646 1389.48 899.812 1390.87 897.55 1391.98C895.332 1393.04 892.9 1393.58 890.254 1393.58C887.652 1393.58 885.348 1393 883.342 1391.85C881.337 1390.65 879.78 1388.99 878.67 1386.86C877.561 1384.68 877.006 1382.16 877.006 1379.3C877.006 1377.98 877.134 1376.59 877.39 1375.14ZM905.23 1375.27C905.401 1374.16 905.486 1373.35 905.486 1372.84C905.486 1370.32 904.74 1368.36 903.246 1366.95C901.796 1365.54 899.961 1364.84 897.742 1364.84C896.078 1364.84 894.457 1365.25 892.878 1366.06C891.342 1366.87 889.998 1368.06 888.846 1369.64C887.694 1371.18 886.926 1373.01 886.542 1375.14C886.414 1375.95 886.35 1376.72 886.35 1377.45C886.35 1380.01 887.076 1382.03 888.526 1383.53C889.977 1384.98 891.812 1385.7 894.03 1385.7C895.694 1385.7 897.316 1385.3 898.894 1384.49C900.473 1383.63 901.817 1382.42 902.926 1380.84C904.078 1379.26 904.846 1377.41 905.23 1375.27ZM938.85 1370.6C939.618 1366.21 941.282 1362.28 943.842 1358.82C946.445 1355.33 949.624 1352.62 953.378 1350.7C957.176 1348.73 961.208 1347.75 965.474 1347.75C970.466 1347.75 974.626 1349.03 977.954 1351.59C981.282 1354.15 983.288 1357.69 983.97 1362.22H973.666C972.984 1360.17 971.81 1358.63 970.146 1357.61C968.482 1356.54 966.434 1356.01 964.002 1356.01C961.4 1356.01 958.968 1356.61 956.706 1357.8C954.488 1358.99 952.61 1360.7 951.074 1362.92C949.581 1365.14 948.578 1367.7 948.066 1370.6C947.853 1371.97 947.746 1373.1 947.746 1373.99C947.746 1377.45 948.728 1380.18 950.69 1382.18C952.696 1384.19 955.405 1385.19 958.818 1385.19C961.25 1385.19 963.49 1384.66 965.538 1383.59C967.586 1382.53 969.314 1380.97 970.722 1378.92H981.026C978.722 1383.49 975.458 1387.05 971.234 1389.61C967.053 1392.13 962.466 1393.38 957.474 1393.38C953.72 1393.38 950.392 1392.64 947.49 1391.14C944.632 1389.61 942.413 1387.45 940.834 1384.68C939.256 1381.91 938.466 1378.73 938.466 1375.14C938.466 1373.65 938.594 1372.14 938.85 1370.6ZM1001.99 1393.58C998.962 1393.58 996.274 1392.96 993.927 1391.72C991.623 1390.48 989.831 1388.73 988.551 1386.47C987.271 1384.21 986.631 1381.61 986.631 1378.66C986.631 1374.65 987.57 1371.01 989.447 1367.72C991.367 1364.39 993.97 1361.77 997.255 1359.85C1000.58 1357.93 1004.27 1356.97 1008.33 1356.97C1011.36 1356.97 1014.04 1357.61 1016.39 1358.89C1018.78 1360.13 1020.62 1361.87 1021.9 1364.14C1023.22 1366.4 1023.88 1369 1023.88 1371.94C1023.88 1376 1022.92 1379.67 1021 1382.95C1019.08 1386.24 1016.43 1388.84 1013.06 1390.76C1009.74 1392.64 1006.04 1393.58 1001.99 1393.58ZM1003.21 1385.9C1005.34 1385.9 1007.28 1385.28 1009.03 1384.04C1010.78 1382.8 1012.15 1381.16 1013.13 1379.11C1014.11 1377.06 1014.6 1374.91 1014.6 1372.65C1014.6 1370.09 1013.87 1368.13 1012.42 1366.76C1011.02 1365.35 1009.22 1364.65 1007.05 1364.65C1004.87 1364.65 1002.93 1365.27 1001.22 1366.5C999.559 1367.74 998.258 1369.41 997.319 1371.5C996.381 1373.54 995.911 1375.72 995.911 1378.02C995.911 1380.54 996.573 1382.48 997.895 1383.85C999.261 1385.21 1001.03 1385.9 1003.21 1385.9ZM1041.33 1362.73C1042.74 1361.02 1044.55 1359.63 1046.77 1358.57C1048.99 1357.5 1051.4 1356.97 1054 1356.97C1056.65 1356.97 1058.97 1357.54 1060.98 1358.7C1063.03 1359.81 1064.61 1361.43 1065.72 1363.56C1066.83 1365.69 1067.38 1368.19 1067.38 1371.05C1067.38 1372.37 1067.25 1373.74 1067 1375.14C1066.36 1378.77 1065.08 1381.99 1063.16 1384.81C1061.24 1387.58 1058.91 1389.74 1056.18 1391.27C1053.45 1392.81 1050.59 1393.58 1047.6 1393.58C1044.96 1393.58 1042.72 1393.06 1040.88 1392.04C1039.05 1390.97 1037.71 1389.61 1036.85 1387.94L1035.96 1393H1026.93L1035.32 1345.64H1044.34L1041.33 1362.73ZM1057.84 1375.14C1057.97 1374.29 1058.04 1373.52 1058.04 1372.84C1058.04 1370.32 1057.31 1368.36 1055.86 1366.95C1054.41 1365.54 1052.55 1364.84 1050.29 1364.84C1048.67 1364.84 1047.07 1365.27 1045.49 1366.12C1043.91 1366.93 1042.55 1368.13 1041.4 1369.7C1040.24 1371.28 1039.48 1373.14 1039.09 1375.27C1038.92 1376.38 1038.84 1377.19 1038.84 1377.7C1038.84 1380.22 1039.56 1382.18 1041.01 1383.59C1042.51 1385 1044.36 1385.7 1046.58 1385.7C1048.24 1385.7 1049.87 1385.28 1051.44 1384.42C1053.02 1383.57 1054.39 1382.35 1055.54 1380.78C1056.69 1379.2 1057.46 1377.32 1057.84 1375.14ZM1092.19 1356.97C1096.72 1356.97 1100.3 1358.23 1102.95 1360.74C1105.59 1363.22 1106.91 1366.57 1106.91 1370.79C1106.91 1372.16 1106.81 1373.37 1106.59 1374.44C1106.34 1375.72 1106.06 1376.83 1105.76 1377.77H1079.84C1079.8 1378.07 1079.78 1378.49 1079.78 1379.05C1079.78 1381.27 1080.42 1383.02 1081.7 1384.3C1083.02 1385.53 1084.75 1386.15 1086.88 1386.15C1088.67 1386.15 1090.21 1385.77 1091.49 1385C1092.81 1384.19 1093.88 1383.14 1094.69 1381.86H1104.35C1102.78 1385.28 1100.32 1388.09 1096.99 1390.31C1093.71 1392.49 1089.98 1393.58 1085.79 1393.58C1081.27 1393.58 1077.65 1392.3 1074.91 1389.74C1072.18 1387.18 1070.82 1383.7 1070.82 1379.3C1070.82 1378.02 1070.95 1376.68 1071.2 1375.27C1071.84 1371.6 1073.14 1368.38 1075.11 1365.61C1077.11 1362.83 1079.59 1360.7 1082.53 1359.21C1085.47 1357.71 1088.7 1356.97 1092.19 1356.97ZM1097.7 1372.33C1097.78 1371.65 1097.83 1371.15 1097.83 1370.86C1097.83 1368.81 1097.17 1367.21 1095.84 1366.06C1094.52 1364.9 1092.79 1364.33 1090.66 1364.33C1088.4 1364.33 1086.37 1365.05 1084.58 1366.5C1082.79 1367.91 1081.53 1369.85 1080.8 1372.33H1097.7ZM1124.01 1363.82C1125.55 1361.68 1127.34 1360.02 1129.39 1358.82C1131.44 1357.63 1133.66 1357.03 1136.05 1357.03L1134.38 1366.44H1132.01C1129.37 1366.44 1127.24 1367.02 1125.61 1368.17C1124.04 1369.32 1122.88 1371.28 1122.16 1374.06L1118.83 1393H1109.81L1116.08 1357.54H1125.1L1124.01 1363.82ZM1148.1 1382.06C1148.06 1382.31 1148.03 1382.65 1148.03 1383.08C1148.03 1383.93 1148.27 1384.55 1148.74 1384.94C1149.25 1385.28 1150.08 1385.45 1151.23 1385.45H1155.46L1154.11 1393H1148.42C1142.02 1393 1138.82 1390.33 1138.82 1385C1138.82 1383.98 1138.9 1382.97 1139.07 1381.99L1142.08 1364.9H1137.86L1139.14 1357.54H1143.43L1144.96 1348.78H1153.99L1152.45 1357.54H1160.32L1159.04 1364.9H1151.11L1148.1 1382.06ZM1161.39 1375.14C1162.03 1371.56 1163.29 1368.38 1165.17 1365.61C1167.09 1362.83 1169.41 1360.7 1172.14 1359.21C1174.87 1357.71 1177.75 1356.97 1180.78 1356.97C1183.43 1356.97 1185.65 1357.5 1187.44 1358.57C1189.27 1359.63 1190.62 1360.98 1191.47 1362.6L1192.37 1357.54H1201.39L1195.12 1393H1186.09L1187.05 1387.82C1185.65 1389.48 1183.81 1390.87 1181.55 1391.98C1179.33 1393.04 1176.9 1393.58 1174.25 1393.58C1171.65 1393.58 1169.35 1393 1167.34 1391.85C1165.34 1390.65 1163.78 1388.99 1162.67 1386.86C1161.56 1384.68 1161.01 1382.16 1161.01 1379.3C1161.01 1377.98 1161.13 1376.59 1161.39 1375.14ZM1189.23 1375.27C1189.4 1374.16 1189.49 1373.35 1189.49 1372.84C1189.49 1370.32 1188.74 1368.36 1187.25 1366.95C1185.8 1365.54 1183.96 1364.84 1181.74 1364.84C1180.08 1364.84 1178.46 1365.25 1176.88 1366.06C1175.34 1366.87 1174 1368.06 1172.85 1369.64C1171.69 1371.18 1170.93 1373.01 1170.54 1375.14C1170.41 1375.95 1170.35 1376.72 1170.35 1377.45C1170.35 1380.01 1171.08 1382.03 1172.53 1383.53C1173.98 1384.98 1175.81 1385.7 1178.03 1385.7C1179.69 1385.7 1181.32 1385.3 1182.89 1384.49C1184.47 1383.63 1185.82 1382.42 1186.93 1380.84C1188.08 1379.26 1188.85 1377.41 1189.23 1375.27Z" fill="#141414"/>
<path d="M1318.17 1601.49H1300.32L1295.9 1610H1286.49L1310.49 1565.26H1320.92L1329.05 1610H1319.58L1318.17 1601.49ZM1317.02 1594.51L1313.82 1575.57L1303.96 1594.51H1317.02ZM1324.38 1556.05L1308.38 1562.77L1309.53 1556.37L1325.66 1548.75L1324.38 1556.05ZM1349.26 1580.82C1350.8 1578.68 1352.59 1577.02 1354.64 1575.82C1356.69 1574.63 1358.91 1574.03 1361.3 1574.03L1359.63 1583.44H1357.26C1354.62 1583.44 1352.49 1584.02 1350.86 1585.17C1349.29 1586.32 1348.13 1588.28 1347.41 1591.06L1344.08 1610H1335.06L1341.33 1574.54H1350.35L1349.26 1580.82ZM1382.82 1573.97C1387.34 1573.97 1390.93 1575.23 1393.57 1577.74C1396.22 1580.22 1397.54 1583.57 1397.54 1587.79C1397.54 1589.16 1397.43 1590.37 1397.22 1591.44C1396.96 1592.72 1396.69 1593.83 1396.39 1594.77H1370.47C1370.43 1595.07 1370.4 1595.49 1370.4 1596.05C1370.4 1598.27 1371.04 1600.02 1372.32 1601.3C1373.65 1602.53 1375.37 1603.15 1377.51 1603.15C1379.3 1603.15 1380.84 1602.77 1382.12 1602C1383.44 1601.19 1384.51 1600.14 1385.32 1598.86H1394.98C1393.4 1602.28 1390.95 1605.09 1387.62 1607.31C1384.33 1609.49 1380.6 1610.58 1376.42 1610.58C1371.9 1610.58 1368.27 1609.3 1365.54 1606.74C1362.81 1604.18 1361.44 1600.7 1361.44 1596.3C1361.44 1595.02 1361.57 1593.68 1361.83 1592.27C1362.47 1588.6 1363.77 1585.38 1365.73 1582.61C1367.74 1579.83 1370.21 1577.7 1373.16 1576.21C1376.1 1574.71 1379.32 1573.97 1382.82 1573.97ZM1388.32 1589.33C1388.41 1588.65 1388.45 1588.15 1388.45 1587.86C1388.45 1585.81 1387.79 1584.21 1386.47 1583.06C1385.15 1581.9 1383.42 1581.33 1381.28 1581.33C1379.02 1581.33 1377 1582.05 1375.2 1583.5C1373.41 1584.91 1372.15 1586.85 1371.43 1589.33H1388.32ZM1401.33 1592.14C1401.97 1588.56 1403.23 1585.38 1405.1 1582.61C1407.02 1579.83 1409.35 1577.7 1412.08 1576.21C1414.81 1574.71 1417.69 1573.97 1420.72 1573.97C1423.37 1573.97 1425.58 1574.5 1427.38 1575.57C1429.21 1576.63 1430.55 1577.98 1431.41 1579.6L1432.3 1574.54H1441.33L1435.06 1610H1426.03L1426.99 1604.82C1425.58 1606.48 1423.75 1607.87 1421.49 1608.98C1419.27 1610.04 1416.84 1610.58 1414.19 1610.58C1411.59 1610.58 1409.29 1610 1407.28 1608.85C1405.27 1607.65 1403.72 1605.99 1402.61 1603.86C1401.5 1601.68 1400.94 1599.16 1400.94 1596.3C1400.94 1594.98 1401.07 1593.59 1401.33 1592.14ZM1429.17 1592.27C1429.34 1591.16 1429.42 1590.35 1429.42 1589.84C1429.42 1587.32 1428.68 1585.36 1427.18 1583.95C1425.73 1582.54 1423.9 1581.84 1421.68 1581.84C1420.02 1581.84 1418.39 1582.25 1416.82 1583.06C1415.28 1583.87 1413.94 1585.06 1412.78 1586.64C1411.63 1588.18 1410.86 1590.01 1410.48 1592.14C1410.35 1592.95 1410.29 1593.72 1410.29 1594.45C1410.29 1597.01 1411.01 1599.03 1412.46 1600.53C1413.91 1601.98 1415.75 1602.7 1417.97 1602.7C1419.63 1602.7 1421.25 1602.3 1422.83 1601.49C1424.41 1600.63 1425.75 1599.42 1426.86 1597.84C1428.02 1596.26 1428.78 1594.41 1429.17 1592.27ZM1461.83 1592.14C1462.47 1588.56 1463.73 1585.38 1465.6 1582.61C1467.52 1579.83 1469.85 1577.7 1472.58 1576.21C1475.35 1574.71 1478.25 1573.97 1481.28 1573.97C1483.59 1573.97 1485.7 1574.48 1487.62 1575.5C1489.54 1576.49 1490.97 1577.81 1491.91 1579.47L1494.92 1562.64H1503.94L1495.56 1610H1486.53L1487.49 1604.75C1486.08 1606.5 1484.27 1607.91 1482.05 1608.98C1479.88 1610.04 1477.47 1610.58 1474.82 1610.58C1472.22 1610.58 1469.89 1610 1467.84 1608.85C1465.84 1607.65 1464.26 1605.99 1463.11 1603.86C1462 1601.68 1461.44 1599.16 1461.44 1596.3C1461.44 1594.98 1461.57 1593.59 1461.83 1592.14ZM1489.67 1592.27C1489.84 1591.16 1489.92 1590.35 1489.92 1589.84C1489.92 1587.32 1489.18 1585.36 1487.68 1583.95C1486.23 1582.54 1484.4 1581.84 1482.18 1581.84C1480.52 1581.84 1478.89 1582.25 1477.32 1583.06C1475.78 1583.87 1474.44 1585.06 1473.28 1586.64C1472.13 1588.18 1471.36 1590.01 1470.98 1592.14C1470.85 1592.95 1470.79 1593.72 1470.79 1594.45C1470.79 1597.01 1471.51 1599.03 1472.96 1600.53C1474.41 1601.98 1476.25 1602.7 1478.47 1602.7C1480.13 1602.7 1481.75 1602.3 1483.33 1601.49C1484.91 1600.63 1486.25 1599.42 1487.36 1597.84C1488.52 1596.26 1489.28 1594.41 1489.67 1592.27ZM1526.19 1573.97C1530.72 1573.97 1534.3 1575.23 1536.95 1577.74C1539.59 1580.22 1540.91 1583.57 1540.91 1587.79C1540.91 1589.16 1540.81 1590.37 1540.59 1591.44C1540.34 1592.72 1540.06 1593.83 1539.76 1594.77H1513.84C1513.8 1595.07 1513.78 1595.49 1513.78 1596.05C1513.78 1598.27 1514.42 1600.02 1515.7 1601.3C1517.02 1602.53 1518.75 1603.15 1520.88 1603.15C1522.67 1603.15 1524.21 1602.77 1525.49 1602C1526.81 1601.19 1527.88 1600.14 1528.69 1598.86H1538.35C1536.78 1602.28 1534.32 1605.09 1530.99 1607.31C1527.71 1609.49 1523.98 1610.58 1519.79 1610.58C1515.27 1610.58 1511.65 1609.3 1508.91 1606.74C1506.18 1604.18 1504.82 1600.7 1504.82 1596.3C1504.82 1595.02 1504.95 1593.68 1505.2 1592.27C1505.84 1588.6 1507.14 1585.38 1509.11 1582.61C1511.11 1579.83 1513.59 1577.7 1516.53 1576.21C1519.47 1574.71 1522.7 1573.97 1526.19 1573.97ZM1531.7 1589.33C1531.78 1588.65 1531.83 1588.15 1531.83 1587.86C1531.83 1585.81 1531.17 1584.21 1529.84 1583.06C1528.52 1581.9 1526.79 1581.33 1524.66 1581.33C1522.4 1581.33 1520.37 1582.05 1518.58 1583.5C1516.79 1584.91 1515.53 1586.85 1514.8 1589.33H1531.7ZM1557.69 1610.58C1555.09 1610.58 1552.72 1610.15 1550.59 1609.3C1548.5 1608.4 1546.84 1607.18 1545.6 1605.65C1544.4 1604.07 1543.81 1602.28 1543.81 1600.27C1543.81 1599.97 1543.85 1599.48 1543.93 1598.8H1552.64C1552.51 1600.29 1552.96 1601.51 1553.98 1602.45C1555.01 1603.34 1556.46 1603.79 1558.33 1603.79C1560.04 1603.79 1561.45 1603.49 1562.56 1602.9C1563.71 1602.26 1564.29 1601.34 1564.29 1600.14C1564.29 1599.08 1563.75 1598.22 1562.69 1597.58C1561.66 1596.94 1560.02 1596.22 1557.76 1595.41C1555.5 1594.6 1553.62 1593.81 1552.13 1593.04C1550.63 1592.27 1549.35 1591.21 1548.29 1589.84C1547.22 1588.47 1546.69 1586.75 1546.69 1584.66C1546.69 1582.57 1547.28 1580.71 1548.48 1579.09C1549.72 1577.47 1551.42 1576.21 1553.6 1575.31C1555.77 1574.42 1558.27 1573.97 1561.09 1573.97C1563.77 1573.97 1566.14 1574.42 1568.19 1575.31C1570.24 1576.21 1571.82 1577.47 1572.93 1579.09C1574.08 1580.67 1574.65 1582.48 1574.65 1584.53C1574.65 1585.04 1574.63 1585.42 1574.59 1585.68H1566.27C1566.4 1584.19 1565.97 1582.99 1564.99 1582.1C1564.01 1581.2 1562.58 1580.75 1560.7 1580.75C1559.17 1580.75 1557.91 1581.09 1556.93 1581.78C1555.95 1582.42 1555.45 1583.29 1555.45 1584.4C1555.45 1585.51 1556.01 1586.43 1557.12 1587.15C1558.23 1587.83 1559.93 1588.6 1562.24 1589.46C1564.54 1590.35 1566.38 1591.18 1567.74 1591.95C1569.15 1592.68 1570.37 1593.7 1571.39 1595.02C1572.41 1596.3 1572.93 1597.93 1572.93 1599.89C1572.93 1602.06 1572.27 1603.96 1570.94 1605.58C1569.62 1607.21 1567.81 1608.44 1565.5 1609.3C1563.2 1610.15 1560.6 1610.58 1557.69 1610.58ZM1579.58 1592.27C1580.22 1588.6 1581.52 1585.4 1583.48 1582.67C1585.44 1579.9 1587.88 1577.77 1590.78 1576.27C1593.72 1574.74 1596.9 1573.97 1600.31 1573.97C1604.71 1573.97 1608.14 1575.06 1610.62 1577.23C1613.14 1579.41 1614.54 1582.5 1614.84 1586.51H1605.18C1604.92 1584.98 1604.26 1583.78 1603.19 1582.93C1602.13 1582.03 1600.7 1581.58 1598.91 1581.58C1596.35 1581.58 1594.15 1582.52 1592.31 1584.4C1590.52 1586.23 1589.33 1588.86 1588.73 1592.27C1588.52 1593.47 1588.41 1594.49 1588.41 1595.34C1588.41 1597.78 1589.01 1599.65 1590.2 1600.98C1591.4 1602.26 1593.06 1602.9 1595.19 1602.9C1598.78 1602.9 1601.42 1601.27 1603.13 1598.03H1612.79C1611.13 1601.87 1608.63 1604.92 1605.31 1607.18C1602.02 1609.45 1598.22 1610.58 1593.91 1610.58C1589.43 1610.58 1585.85 1609.32 1583.16 1606.8C1580.52 1604.24 1579.19 1600.78 1579.19 1596.43C1579.19 1595.11 1579.32 1593.72 1579.58 1592.27ZM1633.05 1610.58C1630.02 1610.58 1627.34 1609.96 1624.99 1608.72C1622.69 1607.48 1620.89 1605.73 1619.61 1603.47C1618.33 1601.21 1617.69 1598.61 1617.69 1595.66C1617.69 1591.65 1618.63 1588.01 1620.51 1584.72C1622.43 1581.39 1625.03 1578.77 1628.32 1576.85C1631.65 1574.93 1635.34 1573.97 1639.39 1573.97C1642.42 1573.97 1645.11 1574.61 1647.45 1575.89C1649.84 1577.13 1651.68 1578.87 1652.96 1581.14C1654.28 1583.4 1654.94 1586 1654.94 1588.94C1654.94 1593 1653.98 1596.67 1652.06 1599.95C1650.14 1603.24 1647.5 1605.84 1644.13 1607.76C1640.8 1609.64 1637.11 1610.58 1633.05 1610.58ZM1634.27 1602.9C1636.4 1602.9 1638.34 1602.28 1640.09 1601.04C1641.84 1599.8 1643.21 1598.16 1644.19 1596.11C1645.17 1594.06 1645.66 1591.91 1645.66 1589.65C1645.66 1587.09 1644.94 1585.13 1643.49 1583.76C1642.08 1582.35 1640.29 1581.65 1638.11 1581.65C1635.93 1581.65 1633.99 1582.27 1632.29 1583.5C1630.62 1584.74 1629.32 1586.41 1628.38 1588.5C1627.44 1590.54 1626.97 1592.72 1626.97 1595.02C1626.97 1597.54 1627.64 1599.48 1628.96 1600.85C1630.32 1602.21 1632.09 1602.9 1634.27 1602.9ZM1672.39 1579.73C1673.8 1578.02 1675.62 1576.63 1677.83 1575.57C1680.05 1574.5 1682.46 1573.97 1685.07 1573.97C1687.71 1573.97 1690.04 1574.54 1692.04 1575.7C1694.09 1576.81 1695.67 1578.43 1696.78 1580.56C1697.89 1582.69 1698.44 1585.19 1698.44 1588.05C1698.44 1589.37 1698.31 1590.74 1698.06 1592.14C1697.42 1595.77 1696.14 1598.99 1694.22 1601.81C1692.3 1604.58 1689.97 1606.74 1687.24 1608.27C1684.51 1609.81 1681.65 1610.58 1678.67 1610.58C1676.02 1610.58 1673.78 1610.06 1671.95 1609.04C1670.11 1607.97 1668.77 1606.61 1667.91 1604.94L1667.02 1610H1657.99L1666.38 1562.64H1675.4L1672.39 1579.73ZM1688.91 1592.14C1689.03 1591.29 1689.1 1590.52 1689.1 1589.84C1689.1 1587.32 1688.37 1585.36 1686.92 1583.95C1685.47 1582.54 1683.62 1581.84 1681.35 1581.84C1679.73 1581.84 1678.13 1582.27 1676.55 1583.12C1674.98 1583.93 1673.61 1585.13 1672.46 1586.7C1671.31 1588.28 1670.54 1590.14 1670.15 1592.27C1669.98 1593.38 1669.9 1594.19 1669.9 1594.7C1669.9 1597.22 1670.62 1599.18 1672.07 1600.59C1673.57 1602 1675.42 1602.7 1677.64 1602.7C1679.31 1602.7 1680.93 1602.28 1682.51 1601.42C1684.08 1600.57 1685.45 1599.35 1686.6 1597.78C1687.75 1596.2 1688.52 1594.32 1688.91 1592.14ZM1723.26 1573.97C1727.78 1573.97 1731.36 1575.23 1734.01 1577.74C1736.65 1580.22 1737.98 1583.57 1737.98 1587.79C1737.98 1589.16 1737.87 1590.37 1737.66 1591.44C1737.4 1592.72 1737.12 1593.83 1736.83 1594.77H1710.91C1710.86 1595.07 1710.84 1595.49 1710.84 1596.05C1710.84 1598.27 1711.48 1600.02 1712.76 1601.3C1714.08 1602.53 1715.81 1603.15 1717.95 1603.15C1719.74 1603.15 1721.27 1602.77 1722.55 1602C1723.88 1601.19 1724.94 1600.14 1725.75 1598.86H1735.42C1733.84 1602.28 1731.39 1605.09 1728.06 1607.31C1724.77 1609.49 1721.04 1610.58 1716.86 1610.58C1712.33 1610.58 1708.71 1609.3 1705.98 1606.74C1703.25 1604.18 1701.88 1600.7 1701.88 1596.3C1701.88 1595.02 1702.01 1593.68 1702.27 1592.27C1702.91 1588.6 1704.21 1585.38 1706.17 1582.61C1708.17 1579.83 1710.65 1577.7 1713.59 1576.21C1716.54 1574.71 1719.76 1573.97 1723.26 1573.97ZM1728.76 1589.33C1728.85 1588.65 1728.89 1588.15 1728.89 1587.86C1728.89 1585.81 1728.23 1584.21 1726.91 1583.06C1725.58 1581.9 1723.85 1581.33 1721.72 1581.33C1719.46 1581.33 1717.43 1582.05 1715.64 1583.5C1713.85 1584.91 1712.59 1586.85 1711.87 1589.33H1728.76ZM1755.08 1580.82C1756.61 1578.68 1758.41 1577.02 1760.45 1575.82C1762.5 1574.63 1764.72 1574.03 1767.11 1574.03L1765.45 1583.44H1763.08C1760.43 1583.44 1758.3 1584.02 1756.68 1585.17C1755.1 1586.32 1753.95 1588.28 1753.22 1591.06L1749.89 1610H1740.87L1747.14 1574.54H1756.17L1755.08 1580.82ZM1779.16 1599.06C1779.12 1599.31 1779.1 1599.65 1779.1 1600.08C1779.1 1600.93 1779.33 1601.55 1779.8 1601.94C1780.31 1602.28 1781.14 1602.45 1782.3 1602.45H1786.52L1785.18 1610H1779.48C1773.08 1610 1769.88 1607.33 1769.88 1602C1769.88 1600.98 1769.97 1599.97 1770.14 1598.99L1773.14 1581.9H1768.92L1770.2 1574.54H1774.49L1776.02 1565.78H1785.05L1783.51 1574.54H1791.38L1790.1 1581.9H1782.17L1779.16 1599.06ZM1792.45 1592.14C1793.09 1588.56 1794.35 1585.38 1796.23 1582.61C1798.15 1579.83 1800.47 1577.7 1803.2 1576.21C1805.94 1574.71 1808.82 1573.97 1811.84 1573.97C1814.49 1573.97 1816.71 1574.5 1818.5 1575.57C1820.34 1576.63 1821.68 1577.98 1822.53 1579.6L1823.43 1574.54H1832.45L1826.18 1610H1817.16L1818.12 1604.82C1816.71 1606.48 1814.87 1607.87 1812.61 1608.98C1810.39 1610.04 1807.96 1610.58 1805.32 1610.58C1802.71 1610.58 1800.41 1610 1798.4 1608.85C1796.4 1607.65 1794.84 1605.99 1793.73 1603.86C1792.62 1601.68 1792.07 1599.16 1792.07 1596.3C1792.07 1594.98 1792.2 1593.59 1792.45 1592.14ZM1820.29 1592.27C1820.46 1591.16 1820.55 1590.35 1820.55 1589.84C1820.55 1587.32 1819.8 1585.36 1818.31 1583.95C1816.86 1582.54 1815.02 1581.84 1812.8 1581.84C1811.14 1581.84 1809.52 1582.25 1807.94 1583.06C1806.4 1583.87 1805.06 1585.06 1803.91 1586.64C1802.76 1588.18 1801.99 1590.01 1801.6 1592.14C1801.48 1592.95 1801.41 1593.72 1801.41 1594.45C1801.41 1597.01 1802.14 1599.03 1803.59 1600.53C1805.04 1601.98 1806.87 1602.7 1809.09 1602.7C1810.76 1602.7 1812.38 1602.3 1813.96 1601.49C1815.54 1600.63 1816.88 1599.42 1817.99 1597.84C1819.14 1596.26 1819.91 1594.41 1820.29 1592.27Z" fill="#141414"/>
<path d="M713.392 773.448C708.912 773.448 705.221 772.445 702.32 770.44C699.461 768.392 698.032 765.533 698.032 761.864C698.032 761.48 698.074 760.904 698.16 760.136H707.312C707.141 761.928 707.61 763.4 708.72 764.552C709.872 765.704 711.536 766.28 713.712 766.28C715.888 766.28 717.594 765.832 718.832 764.936C720.112 763.997 720.752 762.675 720.752 760.968C720.752 759.389 720.09 758.131 718.768 757.192C717.488 756.253 715.461 755.208 712.688 754.056C710.128 752.989 708.037 752.008 706.416 751.112C704.837 750.216 703.472 748.979 702.32 747.4C701.21 745.779 700.656 743.752 700.656 741.32C700.656 738.547 701.36 736.136 702.768 734.088C704.218 732.04 706.181 730.461 708.656 729.352C711.173 728.243 714.032 727.688 717.232 727.688C720.389 727.688 723.12 728.221 725.424 729.288C727.77 730.312 729.52 731.784 730.672 733.704C731.866 735.624 732.378 737.864 732.208 740.424H722.672L722.736 739.72C722.736 738.312 722.202 737.16 721.136 736.264C720.112 735.368 718.661 734.92 716.784 734.92C714.778 734.92 713.157 735.389 711.92 736.328C710.682 737.267 710.064 738.547 710.064 740.168C710.064 741.235 710.405 742.173 711.088 742.984C711.813 743.752 712.688 744.435 713.712 745.032C714.736 745.587 716.208 746.312 718.128 747.208C720.645 748.317 722.714 749.363 724.336 750.344C725.957 751.325 727.344 752.627 728.496 754.248C729.648 755.869 730.224 757.853 730.224 760.2C730.224 762.76 729.52 765.043 728.112 767.048C726.746 769.053 724.784 770.632 722.224 771.784C719.706 772.893 716.762 773.448 713.392 773.448ZM736.39 755.144C737.03 751.56 738.289 748.381 740.166 745.608C742.086 742.835 744.412 740.701 747.142 739.208C749.873 737.715 752.753 736.968 755.782 736.968C758.428 736.968 760.646 737.501 762.438 738.568C764.273 739.635 765.617 740.979 766.47 742.6L767.366 737.544H776.39L770.118 773H761.094L762.054 767.816C760.646 769.48 758.812 770.867 756.55 771.976C754.332 773.043 751.9 773.576 749.254 773.576C746.652 773.576 744.348 773 742.342 771.848C740.337 770.653 738.78 768.989 737.67 766.856C736.561 764.68 736.006 762.163 736.006 759.304C736.006 757.981 736.134 756.595 736.39 755.144ZM764.23 755.272C764.401 754.163 764.486 753.352 764.486 752.84C764.486 750.323 763.74 748.36 762.246 746.952C760.796 745.544 758.961 744.84 756.742 744.84C755.078 744.84 753.457 745.245 751.878 746.056C750.342 746.867 748.998 748.061 747.846 749.64C746.694 751.176 745.926 753.011 745.542 755.144C745.414 755.955 745.35 756.723 745.35 757.448C745.35 760.008 746.076 762.035 747.526 763.528C748.977 764.979 750.812 765.704 753.03 765.704C754.694 765.704 756.316 765.299 757.894 764.488C759.473 763.635 760.817 762.419 761.926 760.84C763.078 759.261 763.846 757.405 764.23 755.272ZM796.277 725.64L787.893 773H778.869L787.253 725.64H796.277ZM797.578 755.144C798.218 751.56 799.476 748.381 801.354 745.608C803.274 742.835 805.599 740.701 808.33 739.208C811.06 737.715 813.94 736.968 816.97 736.968C819.615 736.968 821.834 737.501 823.626 738.568C825.46 739.635 826.804 740.979 827.658 742.6L828.554 737.544H837.578L831.306 773H822.282L823.242 767.816C821.834 769.48 819.999 770.867 817.738 771.976C815.519 773.043 813.087 773.576 810.442 773.576C807.839 773.576 805.535 773 803.53 771.848C801.524 770.653 799.967 768.989 798.858 766.856C797.748 764.68 797.194 762.163 797.194 759.304C797.194 757.981 797.322 756.595 797.578 755.144ZM825.418 755.272C825.588 754.163 825.674 753.352 825.674 752.84C825.674 750.323 824.927 748.36 823.434 746.952C821.983 745.544 820.148 744.84 817.93 744.84C816.266 744.84 814.644 745.245 813.066 746.056C811.53 746.867 810.186 748.061 809.034 749.64C807.882 751.176 807.114 753.011 806.73 755.144C806.602 755.955 806.538 756.723 806.538 757.448C806.538 760.008 807.263 762.035 808.714 763.528C810.164 764.979 811.999 765.704 814.218 765.704C815.882 765.704 817.503 765.299 819.082 764.488C820.66 763.635 822.004 762.419 823.114 760.84C824.266 759.261 825.034 757.405 825.418 755.272ZM809.482 734.024C810.378 731.208 811.636 729.117 813.258 727.752C814.922 726.344 816.82 725.64 818.954 725.64C819.807 725.64 820.554 725.789 821.194 726.088C821.834 726.344 822.516 726.728 823.242 727.24C823.839 727.667 824.351 727.987 824.778 728.2C825.247 728.371 825.738 728.456 826.25 728.456C827.871 728.456 828.98 727.539 829.578 725.704H834.378C833.439 728.52 832.159 730.632 830.538 732.04C828.916 733.405 827.039 734.088 824.906 734.088C824.01 734.088 823.263 733.96 822.666 733.704C822.068 733.405 821.364 733 820.554 732.488C819.956 732.061 819.423 731.741 818.954 731.528C818.527 731.315 818.058 731.208 817.546 731.208C816.01 731.208 814.922 732.147 814.282 734.024H809.482ZM855.929 773.576C852.899 773.576 850.211 772.957 847.865 771.72C845.561 770.483 843.769 768.733 842.489 766.472C841.209 764.211 840.569 761.608 840.569 758.664C840.569 754.653 841.507 751.005 843.385 747.72C845.305 744.392 847.907 741.768 851.193 739.848C854.521 737.928 858.211 736.968 862.265 736.968C865.294 736.968 867.982 737.608 870.329 738.888C872.718 740.125 874.553 741.875 875.833 744.136C877.155 746.397 877.817 749 877.817 751.944C877.817 755.997 876.857 759.667 874.937 762.952C873.017 766.237 870.371 768.84 867.001 770.76C863.673 772.637 859.982 773.576 855.929 773.576ZM857.145 765.896C859.278 765.896 861.219 765.277 862.969 764.04C864.718 762.803 866.083 761.16 867.065 759.112C868.046 757.064 868.537 754.909 868.537 752.648C868.537 750.088 867.811 748.125 866.361 746.76C864.953 745.352 863.161 744.648 860.985 744.648C858.809 744.648 856.867 745.267 855.161 746.504C853.497 747.741 852.195 749.405 851.257 751.496C850.318 753.544 849.849 755.72 849.849 758.024C849.849 760.541 850.51 762.483 851.833 763.848C853.198 765.213 854.969 765.896 857.145 765.896ZM902.026 762.632C906.762 759.176 910.474 756.36 913.162 754.184C915.893 751.965 918.24 749.683 920.202 747.336C922.208 744.989 923.402 742.707 923.786 740.488C923.914 739.848 923.978 739.229 923.978 738.632C923.978 737.096 923.53 735.901 922.634 735.048C921.781 734.195 920.458 733.768 918.666 733.768C916.576 733.768 914.848 734.472 913.482 735.88C912.117 737.245 911.157 739.208 910.602 741.768H901.962C902.986 736.648 905.184 732.765 908.554 730.12C911.925 727.475 915.829 726.152 920.266 726.152C924.49 726.152 927.69 727.155 929.866 729.16C932.042 731.123 933.13 733.747 933.13 737.032C933.13 738.099 933.045 739.059 932.874 739.912C932.32 743.112 930.89 746.184 928.586 749.128C926.282 752.072 923.786 754.675 921.098 756.936C918.41 759.155 914.933 761.821 910.666 764.936H929.546L928.202 772.36H896.65L897.802 765.704L902.026 762.632Z" fill="#141414"/>
<path d="M1347.02 764.488H1329.16L1324.74 773H1315.34L1339.34 728.264H1349.77L1357.9 773H1348.42L1347.02 764.488ZM1345.86 757.512L1342.66 738.568L1332.81 757.512H1345.86ZM1389.88 737.032C1393.55 737.032 1396.43 738.035 1398.52 740.04C1400.66 742.003 1401.72 744.819 1401.72 748.488C1401.72 749.853 1401.62 751.091 1401.4 752.2L1397.69 773H1388.8L1392.25 753.416C1392.38 752.648 1392.44 751.901 1392.44 751.176C1392.44 749.043 1391.87 747.421 1390.72 746.312C1389.61 745.203 1388.01 744.648 1385.92 744.648C1383.53 744.648 1381.48 745.373 1379.77 746.824C1378.11 748.232 1377 750.28 1376.44 752.968L1372.92 773H1363.9L1370.17 737.544H1379.2L1378.43 741.896C1379.88 740.403 1381.61 739.229 1383.61 738.376C1385.62 737.48 1387.71 737.032 1389.88 737.032ZM1428.1 736.968C1432.62 736.968 1436.21 738.227 1438.85 740.744C1441.5 743.219 1442.82 746.568 1442.82 750.792C1442.82 752.157 1442.71 753.373 1442.5 754.44C1442.25 755.72 1441.97 756.829 1441.67 757.768H1415.75C1415.71 758.067 1415.69 758.493 1415.69 759.048C1415.69 761.267 1416.33 763.016 1417.61 764.296C1418.93 765.533 1420.66 766.152 1422.79 766.152C1424.58 766.152 1426.12 765.768 1427.4 765C1428.72 764.189 1429.79 763.144 1430.6 761.864H1440.26C1438.68 765.277 1436.23 768.093 1432.9 770.312C1429.62 772.488 1425.88 773.576 1421.7 773.576C1417.18 773.576 1413.55 772.296 1410.82 769.736C1408.09 767.176 1406.73 763.699 1406.73 759.304C1406.73 758.024 1406.85 756.68 1407.11 755.272C1407.75 751.603 1409.05 748.381 1411.01 745.608C1413.02 742.835 1415.49 740.701 1418.44 739.208C1421.38 737.715 1424.6 736.968 1428.1 736.968ZM1433.61 752.328C1433.69 751.645 1433.73 751.155 1433.73 750.856C1433.73 748.808 1433.07 747.208 1431.75 746.056C1430.43 744.904 1428.7 744.328 1426.57 744.328C1424.3 744.328 1422.28 745.053 1420.49 746.504C1418.69 747.912 1417.43 749.853 1416.71 752.328H1433.61ZM1466.77 755.208L1475.41 773H1465.3L1459.99 762.056L1451.54 773H1441.94L1456.66 755.208L1448.08 737.544H1458.19L1463.51 748.488L1471.95 737.544H1481.55L1466.77 755.208ZM1496.15 773.576C1493.12 773.576 1490.43 772.957 1488.08 771.72C1485.78 770.483 1483.99 768.733 1482.71 766.472C1481.43 764.211 1480.79 761.608 1480.79 758.664C1480.79 754.653 1481.73 751.005 1483.6 747.72C1485.52 744.392 1488.13 741.768 1491.41 739.848C1494.74 737.928 1498.43 736.968 1502.48 736.968C1505.51 736.968 1508.2 737.608 1510.55 738.888C1512.94 740.125 1514.77 741.875 1516.05 744.136C1517.37 746.397 1518.04 749 1518.04 751.944C1518.04 755.997 1517.08 759.667 1515.16 762.952C1513.24 766.237 1510.59 768.84 1507.22 770.76C1503.89 772.637 1500.2 773.576 1496.15 773.576ZM1497.36 765.896C1499.5 765.896 1501.44 765.277 1503.19 764.04C1504.94 762.803 1506.3 761.16 1507.28 759.112C1508.26 757.064 1508.76 754.909 1508.76 752.648C1508.76 750.088 1508.03 748.125 1506.58 746.76C1505.17 745.352 1503.38 744.648 1501.2 744.648C1499.03 744.648 1497.09 745.267 1495.38 746.504C1493.72 747.741 1492.41 749.405 1491.48 751.496C1490.54 753.544 1490.07 755.72 1490.07 758.024C1490.07 760.541 1490.73 762.483 1492.05 763.848C1493.42 765.213 1495.19 765.896 1497.36 765.896Z" fill="#141414"/>
<path d="M1803.15 462.615C1805.54 463.041 1807.78 464.001 1809.87 465.495C1811.96 466.988 1813.65 469.057 1814.93 471.703C1816.21 474.305 1816.85 477.441 1816.85 481.111V488.599L1834 491.607V500.631L1789.33 492.695V476.247C1789.33 471.681 1790.35 468.225 1792.4 465.879C1794.41 463.532 1797.09 462.359 1800.46 462.359C1801.45 462.359 1802.34 462.444 1803.15 462.615ZM1809.81 480.215C1809.81 477.783 1809.21 475.863 1808.02 474.455C1806.82 473.047 1805.2 472.151 1803.15 471.767C1802.77 471.681 1802.21 471.639 1801.49 471.639C1798.12 471.639 1796.43 473.729 1796.43 477.911V484.951L1809.81 487.319V480.215ZM1816.14 460.797C1812.56 460.157 1809.38 458.899 1806.61 457.021C1803.83 455.101 1801.7 452.776 1800.21 450.045C1798.71 447.315 1797.97 444.435 1797.97 441.405C1797.97 438.76 1798.5 436.541 1799.57 434.749C1800.63 432.915 1801.98 431.571 1803.6 430.717L1798.54 429.821V420.797L1834 427.069V436.093L1828.82 435.133C1830.48 436.541 1831.87 438.376 1832.98 440.637C1834.04 442.856 1834.58 445.288 1834.58 447.933C1834.58 450.536 1834 452.84 1832.85 454.845C1831.65 456.851 1829.99 458.408 1827.86 459.517C1825.68 460.627 1823.16 461.181 1820.3 461.181C1818.98 461.181 1817.59 461.053 1816.14 460.797ZM1816.27 432.957C1815.16 432.787 1814.35 432.701 1813.84 432.701C1811.32 432.701 1809.36 433.448 1807.95 434.941C1806.54 436.392 1805.84 438.227 1805.84 440.445C1805.84 442.109 1806.25 443.731 1807.06 445.309C1807.87 446.845 1809.06 448.189 1810.64 449.341C1812.18 450.493 1814.01 451.261 1816.14 451.645C1816.95 451.773 1817.72 451.837 1818.45 451.837C1821.01 451.837 1823.03 451.112 1824.53 449.661C1825.98 448.211 1826.7 446.376 1826.7 444.157C1826.7 442.493 1826.3 440.872 1825.49 439.293C1824.63 437.715 1823.42 436.371 1821.84 435.261C1820.26 434.109 1818.41 433.341 1816.27 432.957ZM1786.64 400.91L1834 409.294V418.318L1786.64 409.934V400.91ZM1816.27 399.61C1812.6 398.97 1809.4 397.668 1806.67 395.706C1803.9 393.743 1801.77 391.311 1800.27 388.41C1798.74 385.466 1797.97 382.287 1797.97 378.874C1797.97 374.479 1799.06 371.044 1801.23 368.57C1803.41 366.052 1806.5 364.644 1810.51 364.346V374.01C1808.98 374.266 1807.78 374.927 1806.93 375.994C1806.03 377.06 1805.58 378.49 1805.58 380.282C1805.58 382.842 1806.52 385.039 1808.4 386.874C1810.23 388.666 1812.86 389.86 1816.27 390.458C1817.47 390.671 1818.49 390.778 1819.34 390.778C1821.78 390.778 1823.65 390.18 1824.98 388.986C1826.26 387.791 1826.9 386.127 1826.9 383.994C1826.9 380.41 1825.27 377.764 1822.03 376.058L1822.03 366.394C1825.87 368.058 1828.92 370.554 1831.18 373.882C1833.45 377.167 1834.58 380.964 1834.58 385.274C1834.58 389.754 1833.32 393.338 1830.8 396.026C1828.24 398.671 1824.78 399.994 1820.43 399.994C1819.11 399.994 1817.72 399.866 1816.27 399.61ZM1834.58 346.134C1834.58 349.163 1833.96 351.851 1832.72 354.198C1831.48 356.502 1829.73 358.294 1827.47 359.574C1825.21 360.854 1822.61 361.494 1819.66 361.494C1815.65 361.494 1812.01 360.555 1808.72 358.678C1805.39 356.758 1802.77 354.155 1800.85 350.87C1798.93 347.542 1797.97 343.851 1797.97 339.798C1797.97 336.768 1798.61 334.08 1799.89 331.734C1801.13 329.344 1802.87 327.51 1805.14 326.23C1807.4 324.907 1810 324.246 1812.94 324.246C1817 324.246 1820.67 325.206 1823.95 327.126C1827.24 329.046 1829.84 331.691 1831.76 335.062C1833.64 338.39 1834.58 342.08 1834.58 346.134ZM1826.9 344.918C1826.9 342.784 1826.28 340.843 1825.04 339.094C1823.8 337.344 1822.16 335.979 1820.11 334.998C1818.06 334.016 1815.91 333.526 1813.65 333.526C1811.09 333.526 1809.13 334.251 1807.76 335.702C1806.35 337.11 1805.65 338.902 1805.65 341.078C1805.65 343.254 1806.27 345.195 1807.5 346.902C1808.74 348.566 1810.41 349.867 1812.5 350.806C1814.54 351.744 1816.72 352.214 1819.02 352.214C1821.54 352.214 1823.48 351.552 1824.85 350.23C1826.21 348.864 1826.9 347.094 1826.9 344.918Z" fill="#141414"/>
</svg>
