<?xml version="1.0" standalone="no"?>
<!DOCTYPE svg PUBLIC "-//W3C//DTD SVG 1.1//EN" "http://www.w3.org/Graphics/SVG/1.1/DTD/svg11.dtd">
<svg xmlns="http://www.w3.org/2000/svg" width="75" height="164" viewBox="0 0 75 164" fill="none">
<path fill-rule="evenodd" clip-rule="evenodd" d="M47.5409 51.0554C46.4329 36.2493 45.6164 28.1182 43.7917 13.909C45.1696 11.3666 44.7503 9.6141 43.2561 6.26899L44.5951 4.1614C45.0544 3.3873 45.0329 2.98596 44.5951 2.31725C43.1689 1.45487 42.3442 1.16882 40.8458 1H33.6151C32.007 1.17282 31.2335 1.44533 30.1336 2.31725C29.8108 3.14026 29.7953 3.5491 30.1336 4.1614L31.4727 6.26899C29.6829 9.50105 29.4337 11.1944 30.937 13.909C28.8811 28.3382 28.0742 36.4733 27.1878 51.0554L26.645 57.4484C32.1223 57.0394 34.3419 57.822 37.5 60.1688C41.0391 58.0339 43.2832 57.3056 48.0837 57.4484L47.5409 51.0554ZM1 145.997C1.10206 139.435 7.59122 125.385 26.1022 89.1411H31.2584C31.6315 90.9675 32.7524 90.9011 35.329 90.0932C34.3711 91.7405 33.6612 92.4428 32.3439 93.6297L34.922 95.398C36.4139 93.2833 36.9454 92.0577 37.5 89.8212C38.145 92.1462 38.7488 93.3639 40.2138 95.398L43.1989 93.6297C41.3603 92.245 40.6967 91.4712 39.8067 90.0932C42.7171 91.0418 43.8809 91.0412 44.2844 89.1411H49.0335C51.5056 94.0969 53.8797 98.7417 56.1171 103.119C65.1658 120.822 71.9786 134.151 74 145.997H55.4108L47.1339 108.864C46.9995 108.307 46.8251 108.048 45.9127 107.912C45.2535 108.08 44.9644 108.244 44.8272 108.864V109.68L52.8328 145.997H22.1673L30.1729 109.68L30.3086 108.864C30.1996 108.264 29.9 108.076 29.0874 107.912C28.4397 108.075 28.1368 108.24 27.8662 108.864L19.4536 145.997H1ZM18.2324 156.367C18.6399 158.134 19.3449 158.923 20.927 160.194C24.6407 161.954 26.8275 162.556 30.8972 163H42.4842C47.5219 162.575 49.9648 161.983 53.5322 160.194C55.1367 158.909 55.7835 158.069 56.4963 156.367V148.446H18.2324V156.367ZM31.3941 86.6927H25.4238L17.554 70.6424C19.9744 61.4002 23.178 59.0728 32.0725 59.8968C34.3653 60.587 35.5965 61.1238 37.5001 62.8892C39.1116 61.2258 40.2816 60.7386 42.3848 59.8968C50.2767 59.2611 54.0237 60.492 57.3105 70.6424L49.5763 86.6927H44.0131V85.1965C43.4623 83.6749 42.8145 83.5448 41.1636 84.3804L38.1785 86.1487H36.9573L34.1079 84.3804C32.3586 83.622 31.7009 83.6998 31.3941 85.1965V86.6927Z" fill="#FFA507"/>
<path d="M43.7917 13.909L43.3521 13.6708L43.2752 13.8127L43.2957 13.9727L43.7917 13.909ZM47.5409 51.0554L47.0423 51.0927L47.0427 51.0977L47.5409 51.0554ZM43.2561 6.26899L42.834 6.00086L42.69 6.22763L42.7995 6.47292L43.2561 6.26899ZM44.5951 4.1614L45.0171 4.42952L45.0212 4.4231L45.0251 4.41656L44.5951 4.1614ZM44.5951 2.31725L45.0134 2.04335L44.9511 1.94822L44.8538 1.88939L44.5951 2.31725ZM40.8458 1L40.9018 0.503144L40.8739 0.5H40.8458V1ZM33.6151 1V0.5H33.5883L33.5617 0.502863L33.6151 1ZM30.1336 2.31725L29.823 1.92543L29.7174 2.00917L29.6682 2.13465L30.1336 2.31725ZM30.1336 4.1614L29.696 4.40322L29.7034 4.41661L29.7116 4.42952L30.1336 4.1614ZM31.4727 6.26899L31.9101 6.51121L32.0539 6.25147L31.8947 6.00086L31.4727 6.26899ZM30.937 13.909L31.432 13.9796L31.4557 13.8135L31.3745 13.6668L30.937 13.909ZM27.1878 51.0554L27.6861 51.0977L27.6869 51.0858L27.1878 51.0554ZM26.645 57.4484L26.1468 57.4061L26.0972 57.9907L26.6823 57.947L26.645 57.4484ZM37.5 60.1688L37.2018 60.5701L37.4711 60.7702L37.7583 60.5969L37.5 60.1688ZM48.0837 57.4484L48.0688 57.9481L48.6293 57.9648L48.5819 57.4061L48.0837 57.4484ZM26.1022 89.1411V88.6411H25.7961L25.6569 88.9136L26.1022 89.1411ZM1 145.997L0.50006 145.99L0.492163 146.497H1V145.997ZM31.2584 89.1411L31.7483 89.041L31.6666 88.6411H31.2584V89.1411ZM35.329 90.0932L35.7613 90.3446L36.4092 89.2305L35.1794 89.6161L35.329 90.0932ZM32.3439 93.6297L32.0092 93.2583L31.5377 93.6831L32.0611 94.042L32.3439 93.6297ZM34.922 95.398L34.6392 95.8103L35.0461 96.0894L35.3305 95.6862L34.922 95.398ZM37.5 89.8212L37.9819 89.6875L37.473 87.853L37.0147 89.7008L37.5 89.8212ZM40.2138 95.398L39.8081 95.6902L40.0753 96.0612L40.4686 95.8282L40.2138 95.398ZM43.1989 93.6297L43.4538 94.0599L44.0961 93.6794L43.4997 93.2303L43.1989 93.6297ZM39.8067 90.0932L39.9617 89.6178L38.6226 89.1813L39.3867 90.3645L39.8067 90.0932ZM44.2844 89.1411V88.6411H43.8795L43.7953 89.0372L44.2844 89.1411ZM49.0335 89.1411L49.4809 88.9179L49.3428 88.6411H49.0335V89.1411ZM56.1171 103.119L56.5623 102.891L56.5623 102.891L56.1171 103.119ZM74 145.997V146.497H74.5925L74.4929 145.913L74 145.997ZM55.4108 145.997L54.9228 146.106L55.01 146.497H55.4108V145.997ZM47.1339 108.864L47.622 108.755L47.6199 108.747L47.1339 108.864ZM45.9127 107.912L45.9863 107.417L45.8866 107.402L45.7889 107.427L45.9127 107.912ZM44.8272 108.864L44.339 108.756L44.3272 108.809V108.864H44.8272ZM44.8272 109.68H44.3272V109.735L44.3389 109.788L44.8272 109.68ZM52.8328 145.997V146.497H53.455L53.321 145.89L52.8328 145.997ZM22.1673 145.997L21.6791 145.89L21.5451 146.497H22.1673V145.997ZM30.1729 109.68L30.6612 109.788L30.664 109.775L30.6661 109.762L30.1729 109.68ZM30.3086 108.864L30.8018 108.946L30.8161 108.86L30.8005 108.775L30.3086 108.864ZM29.0874 107.912L29.1865 107.422L29.0752 107.399L28.9652 107.427L29.0874 107.912ZM27.8662 108.864L27.4075 108.665L27.3889 108.708L27.3786 108.753L27.8662 108.864ZM19.4536 145.997V146.497H19.853L19.9412 146.108L19.4536 145.997ZM20.927 160.194L20.614 160.583L20.6598 160.62L20.7129 160.645L20.927 160.194ZM18.2324 156.367H17.7324V156.424L17.7452 156.479L18.2324 156.367ZM30.8972 163L30.8429 163.497L30.87 163.5H30.8972V163ZM42.4842 163V163.5H42.5052L42.5262 163.498L42.4842 163ZM53.5322 160.194L53.7564 160.641L53.8036 160.617L53.8448 160.584L53.5322 160.194ZM56.4963 156.367L56.9575 156.56L56.9963 156.467V156.367H56.4963ZM56.4963 148.446H56.9963V147.946H56.4963V148.446ZM18.2324 148.446V147.946H17.7324V148.446H18.2324ZM25.4238 86.6927L24.9749 86.9129L25.1121 87.1927H25.4238V86.6927ZM31.3941 86.6927V87.1927H31.8941V86.6927H31.3941ZM17.554 70.6424L17.0703 70.5157L17.0232 70.6955L17.105 70.8625L17.554 70.6424ZM32.0725 59.8968L32.2167 59.418L32.1686 59.4035L32.1187 59.3989L32.0725 59.8968ZM37.5001 62.8892L37.1601 63.2558L37.5188 63.5884L37.8592 63.2371L37.5001 62.8892ZM42.3848 59.8968L42.3447 59.3984L42.2692 59.4045L42.199 59.4326L42.3848 59.8968ZM57.3105 70.6424L57.7609 70.8594L57.8479 70.6789L57.7861 70.4883L57.3105 70.6424ZM49.5763 86.6927V87.1927H49.8903L50.0267 86.9098L49.5763 86.6927ZM44.0131 86.6927H43.5131V87.1927H44.0131V86.6927ZM44.0131 85.1965H44.5131V85.1088L44.4832 85.0264L44.0131 85.1965ZM41.1636 84.3804L40.9378 83.9343L40.923 83.9418L40.9088 83.9502L41.1636 84.3804ZM38.1785 86.1487V86.6487H38.3155L38.4333 86.5788L38.1785 86.1487ZM36.9573 86.1487L36.6937 86.5735L36.8148 86.6487H36.9573V86.1487ZM34.1079 84.3804L34.3715 83.9556L34.3404 83.9362L34.3068 83.9217L34.1079 84.3804ZM31.3941 85.1965L30.9043 85.0961L30.8941 85.1458V85.1965H31.3941ZM43.2957 13.9727C45.1193 28.1727 45.9349 36.2949 47.0423 51.0927L48.0395 51.0181C46.9309 36.2036 46.1135 28.0638 44.2876 13.8453L43.2957 13.9727ZM42.7995 6.47292C43.5465 8.14515 43.9931 9.35437 44.1035 10.4406C44.2109 11.4969 44.0025 12.4707 43.3521 13.6708L44.2313 14.1473C44.9587 12.805 45.2297 11.6312 45.0984 10.3395C44.9701 9.07753 44.4599 7.73795 43.7126 6.06506L42.7995 6.47292ZM44.1731 3.89327L42.834 6.00086L43.6781 6.53712L45.0171 4.42952L44.1731 3.89327ZM44.1768 2.59115C44.3775 2.89773 44.4302 3.06715 44.4316 3.20459C44.4329 3.3473 44.3796 3.54472 44.1651 3.90624L45.0251 4.41656C45.2699 4.00397 45.4355 3.61367 45.4315 3.19502C45.4275 2.77108 45.2505 2.40548 45.0134 2.04335L44.1768 2.59115ZM40.7898 1.49686C41.5172 1.57881 42.058 1.68665 42.5821 1.87039C43.1082 2.0548 43.6379 2.32274 44.3364 2.74511L44.8538 1.88939C44.1261 1.44937 43.5303 1.1431 42.9129 0.926688C42.2936 0.709602 41.6729 0.590017 40.9018 0.503144L40.7898 1.49686ZM33.6151 1.5H40.8458V0.5H33.6151V1.5ZM30.4442 2.70906C30.9675 2.29427 31.3904 2.03985 31.8588 1.86484C32.333 1.68766 32.8803 1.58185 33.6685 1.49714L33.5617 0.502863C32.7418 0.590973 32.0983 0.707826 31.5088 0.928087C30.9135 1.15051 30.3996 1.46831 29.823 1.92543L30.4442 2.70906ZM30.5713 3.91957C30.4285 3.66127 30.3845 3.49117 30.3857 3.32178C30.387 3.13483 30.4433 2.8969 30.5991 2.49985L29.6682 2.13465C29.5011 2.5606 29.3883 2.9386 29.3857 3.3149C29.383 3.70876 29.5004 4.04923 29.696 4.40322L30.5713 3.91957ZM31.8947 6.00086L30.5557 3.89327L29.7116 4.42952L31.0506 6.53712L31.8947 6.00086ZM31.3745 13.6668C30.6511 12.3605 30.3812 11.3591 30.4682 10.3249C30.557 9.26902 31.0218 8.11526 31.9101 6.51121L31.0352 6.02677C30.1337 7.65478 29.5791 8.9637 29.4717 10.2411C29.3624 11.5404 29.7197 12.7429 30.4996 14.1513L31.3745 13.6668ZM27.6869 51.0858C28.5725 36.5165 29.3781 28.3949 31.432 13.9796L30.442 13.8385C28.3842 28.2816 27.5759 36.4301 26.6887 51.0251L27.6869 51.0858ZM27.1432 57.4907L27.686 51.0977L26.6896 51.0131L26.1468 57.4061L27.1432 57.4907ZM37.7983 59.7674C36.1948 58.5759 34.792 57.7531 33.0716 57.2922C31.3587 56.8333 29.3702 56.7435 26.6078 56.9498L26.6823 57.947C29.3972 57.7442 31.2571 57.8413 32.8128 58.2581C34.3611 58.6729 35.6472 59.4149 37.2018 60.5701L37.7983 59.7674ZM48.0985 56.9486C45.6717 56.8764 43.8571 57.0231 42.189 57.4716C40.5206 57.9202 39.0288 58.6626 37.2418 59.7406L37.7583 60.5969C39.5103 59.54 40.9102 58.8509 42.4486 58.4373C43.9874 58.0236 45.6951 57.8776 48.0688 57.9481L48.0985 56.9486ZM47.0427 51.0977L47.5855 57.4907L48.5819 57.4061L48.0391 51.0131L47.0427 51.0977ZM25.6569 88.9136C16.4021 107.035 10.1461 119.619 6.19104 128.497C2.24777 137.347 0.552922 142.591 0.50006 145.99L1.49994 146.005C1.54914 142.842 3.1499 137.779 7.10448 128.903C11.0472 120.054 17.2914 107.492 26.5475 89.3685L25.6569 88.9136ZM31.2584 88.6411H26.1022V89.6411H31.2584V88.6411ZM35.1794 89.6161C34.5398 89.8167 34.0084 89.9654 33.5637 90.0512C33.1151 90.1377 32.79 90.1528 32.5515 90.1122C32.3302 90.0744 32.1867 89.9899 32.074 89.8544C31.9497 89.7047 31.8331 89.4562 31.7483 89.041L30.7685 89.2411C30.8703 89.7392 31.0337 90.1672 31.305 90.4936C31.5879 90.834 31.9557 91.0249 32.3833 91.0979C32.7938 91.1679 33.2553 91.1291 33.7532 91.0331C34.255 90.9363 34.8299 90.7737 35.4786 90.5703L35.1794 89.6161ZM32.6786 94.0012C34.015 92.797 34.7667 92.0548 35.7613 90.3446L34.8968 89.8418C33.9754 91.4262 33.3074 92.0886 32.0092 93.2583L32.6786 94.0012ZM35.2048 94.9856L32.6267 93.2174L32.0611 94.042L34.6392 95.8103L35.2048 94.9856ZM37.0147 89.7008C36.4751 91.8771 35.9696 93.0458 34.5134 95.1097L35.3305 95.6862C36.8582 93.5208 37.4158 92.2384 37.9854 89.9415L37.0147 89.7008ZM40.6195 95.1058C39.1863 93.1158 38.6098 91.9513 37.9819 89.6875L37.0182 89.9548C37.6802 92.3412 38.3113 93.612 39.8081 95.6902L40.6195 95.1058ZM42.9441 93.1995L39.959 94.9678L40.4686 95.8282L43.4538 94.0599L42.9441 93.1995ZM39.3867 90.3645C40.3106 91.795 41.0156 92.6114 42.8981 94.0291L43.4997 93.2303C41.705 91.8786 41.0828 91.1474 40.2268 89.8219L39.3867 90.3645ZM43.7953 89.0372C43.7031 89.4717 43.5784 89.739 43.4404 89.9039C43.3142 90.0547 43.1517 90.1503 42.9024 90.1924C42.636 90.2374 42.2735 90.2199 41.7743 90.1213C41.2792 90.0235 40.6832 89.853 39.9617 89.6178L39.6518 90.5686C40.3855 90.8077 41.0263 90.9929 41.5805 91.1024C42.1308 91.2111 42.6301 91.2525 43.0689 91.1784C43.5248 91.1014 43.9108 90.8999 44.2072 90.5458C44.4919 90.2058 44.664 89.7604 44.7735 89.2449L43.7953 89.0372ZM49.0335 88.6411H44.2844V89.6411H49.0335V88.6411ZM56.5623 102.891C54.3248 98.5139 51.9518 93.8712 49.4809 88.9179L48.586 89.3642C51.0595 94.3226 53.4346 98.9695 55.6719 103.347L56.5623 102.891ZM74.4929 145.913C72.4556 133.974 65.5968 120.567 56.5623 102.891L55.6719 103.347C64.7348 121.077 71.5016 134.328 73.5071 146.082L74.4929 145.913ZM55.4108 146.497H74V145.497H55.4108V146.497ZM46.6458 108.973L54.9228 146.106L55.8988 145.889L47.6219 108.755L46.6458 108.973ZM45.8391 108.406C46.2726 108.471 46.4246 108.553 46.4873 108.607C46.5369 108.65 46.585 108.721 46.6478 108.981L47.6199 108.747C47.5484 108.45 47.4421 108.112 47.1427 107.852C46.8565 107.604 46.4651 107.489 45.9863 107.417L45.8391 108.406ZM45.3154 108.972C45.3693 108.728 45.4347 108.651 45.4893 108.607C45.5685 108.543 45.709 108.48 46.0365 108.396L45.7889 107.427C45.4571 107.512 45.1235 107.616 44.859 107.83C44.57 108.065 44.4223 108.38 44.339 108.756L45.3154 108.972ZM45.3272 109.68V108.864H44.3272V109.68H45.3272ZM53.321 145.89L45.3155 109.572L44.3389 109.788L52.3445 146.105L53.321 145.89ZM22.1673 146.497H52.8328V145.497H22.1673V146.497ZM29.6846 109.572L21.6791 145.89L22.6556 146.105L30.6612 109.788L29.6846 109.572ZM29.8154 108.782L29.6797 109.598L30.6661 109.762L30.8018 108.946L29.8154 108.782ZM28.9884 108.402C29.3909 108.483 29.5695 108.555 29.6619 108.625C29.7189 108.667 29.7763 108.731 29.8167 108.953L30.8005 108.775C30.7319 108.397 30.585 108.067 30.2618 107.825C29.9741 107.609 29.5965 107.505 29.1865 107.422L28.9884 108.402ZM28.3249 109.063C28.439 108.8 28.5359 108.688 28.631 108.619C28.7387 108.54 28.8955 108.476 29.2097 108.397L28.9652 107.427C28.6316 107.511 28.3131 107.612 28.0398 107.812C27.7538 108.022 27.5641 108.304 27.4075 108.665L28.3249 109.063ZM19.9412 146.108L28.3539 108.974L27.3786 108.753L18.9659 145.887L19.9412 146.108ZM1 146.497H19.4536V145.497H1V146.497ZM21.2401 159.804C20.4542 159.173 19.9259 158.692 19.5419 158.17C19.1659 157.66 18.9116 157.087 18.7196 156.254L17.7452 156.479C17.9607 157.414 18.2627 158.119 18.7367 158.763C19.2025 159.396 19.8178 159.944 20.614 160.583L21.2401 159.804ZM30.9515 162.503C26.9357 162.064 24.803 161.477 21.1412 159.742L20.7129 160.645C24.4784 162.43 26.7194 163.047 30.8429 163.497L30.9515 162.503ZM42.4842 162.5H30.8972V163.5H42.4842V162.5ZM53.308 159.747C49.8132 161.5 47.4366 162.081 42.4422 162.502L42.5262 163.498C47.6072 163.07 50.1165 162.467 53.7564 160.641L53.308 159.747ZM56.0351 156.174C55.6886 157.001 55.3686 157.594 54.9532 158.131C54.5362 158.67 54.0074 159.173 53.2197 159.803L53.8448 160.584C54.6616 159.93 55.2584 159.37 55.7441 158.743C56.2315 158.113 56.5913 157.434 56.9575 156.56L56.0351 156.174ZM55.9963 148.446V156.367H56.9963V148.446H55.9963ZM18.2324 148.946H56.4963V147.946H18.2324V148.946ZM18.7324 156.367V148.446H17.7324V156.367H18.7324ZM25.4238 87.1927H31.3941V86.1927H25.4238V87.1927ZM17.105 70.8625L24.9749 86.9129L25.8728 86.4726L18.0029 70.4222L17.105 70.8625ZM32.1187 59.3989C27.6454 58.9845 24.4596 59.3435 22.0887 61.0924C19.7257 62.8355 18.2849 65.8778 17.0703 70.5157L18.0377 70.769C19.2434 66.1648 20.6146 63.4224 22.6823 61.8972C24.7419 60.3779 27.6052 59.9851 32.0264 60.3946L32.1187 59.3989ZM37.8401 62.5226C36.8662 61.6194 36.0473 61.0149 35.1664 60.548C34.2896 60.0832 33.3705 59.7653 32.2167 59.418L31.9284 60.3755C33.0674 60.7184 33.9103 61.014 34.6981 61.4316C35.4818 61.8469 36.2304 62.3936 37.1601 63.2558L37.8401 62.5226ZM42.199 59.4326C40.0815 60.2802 38.8289 60.799 37.1409 62.5413L37.8592 63.2371C39.3942 61.6527 40.4817 61.1971 42.5706 60.361L42.199 59.4326ZM57.7861 70.4883C56.1343 65.3869 54.3306 62.3985 51.8445 60.8039C49.3587 59.2096 46.2974 59.08 42.3447 59.3984L42.425 60.3952C46.3641 60.0779 49.1222 60.2459 51.3046 61.6457C53.4867 63.0452 55.1999 65.7475 56.8348 70.7964L57.7861 70.4883ZM50.0267 86.9098L57.7609 70.8594L56.86 70.4253L49.1258 86.4757L50.0267 86.9098ZM44.0131 87.1927H49.5763V86.1927H44.0131V87.1927ZM43.5131 85.1965V86.6927H44.5131V85.1965H43.5131ZM41.3894 84.8265C41.7903 84.6236 42.1052 84.4926 42.3584 84.4241C42.6109 84.3558 42.7675 84.3594 42.8703 84.3872C43.047 84.435 43.2723 84.6191 43.5429 85.3667L44.4832 85.0264C44.2031 84.2524 43.8291 83.6107 43.1315 83.4219C42.7971 83.3314 42.4478 83.364 42.0973 83.4588C41.7476 83.5534 41.3624 83.7194 40.9378 83.9343L41.3894 84.8265ZM38.4333 86.5788L41.4184 84.8106L40.9088 83.9502L37.9237 85.7185L38.4333 86.5788ZM36.9573 86.6487H38.1785V85.6487H36.9573V86.6487ZM33.8442 84.8052L36.6937 86.5735L37.2209 85.7238L34.3715 83.9556L33.8442 84.8052ZM31.8839 85.2969C32.0328 84.5706 32.2195 84.4576 32.3382 84.4261C32.4342 84.4006 32.5963 84.3966 32.8709 84.4633C33.142 84.5293 33.4806 84.6534 33.909 84.8391L34.3068 83.9217C33.8605 83.7282 33.4609 83.5776 33.1071 83.4916C32.7568 83.4065 32.4073 83.3732 32.0819 83.4595C31.3577 83.6515 31.0622 84.3257 30.9043 85.0961L31.8839 85.2969ZM31.8941 86.6927V85.1965H30.8941V86.6927H31.8941Z" fill="#FFA507"/>
</svg>