<?xml version="1.0" standalone="no"?>
<!DOCTYPE svg PUBLIC "-//W3C//DTD SVG 1.1//EN" "http://www.w3.org/Graphics/SVG/1.1/DTD/svg11.dtd">
<svg xmlns="http://www.w3.org/2000/svg" width="42" height="163" viewBox="0 0 42 163" fill="none">
<path fill-rule="evenodd" clip-rule="evenodd" d="M10.6 52.2211C18.8204 47.8861 23.3753 47.7971 31.4 52.2211C30.2676 37.0702 29.4332 28.7498 27.5684 14.2097C28.9765 11.608 28.5481 9.81471 27.021 6.3917L28.3895 4.23502C28.8589 3.44289 28.8369 3.03221 28.3895 2.34792C26.9319 1.46546 26.0892 1.17275 24.5579 1H17.1684C15.5251 1.17685 14.7345 1.4557 13.6105 2.34792C13.2806 3.1901 13.2647 3.60846 13.6105 4.23502L14.9789 6.3917C13.1499 9.69902 12.8952 11.4318 14.4316 14.2097C12.3305 28.9749 11.5058 37.2994 10.6 52.2211ZM26.0704 68.717L32.2676 60.2244L38.1831 66.8593C39.9006 69.6584 40.5933 71.3634 41 74.8211V155.766C40.2549 157.537 39.5787 158.411 37.9014 159.747C34.1721 161.609 31.6184 162.225 26.3521 162.667H14.2394C9.9851 162.204 7.69906 161.578 3.8169 159.747C2.16303 158.426 1.42601 157.605 1 155.766V95.5219L1.28169 74.8211C1.51632 71.3369 1.99388 69.5851 3.53521 66.8593L9.73239 60.2244L15.9296 68.717H26.0704ZM24.3803 71.9018H17.9014C16.6202 72.182 16.1604 72.5116 15.9296 73.4941L10.2958 135.596L21 146.212L31.7042 135.596L26.0704 73.4941C26.0684 72.4995 25.6328 72.1879 24.3803 71.9018Z" fill="#FFA507"/>
<path d="M31.4 52.2211L31.2793 52.4401L31.6837 52.663L31.6493 52.2025L31.4 52.2211ZM10.6 52.2211L10.3504 52.206L10.3235 52.6495L10.7166 52.4423L10.6 52.2211ZM27.5684 14.2097L27.3485 14.0907L27.3102 14.1615L27.3204 14.2415L27.5684 14.2097ZM27.021 6.3917L26.8099 6.25776L26.7381 6.37104L26.7927 6.49355L27.021 6.3917ZM28.3895 4.23502L28.6007 4.36902L28.6045 4.36248L28.3895 4.23502ZM28.3895 2.34792L28.5987 2.2111L28.5676 2.16352L28.5189 2.13407L28.3895 2.34792ZM24.5579 1L24.5859 0.751576L24.5719 0.75H24.5579V1ZM17.1684 1V0.75H17.155L17.1417 0.751435L17.1684 1ZM13.6105 2.34792L13.4551 2.15212L13.4023 2.194L13.3777 2.25673L13.6105 2.34792ZM13.6105 4.23502L13.3916 4.35581L13.3953 4.3625L13.3994 4.36896L13.6105 4.23502ZM14.9789 6.3917L15.1977 6.51269L15.2695 6.38294L15.19 6.25776L14.9789 6.3917ZM14.4316 14.2097L14.6791 14.2449L14.6909 14.162L14.6503 14.0887L14.4316 14.2097ZM32.2676 60.2244L32.4542 60.058L32.2482 59.8269L32.0657 60.077L32.2676 60.2244ZM26.0704 68.717V68.967H26.1975L26.2724 68.8644L26.0704 68.717ZM38.1831 66.8593L38.3962 66.7285L38.3845 66.7095L38.3697 66.6929L38.1831 66.8593ZM41 74.8211H41.25V74.8065L41.2483 74.7919L41 74.8211ZM41 155.766L41.2304 155.863L41.25 155.817V155.766H41ZM37.9014 159.747L38.0131 159.971L38.0366 159.959L38.0572 159.943L37.9014 159.747ZM26.3521 162.667V162.917H26.3626L26.373 162.916L26.3521 162.667ZM14.2394 162.667L14.2124 162.915L14.2259 162.917H14.2394V162.667ZM3.8169 159.747L3.66084 159.943L3.68375 159.961L3.71027 159.973L3.8169 159.747ZM1 155.766H0.75V155.795L0.756454 155.823L1 155.766ZM1 95.5219L0.75 95.5185V95.5219H1ZM1.28169 74.8211L1.03189 74.8043L1.03171 74.8177L1.28169 74.8211ZM3.53521 66.8593L3.35251 66.6886L3.33222 66.7103L3.31759 66.7362L3.53521 66.8593ZM9.73239 60.2244L9.93434 60.077L9.7561 59.8328L9.54969 60.0538L9.73239 60.2244ZM15.9296 68.717L15.7276 68.8644L15.8025 68.967H15.9296V68.717ZM17.9014 71.9018V71.6518H17.8744L17.848 71.6575L17.9014 71.9018ZM24.3803 71.9018L24.436 71.658L24.4085 71.6518H24.3803V71.9018ZM15.9296 73.4941L15.6862 73.437L15.6822 73.4541L15.6806 73.4715L15.9296 73.4941ZM10.2958 135.596L10.0468 135.574L10.0362 135.691L10.1197 135.774L10.2958 135.596ZM21 146.212L20.824 146.39L21 146.564L21.176 146.39L21 146.212ZM31.7042 135.596L31.8803 135.774L31.9638 135.691L31.9532 135.574L31.7042 135.596ZM26.0704 73.4941L25.8204 73.4946L25.8204 73.5057L25.8214 73.5167L26.0704 73.4941ZM31.5207 52.0022C27.4926 49.7815 24.3035 48.6751 21.0725 48.6865C17.8431 48.6978 14.6064 49.8257 10.4834 52L10.7166 52.4423C14.814 50.2815 17.965 49.1974 21.0743 49.1865C24.182 49.1756 27.2827 50.2367 31.2793 52.4401L31.5207 52.0022ZM27.3204 14.2415C29.1846 28.777 30.0186 37.093 31.1507 52.2398L31.6493 52.2025C30.5166 37.0474 29.6818 28.7226 27.8164 14.1779L27.3204 14.2415ZM26.7927 6.49355C27.5562 8.20489 28.0292 9.47641 28.1467 10.6339C28.2627 11.7766 28.0334 12.8254 27.3485 14.0907L27.7883 14.3287C28.5116 12.9923 28.7721 11.8436 28.6442 10.5834C28.5177 9.33816 28.013 8.00152 27.2494 6.28984L26.7927 6.49355ZM28.1784 4.10108L26.8099 6.25776L27.2321 6.52564L28.6006 4.36896L28.1784 4.10108ZM28.1802 2.48475C28.3949 2.81299 28.4813 3.03773 28.4833 3.25342C28.4854 3.47175 28.4015 3.72428 28.1744 4.10756L28.6045 4.36248C28.8468 3.95364 28.9867 3.60476 28.9833 3.24864C28.9799 2.88989 28.8315 2.56714 28.5987 2.2111L28.1802 2.48475ZM24.5299 1.24842C25.2846 1.33357 25.8581 1.44699 26.4185 1.64371C26.98 1.84077 27.5385 2.12496 28.26 2.56178L28.5189 2.13407C27.7829 1.68842 27.1913 1.38503 26.5841 1.17193C25.976 0.958494 25.3625 0.839187 24.5859 0.751576L24.5299 1.24842ZM17.1684 1.25H24.5579V0.75H17.1684V1.25ZM13.7659 2.54373C14.3146 2.10821 14.7705 1.83132 15.2823 1.63985C15.797 1.4473 16.3814 1.33614 17.1952 1.24856L17.1417 0.751435C16.3121 0.840711 15.6795 0.957404 15.1071 1.17155C14.5318 1.38677 14.0304 1.69542 13.4551 2.15212L13.7659 2.54373ZM13.8294 4.11422C13.6697 3.82487 13.6055 3.60619 13.6071 3.37405C13.6088 3.13314 13.6811 2.85298 13.8433 2.43912L13.3777 2.25673C13.2099 2.68504 13.1094 3.03515 13.1071 3.37061C13.1048 3.71484 13.2055 4.01861 13.3916 4.35581L13.8294 4.11422ZM15.19 6.25776L13.8216 4.10108L13.3994 4.36896L14.7678 6.52564L15.19 6.25776ZM14.6503 14.0887C13.8963 12.7253 13.5976 11.6478 13.6923 10.5201C13.788 9.38162 14.2865 8.16035 15.1977 6.51269L14.7602 6.27071C13.8423 7.93037 13.299 9.22914 13.1941 10.4783C13.0883 11.7383 13.4305 12.9162 14.2128 14.3307L14.6503 14.0887ZM10.8495 52.2363C11.755 37.321 12.579 29.0032 14.6791 14.2449L14.1841 14.1744C12.082 28.9466 11.2567 37.2778 10.3504 52.206L10.8495 52.2363ZM32.0657 60.077L25.8685 68.5697L26.2724 68.8644L32.4696 60.3718L32.0657 60.077ZM38.3697 66.6929L32.4542 60.058L32.081 60.3908L37.9965 67.0256L38.3697 66.6929ZM41.2483 74.7919C41.0435 73.0511 40.7655 71.7402 40.3181 70.5079C39.871 69.2765 39.2586 68.134 38.3962 66.7285L37.97 66.99C38.8251 68.3837 39.4178 69.4932 39.8481 70.6786C40.2781 71.863 40.5498 73.1334 40.7517 74.8503L41.2483 74.7919ZM41.25 155.766V74.8211H40.75V155.766H41.25ZM38.0572 159.943C38.9031 159.269 39.5086 158.702 39.9976 158.073C40.4876 157.443 40.8529 156.76 41.2304 155.863L40.7696 155.669C40.402 156.543 40.0567 157.183 39.6029 157.766C39.1483 158.351 38.577 158.889 37.7456 159.552L38.0572 159.943ZM26.373 162.916C31.6608 162.472 34.2476 161.851 38.0131 159.971L37.7897 159.524C34.0967 161.367 31.576 161.977 26.3312 162.418L26.373 162.916ZM14.2394 162.917H26.3521V162.417H14.2394V162.917ZM3.71027 159.973C7.61826 161.816 9.93129 162.45 14.2124 162.915L14.2664 162.418C10.0389 161.959 7.77986 161.34 3.92353 159.521L3.71027 159.973ZM0.756454 155.823C0.975384 156.768 1.27817 157.466 1.74705 158.099C2.21181 158.727 2.83137 159.28 3.66084 159.943L3.97296 159.552C3.14856 158.893 2.57267 158.374 2.14895 157.802C1.72935 157.235 1.45063 156.604 1.24355 155.71L0.756454 155.823ZM0.75 95.5219V155.766H1.25V95.5219H0.75ZM1.03171 74.8177L0.750023 95.5185L1.24998 95.5253L1.53167 74.8245L1.03171 74.8177ZM3.31759 66.7362C2.54074 68.1101 2.0263 69.2485 1.67777 70.4881C1.32969 71.7261 1.15008 73.0545 1.03225 74.8043L1.53112 74.8379C1.64793 73.1034 1.82442 71.8138 2.15911 70.6234C2.49335 69.4346 2.98835 68.3343 3.75283 66.9823L3.31759 66.7362ZM9.54969 60.0538L3.35251 66.6886L3.71791 67.0299L9.91509 60.3951L9.54969 60.0538ZM16.1315 68.5697L9.93434 60.077L9.53044 60.3718L15.7276 68.8644L16.1315 68.5697ZM26.0704 68.467H15.9296V68.967H26.0704V68.467ZM17.9014 72.1518H24.3803V71.6518H17.9014V72.1518ZM16.173 73.5513C16.2809 73.0916 16.4327 72.8235 16.6766 72.6307C16.9329 72.4282 17.3195 72.285 17.9548 72.146L17.848 71.6575C17.2021 71.7988 16.7182 71.9605 16.3666 72.2385C16.0025 72.5262 15.809 72.9142 15.6862 73.437L16.173 73.5513ZM10.5448 135.619L16.1786 73.5167L15.6806 73.4715L10.0468 135.574L10.5448 135.619ZM21.176 146.035L10.4718 135.419L10.1197 135.774L20.824 146.39L21.176 146.035ZM31.5282 135.419L20.824 146.035L21.176 146.39L31.8803 135.774L31.5282 135.419ZM25.8214 73.5167L31.4552 135.619L31.9532 135.574L26.3194 73.4715L25.8214 73.5167ZM24.3246 72.1455C24.9515 72.2887 25.3147 72.4279 25.5275 72.6185C25.7196 72.7906 25.8195 73.0344 25.8204 73.4946L26.3204 73.4936C26.3194 72.9593 26.2005 72.55 25.8611 72.2461C25.5425 71.9607 25.0616 71.801 24.436 71.658L24.3246 72.1455Z" fill="#FFA507"/>
</svg>