<svg width="476" height="151" viewBox="0 0 476 151" fill="none" xmlns="http://www.w3.org/2000/svg">
<path d="M0 1C0 1 2.26624 1 5.66061 1C7.35779 1 9.34449 1 11.471 1C13.5974 1 15.8637 1 18.1299 1C20.3961 1 22.6524 1 24.7889 1C26.9153 1 28.892 1 30.5892 1C33.9836 1 36.2698 1 36.2698 1C36.2698 1 36.2498 2.37057 36.2498 4.46103C36.2498 6.5515 36.2498 9.33417 36.2498 12.1307C36.2598 14.9134 36.2498 17.696 36.2498 19.7865C36.2498 21.877 36.2598 23.2614 36.2598 23.2614C36.2598 23.2614 32.6259 23.3444 28.9919 23.4413C25.3679 23.5244 21.7439 23.6075 21.7439 23.6075C21.7439 23.6075 21.7439 28.979 21.7439 34.3367C21.7439 39.7082 21.7439 45.0659 21.7439 45.0659C21.7439 45.0659 25.1283 44.8997 28.5227 44.7336C31.917 44.5952 35.3114 44.4152 35.3114 44.4152C35.3114 44.4152 35.3214 49.7314 35.3114 55.0198C35.3114 60.336 35.2914 65.6521 35.2914 65.6521C35.2914 65.6521 31.907 65.8875 28.5127 66.109C25.1183 66.3582 21.7239 66.6073 21.7239 66.6073C21.7239 66.6073 21.7239 68.1579 21.7239 70.4837C21.7239 72.8234 21.7239 75.9244 21.714 79.0394C21.714 82.1543 21.714 85.2554 21.704 87.5951C21.714 89.9209 21.704 91.4853 21.704 91.4853C21.704 91.4853 25.6874 91.0838 29.6708 90.6961C33.6641 90.2947 37.6375 89.9209 37.6375 89.9209C37.6375 89.9209 37.6475 91.3191 37.6375 93.4096C37.6276 95.4862 37.6375 98.2689 37.6275 101.052C37.6176 103.848 37.6176 106.617 37.6076 108.707C37.6076 110.798 37.6076 112.182 37.6076 112.182C37.6076 112.182 35.2415 112.459 31.7273 112.874C29.9603 113.082 27.9037 113.345 25.6973 113.622C23.501 113.885 21.1449 114.19 18.7988 114.494C16.4427 114.799 14.0866 115.103 11.8903 115.366C9.68393 115.657 7.62734 115.948 5.87026 116.169C2.34611 116.668 0 117 0 117C0 117 0 115.186 0 112.002C0 110.41 0 108.5 0 106.285C0 104.056 0 101.578 0 98.8642C0 96.1369 0 93.1742 0 90.0593C0 86.9582 0 83.691 0 80.2715C0 76.8935 0 73.3771 0 69.8053C0 66.2336 0 62.6064 0 58.9792C0 55.3521 0 51.7249 0 48.1808C0 44.5952 0 41.0788 0 37.687C0 34.2951 0 31.0002 0 27.8992C0 24.7842 0 21.8216 0 19.122C0 16.3808 0 13.9027 0 11.7015C0 9.48645 0 7.56212 0 5.97004C0 2.78589 0 1 0 1ZM88.0938 1C88.0938 1 87.6046 3.92111 86.8958 8.32355C86.5364 10.5248 86.1171 13.0998 85.6778 15.8548C85.2285 18.6236 84.7593 21.5585 84.2801 24.5073C83.8009 27.47 83.3217 30.4188 82.8725 33.1876C82.4332 35.9564 82.0139 38.5453 81.6445 40.7742C80.9257 45.2043 80.4664 48.1808 80.4664 48.1808C80.4664 48.1808 81.1653 51.8772 82.2335 57.4148C82.7726 60.1698 83.3916 63.3955 84.0605 66.815C84.3899 68.5455 84.7294 70.3314 85.0888 72.1312C85.4282 73.9309 85.7876 75.7583 86.147 77.5996C86.4964 79.427 86.8558 81.2544 87.2053 83.0403C87.5547 84.8262 87.8941 86.6121 88.2236 88.3288C88.8825 91.7345 89.5114 94.9186 90.0406 97.6459C91.0988 103.087 91.8076 106.714 91.8076 106.714C91.8076 106.714 90.5397 106.825 88.6529 107.005C86.776 107.157 84.2602 107.392 81.7443 107.6C79.2185 107.849 76.7027 108.084 74.8158 108.264C72.929 108.43 71.6611 108.555 71.6611 108.555C71.072 105.939 70.483 103.17 69.9239 100.235C69.3449 97.3136 68.7858 94.2402 68.2367 91.0146C67.9772 89.3948 67.7076 87.7473 67.4381 86.0584C67.1685 84.3694 66.9189 82.6527 66.6494 80.8807C66.3898 79.1224 66.1302 77.3227 65.8807 75.4814C65.6311 73.6402 65.3915 71.7574 65.1419 69.8469C65.0021 71.5497 64.8424 73.2802 64.6627 75.0523C64.5129 76.8243 64.3332 78.6241 64.1236 80.4376C63.9439 82.2789 63.7442 84.134 63.5246 86.0168C63.3049 87.8996 63.0753 89.8101 62.8357 91.7621C62.8357 91.7621 62.3066 96.22 61.7775 100.692C61.2483 105.163 60.7292 109.649 60.7292 109.649C60.7292 109.649 59.4114 109.787 57.4247 109.981C55.438 110.203 52.7824 110.479 50.1468 110.784C47.5012 111.061 44.8556 111.365 42.8688 111.587C40.8821 111.808 39.5643 111.961 39.5643 111.961C39.5643 111.961 40.0535 108.029 40.8023 102.159C41.1717 99.2241 41.6109 95.7908 42.0802 92.1359C42.3198 90.3085 42.5494 88.398 42.799 86.4875C43.0386 84.577 43.2882 82.6389 43.5377 80.6868C43.7873 78.7348 44.0269 76.7828 44.2765 74.8861C44.5261 72.9618 44.7557 71.079 44.9853 69.2654C45.4645 65.6383 45.8938 62.2326 46.2632 59.3253C47.002 53.5246 47.5012 49.6621 47.5012 49.6621C47.5012 49.6621 47.012 46.6303 46.2832 42.1171C45.9138 39.8328 45.4845 37.1886 45.0153 34.3367C44.566 31.4986 44.0768 28.4668 43.5877 25.4211C43.0985 22.3753 42.6093 19.3296 42.15 16.4777C41.6808 13.612 41.2515 10.9401 40.8821 8.64196C40.1434 4.04571 39.6542 1 39.6542 1C39.6542 1 40.982 1 42.9587 1C44.9254 1 47.5611 1 50.1867 1C52.8123 1 55.448 1 57.4147 1C59.3914 1 60.6993 1 60.6993 1C60.8889 2.46748 61.1685 4.47488 61.5479 6.96682C61.9272 9.45877 62.4064 12.4353 62.9755 15.9101C63.4148 18.5682 63.8241 21.1017 64.1935 23.5244C64.5628 25.9333 64.9023 28.2453 65.1818 30.4603C65.1818 30.4603 65.4713 28.6052 65.9106 25.8364C66.1302 24.452 66.3898 22.8322 66.6594 21.1017C66.9289 19.385 67.2184 17.5299 67.5179 15.7025C67.8075 13.8474 68.097 12.0061 68.3565 10.2894C68.6361 8.5589 68.8957 6.95298 69.1053 5.56856C69.5446 2.81358 69.8541 1 69.8541 1C69.8541 1 70.9922 1 72.6894 1C74.4065 1 76.6827 1 78.9589 1C81.2452 1 83.5314 1 85.2385 1C86.9457 1 88.0938 1 88.0938 1ZM95.0722 1C95.0722 1 96.4399 1 98.4865 1C100.543 1 103.289 1 106.024 1C108.759 1 111.505 1 113.562 1C115.608 1 116.986 1 116.986 1C119.941 1 122.547 1.1246 124.823 1.41532C127.089 1.67836 129.026 2.12137 130.613 2.68898C132.211 3.25659 133.608 3.96264 134.806 4.77945C136.004 5.6101 137.003 6.56534 137.781 7.63134C139.419 9.77718 140.497 12.3799 141.046 15.4533C141.335 16.9623 141.555 18.8866 141.695 21.254C141.845 23.6075 141.914 26.3901 141.904 29.5881V38.4899C141.894 41.7433 141.765 44.5675 141.485 46.9625C141.196 49.3299 140.796 51.2957 140.237 52.8186C139.688 54.3276 138.909 55.6705 137.881 56.8472C136.853 58.024 135.605 59.0485 134.127 59.8929C132.67 60.7513 130.983 61.4158 129.046 61.9003C127.129 62.3572 124.983 62.6479 122.607 62.7448L116.756 62.9802C116.756 62.9802 116.756 65.5829 116.756 69.5146C116.756 71.4666 116.736 73.7648 116.736 76.2013C116.726 78.6656 116.726 81.2683 116.726 83.8848C116.706 86.5014 116.706 89.1179 116.696 91.5683C116.696 94.0049 116.686 96.303 116.686 98.255C116.676 102.187 116.676 104.803 116.676 104.803C116.676 104.803 115.309 104.886 113.262 105.025C111.225 105.191 108.5 105.385 105.784 105.592C103.069 105.814 100.343 106.022 98.3068 106.188C96.2702 106.354 94.9125 106.465 94.9125 106.465C94.9125 106.465 94.9225 104.817 94.9324 101.924C94.9324 100.498 94.9324 98.7396 94.9424 96.7322C94.9524 94.7109 94.9524 92.4543 94.9624 89.9762C94.9624 87.512 94.9724 84.8124 94.9824 81.9882C94.9824 79.164 94.9923 76.1875 94.9923 73.0864C95.0023 69.9992 95.0123 66.8012 95.0123 63.5616C95.0123 60.3221 95.0223 57.0272 95.0323 53.7185C95.0323 50.4236 95.0423 47.1287 95.0423 43.8891C95.0423 40.6496 95.0522 37.4516 95.0522 34.3644C95.0522 31.2633 95.0522 28.2868 95.0622 25.4487C95.0622 22.6245 95.0622 19.9388 95.0622 17.4745C95.0522 14.9964 95.0622 12.726 95.0522 10.7186C95.0622 8.71118 95.0622 6.95298 95.0622 5.52703C95.0622 2.63361 95.0722 1 95.0722 1ZM116.806 18.7482C116.806 18.7482 116.806 20.3956 116.816 22.8737C116.816 25.3518 116.806 28.6467 116.796 31.9555C116.806 35.2642 116.796 38.5591 116.796 41.0372C116.786 43.5153 116.796 45.1628 116.796 45.1628C117.405 45.1905 117.954 45.2043 118.393 45.1905C120.4 45.1074 121.778 44.4706 122.527 43.28C123.325 42.0063 123.715 39.4728 123.735 35.6519L123.745 27.1654C123.745 23.6075 123.285 21.3232 122.397 20.271C121.488 19.2189 119.641 18.7066 116.806 18.7482ZM148.194 1C148.194 1 150.45 1 153.855 1C155.552 1 157.539 1 159.665 1C161.791 1 164.058 1 166.314 1C168.59 1 170.856 1 172.983 1C175.099 1 177.096 1 178.793 1C182.188 1 184.454 1 184.454 1C184.454 1 184.454 2.23213 184.454 4.11493C184.454 5.99773 184.454 8.51736 184.454 11.037C184.444 13.5289 184.454 16.0347 184.444 17.9314C184.454 19.8142 184.454 21.074 184.454 21.074C184.454 21.074 180.82 21.074 177.196 21.1017C173.562 21.1294 169.938 21.1571 169.938 21.1571C169.938 21.1571 169.928 25.9471 169.938 30.7372C169.928 35.5134 169.928 40.3035 169.928 40.3035C169.928 40.3035 173.322 40.2481 176.717 40.2066C180.111 40.1512 183.515 40.1097 183.515 40.1097C183.515 40.1097 183.515 44.8859 183.505 49.6483C183.505 54.4384 183.505 59.2284 183.505 59.2284C183.505 59.2284 180.091 59.2838 176.697 59.353C173.302 59.4222 169.908 59.4915 169.908 59.4915C169.908 59.4915 169.898 60.8897 169.908 62.9663C169.898 65.043 169.888 67.8118 169.898 70.5945C169.888 73.3633 169.888 76.1321 169.878 78.2226C169.878 80.2854 169.868 81.6836 169.868 81.6836C169.868 81.6836 173.861 81.559 177.865 81.4483C181.858 81.3237 185.852 81.2406 185.852 81.2406C185.852 81.2406 185.852 82.4866 185.852 84.3694C185.852 86.2383 185.842 88.758 185.842 91.2776C185.832 93.7834 185.832 96.2892 185.832 98.172C185.822 100.055 185.822 101.315 185.822 101.315C185.822 101.315 183.456 101.384 179.911 101.495C178.144 101.564 176.078 101.633 173.871 101.716C171.655 101.799 169.299 101.882 166.943 101.993C164.567 102.076 162.211 102.187 159.994 102.298C157.798 102.394 155.722 102.478 153.954 102.561C150.42 102.741 148.054 102.865 148.054 102.865C148.054 102.865 148.064 101.287 148.074 98.4904C148.074 97.106 148.074 95.4031 148.084 93.465C148.084 91.5129 148.094 89.3394 148.094 86.9444C148.104 84.5632 148.104 81.9605 148.114 79.2194C148.114 76.5059 148.124 73.6125 148.134 70.6221C148.134 67.6457 148.144 64.5584 148.144 61.4296C148.144 58.3009 148.154 55.1167 148.144 51.9326C148.164 48.7484 148.164 45.5504 148.164 42.4355C148.174 39.2929 148.174 36.2056 148.174 33.2291C148.174 30.2388 148.184 27.3592 148.184 24.6181C148.184 21.877 148.184 19.2881 148.184 16.9069C148.184 14.5119 148.184 12.3245 148.184 10.3863C148.184 8.44814 148.184 6.75916 148.184 5.37475C148.174 2.57823 148.194 1 148.194 1ZM192.201 1C192.201 1 193.219 1 194.737 1C196.274 1 198.311 1 200.347 1C202.384 1 204.421 1 205.948 1C207.476 1 208.494 1 208.494 1C211.12 1 213.516 1.02769 215.722 1.08306C217.918 1.16613 219.905 1.26304 221.682 1.41532C223.449 1.56761 225.017 1.74758 226.364 1.95525C227.712 2.16291 228.84 2.4121 229.769 2.70283C231.626 3.27044 233.263 4.03187 234.681 4.97327C236.088 5.92851 237.276 7.03604 238.245 8.36508C239.213 9.68027 240.002 11.0508 240.601 12.5322C241.2 13.9858 241.619 15.5363 241.869 17.1561C242.108 18.7482 242.288 21.1294 242.408 24.2858C242.468 25.8502 242.517 27.6361 242.547 29.602C242.577 31.5678 242.597 33.7275 242.597 36.0949C242.597 36.0949 242.597 38.2684 242.597 41.5356C242.587 43.1831 242.597 45.0797 242.597 47.1148C242.597 49.1499 242.597 51.3511 242.597 53.5246C242.597 55.6982 242.597 57.8855 242.597 59.9206C242.597 61.9696 242.597 63.8662 242.597 65.5137C242.597 68.7809 242.597 70.9544 242.597 70.9544C242.597 73.1833 242.567 75.2461 242.527 77.0874C242.478 78.9702 242.408 80.6453 242.318 82.1405C242.138 85.1308 241.869 87.3874 241.499 88.8964C240.82 91.8867 239.592 94.2541 237.835 95.9569C236.068 97.6597 233.902 98.8503 231.306 99.5425C230.018 99.8748 228.401 100.138 226.454 100.318C224.497 100.484 222.221 100.595 219.615 100.609C219.615 100.609 217.898 100.65 215.323 100.664C214.035 100.678 212.527 100.719 210.92 100.733C209.313 100.761 207.595 100.789 205.868 100.83C204.151 100.844 202.434 100.899 200.817 100.913C199.209 100.968 197.712 100.982 196.424 101.024C193.838 101.079 192.131 101.121 192.131 101.121C192.131 101.121 192.121 99.5702 192.141 96.8291C192.131 95.4585 192.131 93.7972 192.141 91.8867C192.141 89.9762 192.141 87.8304 192.141 85.4769C192.151 83.1372 192.151 80.5761 192.161 77.8903C192.151 75.2184 192.161 72.3804 192.161 69.4454C192.171 66.5104 192.181 63.4786 192.171 60.3913C192.181 57.3179 192.181 54.1892 192.191 51.0604C192.191 47.9316 192.181 44.8028 192.181 41.7294C192.181 38.6422 192.191 35.6103 192.201 32.6754C192.191 29.7404 192.191 26.9024 192.191 24.2166C192.191 21.5309 192.191 18.9835 192.191 16.6439C192.201 14.2765 192.191 12.1307 192.191 10.234C192.191 8.32355 192.201 6.66225 192.191 5.29168C192.191 2.55054 192.201 1 192.201 1ZM213.955 18.0283C213.955 18.0283 213.955 19.0666 213.955 20.8525C213.955 22.6522 213.955 25.2134 213.955 28.2868C213.955 29.8235 213.955 31.4848 213.945 33.2568C213.955 35.015 213.955 36.8701 213.945 38.7945C213.955 40.705 213.955 42.6847 213.955 44.7059C213.955 46.7272 213.955 48.7623 213.955 50.8389C213.945 52.8878 213.945 54.9367 213.945 56.958C213.945 58.9654 213.945 60.9451 213.945 62.8694C213.945 64.7938 213.945 66.6489 213.945 68.4071C213.945 70.1791 213.935 71.8404 213.935 73.3771C213.935 76.4505 213.935 78.9979 213.935 80.8114C213.935 82.5973 213.925 83.6356 213.925 83.6356C217.07 83.5941 219.007 82.8465 219.735 81.3514C220.095 80.5899 220.364 79.1917 220.544 77.1427C220.734 75.1076 220.824 72.4219 220.824 69.0993C220.824 69.0993 220.814 66.6766 220.824 63.0494C220.824 61.2358 220.833 59.1177 220.833 56.8611C220.823 54.5906 220.824 52.1679 220.824 49.7452C220.824 47.3225 220.833 44.9136 220.833 42.6432C220.833 40.3866 220.823 38.2684 220.833 36.441C220.833 32.8138 220.833 30.3911 220.833 30.3911C220.823 25.8779 220.704 22.9983 220.464 21.7247C220.224 20.451 219.675 19.5235 218.817 18.9558C217.958 18.3329 216.341 18.0283 213.955 18.0283ZM288.102 1C288.102 1 290.388 1 293.782 1C295.48 1 297.456 1 299.573 1C301.719 1 303.985 1 306.252 1C308.508 1 310.784 1 312.911 1C315.037 1 317.024 1 318.721 1C322.105 1 324.392 1 324.392 1C324.392 1 324.392 2.25982 324.392 4.15646C324.382 6.06695 324.382 8.61427 324.392 11.1616C324.392 13.6951 324.392 16.2424 324.392 18.1529C324.392 20.0634 324.392 21.3232 324.392 21.3232C324.392 21.3232 320.758 21.2955 317.114 21.254C313.5 21.2263 309.876 21.1986 309.876 21.1986C309.876 21.1986 309.876 25.9887 309.876 30.7787C309.886 35.555 309.886 40.3589 309.886 40.3589C309.886 40.3589 313.28 40.4142 316.674 40.4696C320.059 40.525 323.473 40.5942 323.473 40.5942C323.473 40.5942 323.483 45.4258 323.483 50.2574C323.493 55.1167 323.503 59.9345 323.503 59.9345C323.503 59.9345 320.089 59.8514 316.694 59.7545C313.3 59.6714 309.906 59.5884 309.906 59.5884C309.906 59.5884 309.906 60.9728 309.916 63.0494C309.916 65.1399 309.916 67.9087 309.926 70.6914C309.926 73.474 309.936 76.2429 309.936 78.3333C309.936 80.41 309.936 81.7944 309.936 81.7944C309.936 81.7944 313.929 81.9328 317.922 82.0851C321.916 82.2374 325.919 82.3758 325.919 82.3758C325.919 82.3758 325.919 83.6633 325.909 85.5738C325.919 87.4705 325.929 90.0178 325.939 92.5651C325.929 95.1263 325.949 97.6597 325.939 99.5702C325.959 101.481 325.959 102.768 325.959 102.768C325.959 102.768 323.593 102.63 320.049 102.478C318.282 102.394 316.215 102.284 314.009 102.187C311.793 102.09 309.436 101.993 307.08 101.91C304.714 101.799 302.348 101.716 300.142 101.633C297.926 101.55 295.869 101.495 294.092 101.439C290.548 101.315 288.172 101.245 288.172 101.245C288.172 101.245 288.192 99.681 288.192 96.926C288.192 95.5693 288.182 93.908 288.162 91.9836C288.182 90.0732 288.172 87.9412 288.172 85.5738C288.172 83.2342 288.152 80.673 288.162 77.9734C288.162 75.3015 288.162 72.4634 288.152 69.5146C288.152 66.5935 288.152 63.5478 288.142 60.4606C288.142 57.3872 288.142 54.2445 288.132 51.1158C288.132 47.987 288.132 44.8444 288.132 41.771C288.132 38.6837 288.122 35.6519 288.122 32.7169C288.122 29.7681 288.122 26.9301 288.122 24.2443C288.122 21.5447 288.122 18.9974 288.122 16.6577C288.102 14.3042 288.122 12.1445 288.102 10.2479C288.122 8.32355 288.122 6.66225 288.122 5.30553C288.122 2.55054 288.102 1 288.102 1ZM380.718 1C380.718 1 380.718 2.63361 380.718 5.52703C380.718 6.95298 380.718 8.71118 380.718 10.7186C380.718 12.726 380.718 14.9826 380.718 17.4607C380.718 19.9249 380.718 22.6107 380.718 25.4487C380.728 28.2729 380.728 31.2633 380.728 34.3505C380.728 37.4378 380.738 40.6358 380.738 43.8753C380.738 47.1148 380.748 50.4097 380.748 53.7046C380.758 56.9995 380.758 60.2944 380.768 63.5339C380.768 66.7873 380.778 69.9853 380.788 73.0587C380.788 76.1598 380.798 79.1363 380.798 81.9605C380.808 84.7847 380.818 87.4843 380.818 89.9486C380.828 92.4267 380.828 94.6833 380.828 96.6907C380.848 98.7119 380.848 100.456 380.848 101.896C380.858 104.789 380.868 106.437 380.868 106.437C380.868 106.437 379.67 106.326 377.883 106.174C376.096 106.049 373.71 105.855 371.334 105.662C368.948 105.482 366.562 105.302 364.775 105.177C362.988 105.053 361.79 104.956 361.79 104.956C361.79 104.956 361.081 101.951 359.993 97.4521C359.463 95.2093 358.834 92.5651 358.166 89.7824C357.497 86.9859 356.778 83.9956 356.069 81.0052C355.36 78.0426 354.641 75.0661 353.963 72.2834C353.304 69.5008 352.675 66.8842 352.146 64.6692C351.067 60.2252 350.369 57.2764 350.369 57.2764C350.369 57.2764 350.368 60.2114 350.378 64.5999C350.378 66.8012 350.388 69.3623 350.388 72.1173C350.398 74.8585 350.408 77.7934 350.408 80.7145C350.418 83.6495 350.418 86.5844 350.428 89.3256C350.438 92.0667 350.428 94.6556 350.448 96.8429C350.458 101.245 350.468 104.18 350.468 104.18C350.468 104.18 349.33 104.111 347.623 104C345.916 103.89 343.64 103.751 341.363 103.599C339.087 103.488 336.811 103.35 335.104 103.239C333.397 103.156 332.269 103.087 332.269 103.087C332.269 103.087 332.259 101.495 332.259 98.6981C332.249 97.3136 332.249 95.6108 332.239 93.6588C332.239 91.7206 332.219 89.5332 332.229 87.1382C332.219 84.7432 332.219 82.1405 332.199 79.3993C332.209 76.6582 332.189 73.7786 332.189 70.7744C332.179 67.7979 332.189 64.6969 332.169 61.5542C332.169 58.4255 332.169 55.2275 332.169 52.0433C332.159 48.8453 332.159 45.6473 332.149 42.5186C332.149 39.3759 332.149 36.2749 332.149 33.2984C332.149 30.2942 332.139 27.4146 332.139 24.6735C332.129 21.9323 332.139 19.3296 332.139 16.9484C332.139 14.5396 332.139 12.3522 332.139 10.414C332.139 8.46199 332.139 6.773 332.139 5.37475C332.139 2.57823 332.139 1 332.139 1C332.139 1 333.267 1 334.974 1C336.681 1 338.957 1 341.234 1C343.5 1 345.776 1 347.483 1C349.19 1 350.329 1 350.329 1C350.329 1 351.087 3.89342 352.225 8.25433C352.804 10.4417 353.473 12.989 354.182 15.7163C354.901 18.4575 355.66 21.3786 356.428 24.3135C357.187 27.2485 357.956 30.1834 358.675 32.9246C359.384 35.6796 360.052 38.2546 360.641 40.4558C361.78 44.8721 362.558 47.8209 362.558 47.8209C362.558 47.8209 362.548 44.8997 362.548 40.5112C362.538 38.3099 362.538 35.7626 362.538 33.0076C362.538 30.2665 362.518 27.3315 362.528 24.4104C362.528 21.4755 362.528 18.5544 362.528 15.7994C362.528 13.0582 362.528 10.4971 362.528 8.3097C362.528 3.90727 362.528 1 362.528 1C362.528 1 363.656 1 365.364 1C367.071 1 369.347 1 371.623 1C373.889 1 376.166 1 377.873 1C379.57 1 380.718 1 380.718 1ZM433.321 1C433.321 1 433.321 2.37057 433.321 4.43335C433.321 6.52381 433.321 9.27879 433.321 12.0476C433.321 14.8164 433.321 17.5853 433.321 19.6619C433.321 21.7247 433.321 23.1091 433.321 23.1091C433.321 23.1091 430.086 23.026 426.862 22.9568C423.627 22.9014 420.402 22.8184 420.402 22.8184C420.402 22.8184 420.402 24.1889 420.402 26.584C420.402 28.9651 420.412 32.3846 420.412 36.4825C420.412 38.5176 420.412 40.7327 420.412 43.0723C420.422 45.4258 420.422 47.9039 420.422 50.4651C420.422 53.0263 420.432 55.6705 420.432 58.3562C420.432 61.042 420.442 63.7693 420.442 66.4966C420.442 69.2239 420.452 71.965 420.452 74.6508C420.462 77.3227 420.462 79.9808 420.462 82.5419C420.472 85.0893 420.472 87.5674 420.482 89.907C420.482 92.2605 420.492 94.4617 420.492 96.5245C420.502 100.622 420.512 104.014 420.512 106.409C420.522 108.818 420.522 110.175 420.522 110.175C420.522 110.175 419.154 110.036 417.118 109.829C415.091 109.607 412.366 109.316 409.65 109.067C406.935 108.777 404.219 108.527 402.183 108.334C400.146 108.14 398.788 108.001 398.788 108.001C398.788 108.001 398.788 106.672 398.778 104.319C398.768 101.979 398.758 98.6427 398.758 94.6279C398.748 92.6066 398.748 90.4469 398.738 88.135C398.728 85.8507 398.728 83.428 398.728 80.9222C398.718 78.4026 398.718 75.8137 398.698 73.1833C398.708 70.5529 398.688 67.8672 398.698 65.1952C398.678 62.5233 398.678 59.8514 398.688 57.221C398.668 54.5906 398.668 51.9879 398.668 49.4822C398.658 46.9764 398.668 44.5398 398.668 42.2417C398.658 39.9435 398.658 37.7839 398.648 35.7765C398.658 31.7617 398.648 28.4114 398.638 26.0717C398.648 23.7321 398.648 22.403 398.648 22.403C398.648 22.403 395.424 22.3338 392.209 22.2784C388.994 22.2231 385.78 22.1538 385.78 22.1538C385.78 22.1538 385.78 20.8386 385.78 18.8589C385.78 16.8792 385.78 14.2211 385.78 11.5769C385.78 8.93269 385.78 6.27461 385.77 4.2949C385.78 2.30135 385.78 1 385.78 1C385.78 1 388.745 1 393.207 1C395.434 1 398.029 1 400.815 1C402.202 1 403.65 1 405.108 1C406.575 1 408.053 1 409.55 1C411.028 1 412.515 1 413.973 1C415.44 1 416.878 1 418.266 1C421.061 1 423.657 1 425.873 1C430.346 1 433.321 1 433.321 1ZM438.283 1C438.283 1 440.549 1 443.943 1C445.64 1 447.627 1 449.744 1C451.88 1 454.146 1 456.413 1C458.679 1 460.945 1 463.071 1C465.198 1 467.175 1 468.882 1C472.276 1 474.542 1 474.542 1C474.542 1 474.552 2.42595 474.552 4.59947C474.552 6.78685 474.542 9.66643 474.552 12.5737C474.552 15.4533 474.552 18.3605 474.542 20.5341C474.552 22.6938 474.552 24.1474 474.552 24.1474C474.552 24.1474 470.918 24.0366 467.284 23.9397C463.66 23.8567 460.036 23.7598 460.036 23.7598C460.036 23.7598 460.036 29.159 460.027 34.5443C460.027 39.9435 460.027 45.3428 460.027 45.3428C460.027 45.3428 463.431 45.5089 466.825 45.6889C470.22 45.855 473.624 46.035 473.624 46.035C473.624 46.035 473.624 51.5449 473.624 57.0411C473.624 62.5649 473.624 68.0748 473.624 68.0748C473.624 68.0748 470.22 67.7979 466.825 67.5349C463.441 67.2719 460.036 67.0227 460.036 67.0227C460.036 67.0227 460.046 68.5871 460.046 70.9267C460.046 73.2664 460.056 76.3952 460.046 79.5239C460.056 82.6665 460.046 85.7815 460.056 88.135C460.046 90.4746 460.066 92.0529 460.066 92.0529C460.066 92.0529 464.04 92.4682 468.023 92.8835C472.007 93.3127 475.99 93.7557 475.99 93.7557C475.99 93.7557 476 95.1955 476 97.3829C476 99.5425 476 102.45 475.99 105.357C476 108.264 476 111.158 475.99 113.317C476 115.505 476 116.958 476 116.958C476 116.958 473.634 116.64 470.11 116.156C468.353 115.906 466.296 115.643 464.09 115.339C461.893 115.062 459.537 114.757 457.191 114.467C454.835 114.148 452.479 113.857 450.283 113.58C448.076 113.317 446.02 113.068 444.253 112.861C440.729 112.431 438.372 112.155 438.372 112.155C438.372 112.155 438.372 110.424 438.362 107.378C438.362 105.869 438.352 104.014 438.362 101.896C438.352 99.7779 438.352 97.3967 438.342 94.7802C438.333 92.1775 438.332 89.3394 438.332 86.3629C438.332 83.3864 438.323 80.2438 438.323 76.9766C438.323 73.7232 438.313 70.3591 438.313 66.9396C438.303 63.5201 438.303 60.0452 438.303 56.5704C438.303 53.0955 438.293 49.6206 438.283 46.2149C438.293 42.7816 438.293 39.4175 438.283 36.1641C438.273 32.8969 438.283 29.7543 438.283 26.7778C438.283 23.7874 438.283 20.9632 438.283 18.3605C438.283 15.744 438.283 13.3628 438.283 11.2447C438.283 9.12651 438.283 7.28524 438.283 5.77623C438.283 2.71667 438.283 1 438.283 1Z" fill="white"/>
<path fill-rule="evenodd" clip-rule="evenodd" d="M259 33.0132C264.138 30.3038 266.985 30.2482 272 33.0132C271.292 23.5439 270.771 18.3436 269.605 9.25604C270.485 7.63002 270.218 6.50919 269.263 4.36981L270.118 3.02189C270.412 2.52681 270.398 2.27013 270.118 1.84245C269.207 1.29091 268.681 1.10797 267.724 1H263.105C262.078 1.11053 261.584 1.28481 260.882 1.84245C260.675 2.36881 260.665 2.63029 260.882 3.02189L261.737 4.36981C260.594 6.43689 260.434 7.51986 261.395 9.25604C260.082 18.4843 259.566 23.6871 259 33.0132ZM268.669 43.3232L272.542 38.0153L276.239 42.1621C277.313 43.9115 277.746 44.9772 278 47.1382V97.729C277.534 98.8357 277.112 99.3817 276.063 100.217C273.733 101.381 272.136 101.765 268.845 102.042H261.275C258.616 101.753 257.187 101.361 254.761 100.217C253.727 99.3912 253.266 98.878 253 97.729V60.0762L253.176 47.1382C253.323 44.9605 253.621 43.8657 254.585 42.1621L258.458 38.0153L262.331 43.3232H268.669ZM267.613 45.3136H263.563C262.763 45.4888 262.475 45.6948 262.331 46.3088L258.81 85.1228L265.5 91.7576L272.19 85.1228L268.669 46.3088C268.668 45.6872 268.396 45.4925 267.613 45.3136Z" fill="#FFA507"/>
<path d="M272 33.0132L271.879 33.2321L272.284 33.4551L272.249 32.9946L272 33.0132ZM259 33.0132L258.75 32.9981L258.724 33.4416L259.117 33.2343L259 33.0132ZM269.605 9.25604L269.385 9.13704L269.347 9.20791L269.357 9.28784L269.605 9.25604ZM269.263 4.36981L269.052 4.23587L268.98 4.34915L269.035 4.47167L269.263 4.36981ZM270.118 3.02189L270.33 3.15589L270.333 3.14934L270.118 3.02189ZM270.118 1.84245L270.328 1.70563L270.297 1.65804L270.248 1.6286L270.118 1.84245ZM267.724 1L267.752 0.751576L267.738 0.75H267.724V1ZM263.105 1V0.75H263.092L263.078 0.751435L263.105 1ZM260.882 1.84245L260.726 1.64664L260.673 1.68853L260.649 1.75126L260.882 1.84245ZM260.882 3.02189L260.663 3.14268L260.666 3.14937L260.67 3.15583L260.882 3.02189ZM261.737 4.36981L261.956 4.4908L262.027 4.36106L261.948 4.23587L261.737 4.36981ZM261.395 9.25604L261.642 9.29126L261.654 9.20834L261.613 9.13504L261.395 9.25604ZM272.542 38.0153L272.729 37.8489L272.523 37.6178L272.34 37.8679L272.542 38.0153ZM268.669 43.3232V43.5732H268.796L268.871 43.4705L268.669 43.3232ZM276.239 42.1621L276.453 42.0313L276.441 42.0123L276.426 41.9957L276.239 42.1621ZM278 47.1382H278.25V47.1236L278.248 47.109L278 47.1382ZM278 97.729L278.23 97.826L278.25 97.7795V97.729H278ZM276.063 100.217L276.175 100.441L276.199 100.429L276.219 100.413L276.063 100.217ZM268.845 102.042V102.292H268.856L268.866 102.291L268.845 102.042ZM261.275 102.042L261.248 102.29L261.261 102.292H261.275V102.042ZM254.761 100.217L254.605 100.412L254.627 100.431L254.654 100.443L254.761 100.217ZM253 97.729H252.75V97.7576L252.756 97.7855L253 97.729ZM253 60.0762L252.75 60.0728V60.0762H253ZM253.176 47.1382L252.926 47.1214L252.926 47.1348L253.176 47.1382ZM254.585 42.1621L254.402 41.9914L254.382 42.0131L254.367 42.039L254.585 42.1621ZM258.458 38.0153L258.66 37.8679L258.481 37.6236L258.275 37.8446L258.458 38.0153ZM262.331 43.3232L262.129 43.4705L262.204 43.5732H262.331V43.3232ZM263.563 45.3136V45.0636H263.536L263.51 45.0694L263.563 45.3136ZM267.613 45.3136L267.668 45.0699L267.641 45.0636H267.613V45.3136ZM262.331 46.3088L262.088 46.2517L262.084 46.2688L262.082 46.2863L262.331 46.3088ZM258.81 85.1228L258.561 85.1002L258.55 85.2174L258.634 85.3003L258.81 85.1228ZM265.5 91.7576L265.324 91.9352L265.5 92.1097L265.676 91.9352L265.5 91.7576ZM272.19 85.1228L272.366 85.3003L272.45 85.2174L272.439 85.1002L272.19 85.1228ZM268.669 46.3088L268.419 46.3093L268.419 46.3204L268.42 46.3314L268.669 46.3088ZM272.121 32.7943C269.597 31.4031 267.587 30.7031 265.545 30.7103C263.504 30.7175 261.465 31.4306 258.883 32.7921L259.117 33.2343C261.673 31.8864 263.626 31.217 265.547 31.2103C267.466 31.2036 269.387 31.8583 271.879 33.2321L272.121 32.7943ZM269.357 9.28784C270.522 18.3708 271.043 23.5667 271.751 33.0318L272.249 32.9946C271.541 23.5211 271.019 18.3164 269.853 9.22424L269.357 9.28784ZM269.035 4.47167C269.512 5.54119 269.802 6.32368 269.873 7.03069C269.944 7.72279 269.806 8.35956 269.385 9.13704L269.825 9.37504C270.284 8.5265 270.453 7.78985 270.371 6.98019C270.29 6.18543 269.969 5.33782 269.491 4.26796L269.035 4.47167ZM269.907 2.88795L269.052 4.23587L269.474 4.50375L270.329 3.15583L269.907 2.88795ZM269.909 1.97928C270.04 2.17921 270.082 2.3013 270.083 2.40928C270.084 2.5199 270.042 2.65967 269.903 2.89443L270.333 3.14934C270.488 2.88903 270.586 2.65292 270.583 2.4045C270.581 2.15346 270.477 1.93337 270.328 1.70563L269.909 1.97928ZM267.696 1.24842C268.163 1.30118 268.514 1.37096 268.856 1.49078C269.198 1.61094 269.541 1.78496 269.989 2.05631L270.248 1.6286C269.785 1.34841 269.409 1.15519 269.021 1.019C268.632 0.882466 268.241 0.806796 267.752 0.751576L267.696 1.24842ZM263.105 1.25H267.724V0.75H263.105V1.25ZM261.037 2.03826C261.375 1.77003 261.651 1.60293 261.959 1.48771C262.27 1.37142 262.626 1.30298 263.132 1.24856L263.078 0.751435C262.557 0.807552 262.153 0.881522 261.784 1.01941C261.413 1.15838 261.091 1.35724 260.726 1.64664L261.037 2.03826ZM261.1 2.90109C261.006 2.72922 260.972 2.60849 260.973 2.48442C260.974 2.35159 261.014 2.1896 261.114 1.93365L260.649 1.75126C260.543 2.02166 260.475 2.25359 260.473 2.48099C260.472 2.71715 260.541 2.92296 260.663 3.14268L261.1 2.90109ZM261.948 4.23587L261.093 2.88795L260.67 3.15583L261.526 4.50375L261.948 4.23587ZM261.613 9.13504C261.147 8.29249 260.969 7.6379 261.026 6.95793C261.084 6.2671 261.387 5.51834 261.956 4.4908L261.518 4.24882C260.943 5.28836 260.595 6.11463 260.528 6.91609C260.46 7.72843 260.682 8.48341 261.176 9.37703L261.613 9.13504ZM259.25 33.0284C259.815 23.7087 260.33 18.5126 261.642 9.29126L261.147 9.22082C259.833 18.456 259.317 23.6656 258.75 32.9981L259.25 33.0284ZM272.34 37.8679L268.467 43.1758L268.871 43.4705L272.744 38.1626L272.34 37.8679ZM276.426 41.9957L272.729 37.8489L272.356 38.1816L276.053 42.3284L276.426 41.9957ZM278.248 47.109C278.12 46.0166 277.945 45.1896 277.662 44.4105C277.379 43.6322 276.993 42.912 276.453 42.0313L276.026 42.2928C276.559 43.1616 276.926 43.8489 277.192 44.5811C277.457 45.3124 277.626 46.0988 277.752 47.1674L278.248 47.109ZM278.25 97.729V47.1382H277.75V97.729H278.25ZM276.219 100.413C276.751 99.9891 277.135 99.6296 277.448 99.2282C277.761 98.8257 277.993 98.3911 278.23 97.826L277.77 97.6321C277.542 98.1736 277.33 98.5653 277.053 98.9213C276.775 99.2784 276.424 99.6097 275.908 100.022L276.219 100.413ZM268.866 102.291C272.179 102.013 273.808 101.622 276.175 100.441L275.952 99.9934C273.657 101.139 272.094 101.518 268.824 101.793L268.866 102.291ZM261.275 102.292H268.845V101.792H261.275V102.292ZM254.654 100.443C257.106 101.6 258.562 101.998 261.248 102.29L261.302 101.793C258.669 101.507 257.268 101.123 254.867 99.991L254.654 100.443ZM252.756 97.7855C252.896 98.3855 253.089 98.8345 253.392 99.2429C253.69 99.6458 254.085 99.9974 254.605 100.412L254.917 100.022C254.402 99.6108 254.051 99.2929 253.793 98.9455C253.54 98.6036 253.371 98.2215 253.244 97.6726L252.756 97.7855ZM252.75 60.0762V97.729H253.25V60.0762H252.75ZM252.926 47.1348L252.75 60.0728L253.25 60.0796L253.426 47.1416L252.926 47.1348ZM254.367 42.039C253.879 42.9018 253.554 43.6204 253.333 44.4047C253.113 45.1874 253 46.0249 252.927 47.1214L253.425 47.155C253.498 46.0738 253.608 45.2751 253.815 44.54C254.021 43.8066 254.327 43.126 254.802 42.2851L254.367 42.039ZM258.275 37.8446L254.402 41.9914L254.767 42.3327L258.64 38.1859L258.275 37.8446ZM262.533 43.1758L258.66 37.8679L258.256 38.1626L262.129 43.4705L262.533 43.1758ZM268.669 43.0732H262.331V43.5732H268.669V43.0732ZM263.563 45.5636H267.613V45.0636H263.563V45.5636ZM262.574 46.366C262.639 46.0905 262.726 45.9454 262.856 45.8428C262.998 45.7303 263.222 45.6443 263.617 45.5578L263.51 45.0694C263.104 45.1581 262.784 45.2627 262.546 45.4505C262.296 45.6482 262.167 45.9131 262.088 46.2517L262.574 46.366ZM259.059 85.1454L262.58 46.3314L262.082 46.2863L258.561 85.1002L259.059 85.1454ZM265.676 91.5801L258.986 84.9453L258.634 85.3003L265.324 91.9352L265.676 91.5801ZM272.014 84.9453L265.324 91.5801L265.676 91.9352L272.366 85.3003L272.014 84.9453ZM268.42 46.3314L271.941 85.1454L272.439 85.1002L268.918 46.2863L268.42 46.3314ZM267.557 45.5573C267.949 45.6469 268.154 45.73 268.267 45.8314C268.36 45.9142 268.418 46.0356 268.419 46.3093L268.919 46.3084C268.918 45.9605 268.84 45.6737 268.601 45.459C268.382 45.2629 268.059 45.1592 267.668 45.0699L267.557 45.5573Z" fill="#FFA507"/>
<path d="M80 133.5L202.25 130.469V136.531L80 133.5Z" fill="#FFA507"/>
<path d="M401 133.5L278.75 136.531V130.469L401 133.5Z" fill="#FFA507"/>
<path d="M215.236 120.284H221.389C223.332 120.284 224.802 120.436 225.798 120.738C226.804 121.041 227.614 121.656 228.229 122.584C228.845 123.502 229.152 124.986 229.152 127.037C229.152 128.424 228.933 129.391 228.493 129.938C228.063 130.484 227.209 130.904 225.93 131.197C227.355 131.52 228.322 132.057 228.83 132.809C229.338 133.551 229.592 134.693 229.592 136.236V138.434C229.592 140.035 229.406 141.222 229.035 141.993C228.674 142.765 228.093 143.292 227.292 143.575C226.491 143.858 224.851 144 222.37 144H215.236V120.284ZM221.403 124.342V129.615C221.667 129.605 221.872 129.601 222.019 129.601C222.624 129.601 223.01 129.454 223.176 129.161C223.342 128.858 223.425 128.004 223.425 126.598C223.425 125.855 223.356 125.338 223.22 125.045C223.083 124.742 222.902 124.552 222.678 124.474C222.463 124.396 222.038 124.352 221.403 124.342ZM221.403 133.307V139.942C222.272 139.913 222.824 139.776 223.059 139.532C223.303 139.288 223.425 138.688 223.425 137.73V135.519C223.425 134.503 223.317 133.888 223.103 133.673C222.888 133.458 222.321 133.336 221.403 133.307ZM245.468 120.284L248.998 144H242.685L242.377 139.737H240.165L239.799 144H233.412L236.547 120.284H245.468ZM242.201 135.533C241.889 132.848 241.576 129.532 241.264 125.587C240.639 130.118 240.248 133.434 240.092 135.533H242.201ZM253.053 120.284H257.418C260.328 120.284 262.296 120.396 263.321 120.621C264.356 120.846 265.196 121.422 265.841 122.35C266.495 123.268 266.822 124.737 266.822 126.759C266.822 128.604 266.593 129.845 266.134 130.479C265.675 131.114 264.771 131.495 263.424 131.622C264.645 131.925 265.465 132.33 265.885 132.838C266.305 133.346 266.563 133.814 266.661 134.244C266.769 134.664 266.822 135.831 266.822 137.745V144H261.095V136.119C261.095 134.85 260.992 134.063 260.787 133.761C260.592 133.458 260.069 133.307 259.22 133.307V144H253.053V120.284ZM259.22 124.342V129.615C259.913 129.615 260.396 129.522 260.67 129.337C260.953 129.142 261.095 128.521 261.095 127.477V126.173C261.095 125.421 260.958 124.928 260.685 124.693C260.421 124.459 259.933 124.342 259.22 124.342Z" fill="#FFA507"/>
</svg>
